<svg id="Layer_1" data-name="Layer 1" xmlns="http://www.w3.org/2000/svg" viewBox="0 0 500 500"><defs><style>.cls-1{fill:#30a6fb;}.cls-2{fill:#001e36;}</style></defs><rect class="cls-1" width="500" height="500"/><path class="cls-2" d="M250.08,432.94q-58.37,0-116.74,0c-42.43-.06-70.88-28.37-70.92-70.68-.06-75.49-.17-151,.07-226.45.08-26.29,11-47,34.45-60a70.78,70.78,0,0,1,34-8.48q119.1-.55,238.19-.1c37.9.13,68.62,29.46,68.5,68.43-.23,76.27.06,152.54-.12,228.81-.1,39.5-28.92,68.26-68.36,68.46C329.48,433.1,289.78,432.94,250.08,432.94Zm-103-188.78q0,36.5,0,73c0,3.48-1.13,8.61,2,9.88,9,3.64,18.25,1.21,27.33-1,7.23-1.73,4-7.58,4.23-11.61a267.35,267.35,0,0,0,0-29.42c-.54-8.71,1.06-12.38,11.39-11.66,11.09.76,22.35.9,33.69-3.18,27.93-10.05,42.28-30.87,39.4-60.43-2.48-25.57-22.47-44.49-49.9-48.33-20.41-2.85-40.72-.41-61.08-.43-7.09,0-7.15,3.84-7.13,9C147.15,194.71,147.09,219.44,147.09,244.16ZM281.6,290.75c0,9.15.14,17.26-.06,25.36-.11,4.25,2.08,6.07,5.62,7.78,20.68,10,41.4,8.46,61.87,0,13.76-5.67,21.78-16.2,23-31.46,1.25-15.43-5.34-26.63-18.52-34-6.48-3.61-13.5-6.22-20.19-9.44-5.27-2.54-10.57-5.09-15.58-8.09-3-1.8-3.56-5.05-2.33-8.34a5.78,5.78,0,0,1,5.49-3.74c12.41-.74,25-2.07,36.7,3.41,6.5,3,8.46,1.17,8.19-5.36a71.26,71.26,0,0,1,.05-11.78c1.13-8.94-3-12.58-11.49-14.14-12.53-2.31-25.18-3-37.51-1-15.92,2.57-29.11,10.66-33.91,27.21-4.6,15.82.2,29.61,13.23,39.73,8.57,6.66,19.15,9.77,29.1,13.9,6.09,2.54,13.55,5.67,12.05,13-1.46,7.1-9.74,6.62-16,6.83-3.49.12-7-.65-10.52-1C301.07,298.61,292.2,294.33,281.6,290.75Z"/><path class="cls-1" d="M147.09,244.16c0-24.72.06-49.45-.05-74.17,0-5.14,0-9,7.13-9,20.36,0,40.67-2.42,61.08.43,27.43,3.84,47.42,22.76,49.9,48.33,2.88,29.56-11.47,50.38-39.4,60.43-11.34,4.08-22.6,3.94-33.69,3.18-10.33-.72-11.93,2.95-11.39,11.66a267.35,267.35,0,0,1,0,29.42c-.19,4,3,9.88-4.23,11.61-9.08,2.17-18.36,4.6-27.33,1-3.11-1.27-2-6.4-2-9.88Q147,280.65,147.09,244.16Zm33.72-24.29c2.38,6.42-5.15,19.17,3.12,22.92,10.7,4.85,23.81,1,35-4.47a21.53,21.53,0,0,0,3.92-2.57c3.13-2.5,5.72-5.64,6.45-9.55,1.83-9.83,2.68-19.76-5.67-27.38-12.28-11.2-27.39-6.21-40.75-4.43-5,.67-1.12,13-2.1,19.93C180.67,215.47,180.81,216.67,180.81,219.87Z"/><path class="cls-1" d="M281.6,290.75c10.6,3.58,19.47,7.86,29.25,8.87,3.51.35,7,1.12,10.52,1,6.22-.21,14.5.27,16-6.83,1.5-7.3-6-10.43-12.05-13-9.95-4.13-20.53-7.24-29.1-13.9-13-10.12-17.83-23.91-13.23-39.73,4.8-16.55,18-24.64,33.91-27.21,12.33-2,25-1.31,37.51,1,8.46,1.56,12.62,5.2,11.49,14.14a71.26,71.26,0,0,0-.05,11.78c.27,6.53-1.69,8.4-8.19,5.36-11.71-5.48-24.29-4.15-36.7-3.41a5.78,5.78,0,0,0-5.49,3.74c-1.23,3.29-.67,6.54,2.33,8.34,5,3,10.31,5.55,15.58,8.09,6.69,3.22,13.71,5.83,20.19,9.44,13.18,7.35,19.77,18.55,18.52,34-1.24,15.26-9.26,25.79-23,31.46-20.47,8.45-41.19,10-61.87,0-3.54-1.71-5.73-3.53-5.62-7.78C281.74,308,281.6,299.9,281.6,290.75Z"/><path class="cls-2" d="M180.81,219.87c0-3.2-.14-4.4,0-5.55,1-6.93-2.88-19.26,2.1-19.93,13.36-1.78,28.47-6.77,40.75,4.43,8.35,7.62,7.5,17.55,5.67,27.38-.73,3.91-3.32,7.05-6.45,9.55a21.53,21.53,0,0,1-3.92,2.57c-11.24,5.51-24.35,9.32-35,4.47C175.66,239,183.19,226.29,180.81,219.87Z"/></svg>