<svg id="Layer_1" data-name="Layer 1" xmlns="http://www.w3.org/2000/svg" viewBox="0 0 500 500"><defs><style>.cls-1{fill:#fb9700;}.cls-2{fill:#300;}</style></defs><rect class="cls-1" width="500" height="500"/><path class="cls-2" d="M249.5,433.07c-40,0-79.95.09-119.93,0-38.79-.1-67.23-28.66-67.28-67.7q-.15-115.28,0-230.55C62.34,95.22,90.81,67,130.58,66.94q119.34-.09,238.7,0c40.32,0,68.42,28.29,68.46,68.87q.11,114.1,0,228.22c0,41.14-28.12,69-69.47,69Q308.89,433.12,249.5,433.07ZM138.73,325.7c9,0,16.39-.5,23.67.13,8.2.72,12.94-1.48,14.51-10.33,1.2-6.78,4.68-13.12,6.23-19.86s4.54-9.59,11.91-9.15c11.59.69,23.36,1.13,34.86-.08s16,3.69,19.2,14.08c8.3,26.84,8.77,26.47,37.36,25.37,6.81-.26,7.85-2.24,5.72-8.21-17.89-50.23-35.61-100.53-53.53-150.74-.92-2.58-1.22-6.43-5.59-6.38-12.77.14-26-1.57-38.07,1.4-3.86.95-4.69,14.22-6.94,21.85-.33,1.1-.9,2.14-1.28,3.24C171,232.6,155.19,278.18,138.73,325.7Zm171.33-62.88v37.25c0,26.15,0,25.83,26.32,25.83,7.68,0,10-2.14,9.9-9.79-.38-30.26-.16-60.53-.16-90.79,0-26.21,0-26-26.82-25.43-7.1.14-9.51,2.32-9.36,9.39C310.31,227.12,310.06,245,310.06,262.82Zm38.28-96c-.31-11.42-8.84-19.2-20.59-18.79-11.58.39-19.27,8.73-18.86,20.42s9.15,19.89,20.25,19.26A20.37,20.37,0,0,0,348.34,166.85Z"/><path class="cls-1" d="M138.73,325.7C155.19,278.18,171,232.6,186.78,187c.38-1.1.95-2.14,1.28-3.24,2.25-7.63,3.08-20.9,6.94-21.85,12.08-3,25.3-1.26,38.07-1.4,4.37-.05,4.67,3.8,5.59,6.38,17.92,50.21,35.64,100.51,53.53,150.74,2.13,6,1.09,8-5.72,8.21-28.59,1.1-29.06,1.47-37.36-25.37-3.22-10.39-7.58-15.31-19.2-14.08s-23.27.77-34.86.08c-7.37-.44-10.36,2.37-11.91,9.15s-5,13.08-6.23,19.86c-1.57,8.85-6.31,11.05-14.51,10.33C155.12,325.2,147.74,325.7,138.73,325.7ZM215,254.87c3.08,0,6.21-.32,9.24.07,8.59,1.09,10.7-1.52,7.58-10-4.9-13.33-8.74-27.05-13-40.63-.69-2.23-.93-4.86-3.92-4.81s-3.09,2.78-3.75,5c-3.22,10.67-6.46,21.33-9.81,32C195.57,254.89,195.53,254.87,215,254.87Z"/><path class="cls-1" d="M310.06,262.82c0-17.85.25-35.7-.12-53.54-.15-7.07,2.26-9.25,9.36-9.39,26.83-.53,26.82-.78,26.82,25.43,0,30.26-.22,60.53.16,90.79.09,7.65-2.22,9.79-9.9,9.79-26.32,0-26.32.32-26.32-25.83Z"/><path class="cls-1" d="M348.34,166.85a20.37,20.37,0,0,1-19.2,20.89c-11.1.63-19.84-7.69-20.25-19.26s7.28-20,18.86-20.42C339.5,147.65,348,155.43,348.34,166.85Z"/><path class="cls-2" d="M215,254.87c-19.48,0-19.44,0-13.61-18.44,3.35-10.63,6.59-21.29,9.81-32,.66-2.19.73-4.93,3.75-5s3.23,2.58,3.92,4.81c4.21,13.58,8.05,27.3,13,40.63,3.12,8.48,1,11.09-7.58,10C221.22,254.55,218.09,254.87,215,254.87Z"/></svg>