<svg id="Layer_1" data-name="Layer 1" xmlns="http://www.w3.org/2000/svg" viewBox="0 0 500 500"><defs><style>.cls-1{fill:#29cc38;}</style></defs><path class="cls-1" d="M234.93,97.52c5-5.65,9.47-10.9,14.21-15.86,5.27-5.54,10.74-10.9,16.28-16.17,1.95-1.86,2-3,0-4.84-11.86-11-24-21.54-37.26-30.85-.57-.41-1.06-.94-2-1.78,4-.41,7.46-.92,11-1.1a223,223,0,0,1,182.67,78A219.85,219.85,0,0,1,462.12,180a225.18,225.18,0,0,1,10.58,53.62,221,221,0,0,1-9.37,82.86,218.22,218.22,0,0,1-38.09,72,222.8,222.8,0,0,1-158.9,84.27,220,220,0,0,1-113-21.25c-9.05-4.33-17.58-9.78-26.24-14.89a5.6,5.6,0,0,1-2.43-3.64q-2.11-16.77-3.81-33.61c-.46-4.62-.35-9.31-.73-13.95-.22-2.68.81-3.29,3.33-3.3,11.46,0,22.93-.25,34.4-.47a38.36,38.36,0,0,0,7.51-.66c3.27-.73,5.92.2,8.71,1.8a149.17,149.17,0,0,0,65.81,19.77c38,2.39,72.22-7.85,102.46-30.74s49.4-53.46,57.37-90.68a145.88,145.88,0,0,0,.63-58.61c-8.65-44.92-32.61-79.38-71.34-103.41a142,142,0,0,0-68.37-21.55C252.39,97.15,244.09,97.52,234.93,97.52Z"/><path class="cls-1" d="M46.71,159.64A277.75,277.75,0,0,1,93.9,146.86c1,5.85,1.79,11.45,2.89,17,1.27,6.48,2.85,12.91,4.15,19.38a3.15,3.15,0,0,1-.86,2.7c-9.79,6.29-19.67,12.45-29.53,18.63a6.25,6.25,0,0,1-1.1.36A282.83,282.83,0,0,1,46.71,159.64Z"/><path class="cls-1" d="M56.63,357.77c2.07-6,3.72-11.55,5.86-16.88,3.55-8.81,7.44-17.48,11.13-26.23.7-1.68,1.48-1.94,3.17-1.11,10,4.93,20.14,9.69,30.16,14.64a3.48,3.48,0,0,1,1.47,2.73c-.76,11-1.76,21.9-2.49,32.87-.15,2.4-1.12,2.83-3.13,2.53-8-1.21-16.06-2.19-24-3.65C71.56,361.35,64.44,359.52,56.63,357.77Z"/><path class="cls-1" d="M67.7,290.1,31.86,263.36A287.33,287.33,0,0,1,65,231.61c.6.63,1.12,1.11,1.56,1.65,6.56,8.23,13.08,16.49,19.69,24.68,1,1.25,1.35,2.1.35,3.61-5.77,8.8-11.42,17.68-17.12,26.52A25.93,25.93,0,0,1,67.7,290.1Z"/><path class="cls-1" d="M111.24,104.09c.32-6.69.69-13.38,1-20.08.08-2,.87-2.73,2.78-2.33l37.12,7.74c1.63.34,2,1.12,1.57,2.79-2.62,9.22-5.08,18.48-7.75,27.68a3.41,3.41,0,0,1-2.46,1.92c-9.73.76-19.48,1.33-29.23,2-1.9.14-2.44-.69-2.43-2.42,0-5.77,0-11.54,0-17.31Z"/><path class="cls-1" d="M201.38,39.7l31.93,23.56c-.95,1.27-1.4,1.95-1.93,2.57-6,6.94-12.17,13.84-18.15,20.86-1.25,1.46-2.25,1.73-4,1-7.84-3.46-15.7-6.86-23.62-10.09-2.29-.93-2.77-1.89-1.64-4.1,5.42-10.61,10.73-21.27,16.09-31.9A21.6,21.6,0,0,1,201.38,39.7Z"/><path class="cls-1" d="M64.17,374.27c4.07.78,7.38,1.51,10.72,2q14.06,2.25,28.13,4.32c1.65.24,2.72.53,2.85,2.58.86,12.81,1.83,25.62,2.75,38.42a5.57,5.57,0,0,1-.3,1.25A224.21,224.21,0,0,1,64.17,374.27Z"/><path class="cls-1" d="M45.12,339.57a221.16,221.16,0,0,1-16.55-58.51c3,2.38,5.57,4.52,8.26,6.44,7.13,5.08,14.33,10.06,21.5,15.1,1.09.76,2.56,1.23,1.68,3.2C55.06,316.92,50.18,328.08,45.12,339.57Z"/><path class="cls-1" d="M36.81,182.64c2.43,4.8,4.42,9,6.63,13,3.35,6.12,6.84,12.18,10.31,18.24.8,1.38,1.31,2.43-.25,3.83-8.53,7.64-17,15.4-25.41,23.12-.27.24-.57.44-1.45,1.1A218.43,218.43,0,0,1,36.81,182.64Z"/><path class="cls-1" d="M91.39,92.56c0,3.72-.06,7,0,10.34.14,7.09.34,14.17.53,21.25,0,1.35.13,2.64-1.64,3-10.34,2.28-20.68,4.58-31.47,7A216.28,216.28,0,0,1,91.39,92.56Z"/><path class="cls-1" d="M130.2,61.46a217.78,217.78,0,0,1,46-22.3c-1.59,3.13-2.9,5.53-4.05,8q-4.72,10.11-9.32,20.29c-.56,1.23-1.07,2-2.68,1.57-9.76-2.38-19.54-4.66-29.31-7C130.68,62,130.57,61.8,130.2,61.46Z"/><path class="cls-1" d="M150.76,368.07h-7.18c-7,0-14-.12-21-.12-1.73,0-2.63-.57-2.49-2.44q1.08-14.34,2.14-28.68a7.62,7.62,0,0,1,.54-1.51A159.9,159.9,0,0,0,151.16,367Z"/><path class="cls-1" d="M97.78,273.25c3.7,12.83,7.33,25.4,11.08,38.37L82,298.32Z"/><path class="cls-1" d="M96.29,242.28l-17-21.91,23.47-15.26C100.61,217.49,98.49,229.64,96.29,242.28Z"/><path class="cls-1" d="M118.36,170.43c-1.23-6.82-2.59-13.54-3.62-20.32s-2.35-6.18,5.47-6.86c6.74-.59,13.49-1,20.52-1.51Z"/><path class="cls-1" d="M197.12,105.78l-28.8,14.16c2.2-7.66,4.37-15.2,6.7-23.33Z"/></svg>