<svg id="Layer_1" data-name="Layer 1" xmlns="http://www.w3.org/2000/svg" viewBox="0 0 500 500"><defs><style>.cls-1{fill:#ff7415;}.cls-2{fill:#88e59d;}.cls-3{fill:#31baff;}.cls-4{fill:#87cbf4;}.cls-5{fill:#f5deb0;}</style></defs><path class="cls-1" d="M57.16,64.44c-4.27-1.73-8.41-3.71-6.93-9.47s6.19-5.34,10.68-5.34q94.73,0,189.47.09c5,0,8.37-.78,11.27-5.7,4.73-8,16.59-11,25.38-6.83,4.39,2.08,7.74,2.35,12.19,0,8.92-4.63,18.46-2,25,7.3,3,4.29,6.14,5.44,10.89,5.19,4.37-.23,8.95-.47,13.13.56,13.58,3.33,20,17.83,13.68,30.86-1.4,2.9-1.92,4.94-.45,8,7.5,15.82-.88,30.14-18.53,32.1-14,1.56-14,1.56-14,15.52,0,11,0,22,0,33.05-.07,13.71-10.05,23.47-23.86,22.85-3.43-.15-4.41.71-4.4,3.79,0,16.16.21,32.32,0,48.47-.07,5.07,3,4.68,6.22,4.68h50.67c32.31,0,64.63.09,96.94-.07,8.48,0,15.29,2.75,20.29,9.64,7.11,9.8,5.56,22.58-4.64,29-5.74,3.61-7.62,8.09-8.63,14.14-4.26,25.34-12.31,49.18-27.61,70.29-14.63,20.2-32.71,36.33-55.18,47.08-7.8,3.74-13.38,8.39-15.8,16.86-1.2,4.19-3.6,8-5.19,12.12-4.36,11.26-13,16.23-24.55,16.25q-79.68.15-159.36,0c-11.76,0-20.57-5.16-24.23-16.5-4.47-13.81-13-21.74-26.45-28.29-44.65-21.72-72.32-57.72-82.16-106.82-1-5-2-10.07-3-15.08-.73-3.4-2-6.14-5.38-8.23-9.75-6.14-13.38-14.56-10.81-23.39,3.19-10.95,11.42-17,23.63-17q100.24-.06,200.49,0c11.13,0,11.13,0,11.13-10.93,0-36.48-.13-73,.14-109.44,0-6.21-1.94-7.84-8-7.82-60.22.2-120.44.12-180.66.11-3.18,0-6.37,0-9.54-.2-4.51-.26-8.39-1.77-8.86-6.94-.44-4.9,2.84-6.9,7.11-7.74q96.87.14,193.74.31c4.94,0,6.31-2.27,6.22-6.78-.18-9.29-.41-18.61.06-27.88.34-6.6-2.22-8.33-8.5-8.3-42.81.22-85.63.08-128.44.13C99.23,64.19,78.19,64.34,57.16,64.44ZM56,314.05c1.73,6.09,3.48,12.17,5.2,18.26,1.14,4.06,2.62,6.18,7.78,4.43s8.48,1.49,8.94,6.82a58.31,58.31,0,0,1,0,12.46c-.78,5.83,1.17,10.36,4.83,14.66,12,14.06,25.58,26.18,42.11,34.69,7.58,3.9,15.85,6.69,22.85,11.39a26.88,26.88,0,0,0,16.22,4.79c34.25-.19,68.51-.09,102.76-.09,5.29,0,10.63,0,11.52,7.1-.65,6.39-4.79,7.52-10.36,7.49q-48.77-.19-97.53,0c-2.87,0-7.51-2-8.3,2-.86,4.31,1.73,8.46,5.64,11.12,1.88,1.27,4.09,1.44,6.34,1.44q79.56,0,159.12,0c3.83,0,7.51-.67,9.35-4.47,2.75-5.68,6.39-11,7.51-17.4,4-8.53,8.71-16,18.24-19.85,13-5.25,24.37-13.52,34.74-22.87,11.5-10.36,22.85-21.11,18.88-39.11a8.74,8.74,0,0,1,.13-4.37c1.2-3.74,3.92-7.73,7.75-5.77,7.44,3.81,8-1.47,9.64-5.84A73.3,73.3,0,0,0,443.84,314c.78-3,1.58-6.09,2.34-9.15,2.89-11.57,2.89-11.57-9.41-11.57H71.2C50,293.3,50,293.3,56,314.05Zm194.57-50H49.31c-5.92,0-13.54-.54-13.43,7.41s7.77,7.19,13.65,7.19h401a28.23,28.23,0,0,0,6.58-.3c3.71-.9,7.35-2.66,7-7.17s-3.5-6.78-7.94-7.09c-1.95-.14-3.92-.05-5.88-.05Zm21-112.35c0,30.09.1,60.18-.1,90.26,0,5.35.84,7.94,7.12,7.82,6-.11,8-1.64,7.93-7.87-.29-32.29-.1-64.58-.17-96.87,0-4.63.8-8.62,6.29-8.89,5.88-.29,7.35,3.79,7.37,8.72,0,7.59,0,15.17,0,22.75,0,5,.59,9.81,7,10,6.91.18,7.45-5,7.46-10.18,0-35.72,0-71.43.05-107.15,0-4.85-1-9.15-6.18-10.27s-7.18,2.94-8.43,7.17c-1.69,5.74-5.57,7.11-10.79,5.14-2.95-1.12-2.92-4.33-3.7-6.81-1.21-3.77-3.7-6-7.54-5.59s-5.78,3.36-6.1,7.14c-.21,2.43-.2,4.89-.2,7.33Q271.58,108.06,271.6,151.73ZM337.38,107c8.5,0,12.18-2.17,12.26-7.2s-4.5-7.72-12.89-7.54c-2.49,0-5.56-1.21-7.28,1.85C325.9,100.42,330,107,337.38,107ZM337,77.56c5.54,0,10.87,1.2,12.21-5.16,1.09-5.23-2.3-8.46-6.86-7.92s-11.81-4.86-13.3,4.66C327.94,76.3,330.89,79.17,337,77.56Z"/><path class="cls-2" d="M57.16,64.44c21-.1,42.07-.25,63.1-.27,42.81,0,85.63.09,128.44-.13,6.28,0,8.84,1.7,8.5,8.3-.47,9.27-.24,18.59-.06,27.88.09,4.51-1.28,6.8-6.22,6.78q-96.87-.24-193.74-.31-.06-7-.11-14c3.17-.14,6.34-.42,9.5-.42q85.11,0,170.2,0c1.95,0,3.91,0,5.87,0,4.33,0,7-2.09,7.14-6.56.13-4.25-2.08-7-6.23-7.81a41.36,41.36,0,0,0-7.31-.21l-179-.23Z"/><path class="cls-1" d="M57.25,77.4l179,.23a41.36,41.36,0,0,1,7.31.21c4.15.77,6.36,3.56,6.23,7.81-.14,4.47-2.81,6.51-7.14,6.56-2,0-3.92,0-5.87,0q-85.1,0-170.2,0c-3.16,0-6.33.28-9.5.42-3.92-.65-6.74-2.3-7.07-6.83C49.59,80.47,53.14,78.75,57.25,77.4Z"/><path class="cls-3" d="M278.21,428.56c-.89-7.15-6.23-7.1-11.52-7.1-34.25,0-68.51-.1-102.76.09a26.88,26.88,0,0,1-16.22-4.79c-7-4.7-15.27-7.49-22.85-11.39-16.53-8.51-30.11-20.63-42.11-34.69-3.66-4.3-5.61-8.83-4.83-14.66a58.31,58.31,0,0,0,0-12.46C77.46,338.23,74,335,69,336.74s-6.64-.37-7.78-4.43c-1.72-6.09-3.47-12.17-5.2-18.26l387.84,0A73.3,73.3,0,0,1,439.36,331c-1.62,4.37-2.2,9.65-9.64,5.84-3.83-2-6.55,2-7.75,5.77a8.74,8.74,0,0,0-.13,4.37c4,18-7.38,28.75-18.88,39.11-10.37,9.35-21.73,17.62-34.74,22.87-9.53,3.85-14.25,11.32-18.24,19.85l-14.25-.16c-.94-5.2-4.34-7.23-9.31-7.23q-12,0-24,0c-4.93,0-8.43,1.92-9.24,7.24Zm-71.06-80.23c0,4-.14,6.43,0,8.86.28,4.24,2.39,6.7,6.9,7,4.7.28,6.7-2.51,7.47-6.43a37.92,37.92,0,0,0,.22-7.32c0-9.87-2.4-14.68-7.57-14.11C205.49,337.25,207.31,344.19,207.15,348.33ZM114.64,352c-.15-3.32.11-6.08-.48-8.65-.91-4-2.94-7.43-7.86-7.1-4.65.3-6.06,3.79-6.3,7.63a117.2,117.2,0,0,0,0,13.9c.22,3.95,2.51,6.1,6.6,6.39s6.52-1.77,7.37-5.54A46.6,46.6,0,0,0,114.64,352Zm142.45-1.1c0-2.19.05-4.39,0-6.58-.13-4.45-2.1-7.87-6.78-8-4.93-.09-7.37,3.34-7.67,8a84.46,84.46,0,0,0,0,11.69c.34,4.43,1.82,8.2,7.38,8.07,5.91-.15,7.29-3.84,7.09-8.86C257.05,353.8,257.1,352.34,257.09,350.87Zm57.4-.18h0c0,1.71,0,3.42,0,5.13-.08,4.79,1.54,8.11,7,8.31s7.3-3.25,7.53-7.87a77.19,77.19,0,0,0-.13-13.17c-.47-3.94-3.05-6.89-7.31-6.82s-6.56,3-7,7.09C314.3,345.79,314.49,348.25,314.49,350.69Zm49.92-.13h0c0-1.95,0-3.9,0-5.85-.07-4.77-2.11-8.4-7.15-8.37s-7.23,3.58-7.37,8.3a90.13,90.13,0,0,0,.23,13.15c.48,4,2.82,6.64,7.44,6.35,4.46-.28,6.58-2.71,6.79-7C364.5,355,364.41,352.76,364.41,350.56Zm-228.88-.87c0,2.67-.32,5.4.08,8,.61,4,2.69,6.68,7.33,6.44,4.47-.23,6.58-2.7,6.93-6.89.21-2.42.18-4.86.17-7.29,0-5.84.8-13.29-7.26-13.43C134.52,336.39,135.4,343.84,135.53,349.69Zm250.86.39h0c0,2.2,0,4.4,0,6.6,0,3.87,1.39,6.75,5.55,7.34,4.34.61,6.92-1.5,8-5.68A29.43,29.43,0,0,0,399.6,341a6.8,6.8,0,0,0-7.46-4.72c-3.63.3-5.58,2.77-5.73,6.43C386.31,345.18,386.39,347.63,386.39,350.08Zm-94,.46a85.44,85.44,0,0,0-.06-8.77c-.35-3.44-3-4.88-6.05-5.46s-5.69.91-6.46,3.62c-1.89,6.59-3,13.38-.35,20.09,1.22,3.07,3.69,4.38,7,4.06s5.44-2.24,5.85-5.5A65.3,65.3,0,0,0,292.43,350.54Zm-120.61-2.19c0,4-.17,6.7,0,9.36.3,3.78,1.84,6.48,6.29,6.43s6.8-2.29,7.16-6.58a71.66,71.66,0,0,0,.1-8c-.15-5.41,1.5-12.79-6.6-13C169.91,336.34,172.08,344.14,171.82,348.35Z"/><path class="cls-4" d="M443.84,314,56,314.05c-6-20.75-6-20.75,15.2-20.75H436.77c12.3,0,12.3,0,9.41,11.57C445.42,307.93,444.62,311,443.84,314Z"/><path class="cls-4" d="M250.57,264.08H450.36c2,0,3.93-.09,5.88.05,4.44.31,7.61,2.63,7.94,7.09s-3.31,6.27-7,7.17a28.23,28.23,0,0,1-6.58.3h-401c-5.88,0-13.54.69-13.65-7.19s7.51-7.41,13.43-7.41Z"/><path class="cls-5" d="M271.6,151.73q0-43.66,0-87.34c0-2.44,0-4.9.2-7.33.32-3.78,2.15-6.76,6.1-7.14s6.33,1.82,7.54,5.59c.78,2.48.75,5.69,3.7,6.81,5.22,2,9.1.6,10.79-5.14,1.25-4.23,3.14-8.32,8.43-7.17s6.19,5.42,6.18,10.27c-.08,35.72,0,71.43-.05,107.15,0,5.17-.55,10.36-7.46,10.18-6.37-.15-7-5-7-10,0-7.58,0-15.16,0-22.75,0-4.93-1.49-9-7.37-8.72-5.49.27-6.3,4.26-6.29,8.89.07,32.29-.12,64.58.17,96.87.06,6.23-2,7.76-7.93,7.87-6.28.12-7.15-2.47-7.12-7.82C271.7,211.91,271.6,181.82,271.6,151.73Zm28.31-51.64h-.05c0-4.87.11-9.74,0-14.61-.12-4.16-2.2-7.24-6.5-7.43-4.15-.19-7.37,2.49-7.55,6.5-.44,10-.45,20,0,29.91.17,3.8,2.82,7,7.26,6.74,4.61-.32,6.77-3.47,6.87-8S299.91,104.48,299.91,100.09Z"/><path class="cls-3" d="M278.21,428.56l15,0c.87,5.52,4.17,7.66,9.64,7.51q11.59-.33,23.2,0c5.46.15,8.76-2,9.67-7.5l14.25.16c-1.12,6.4-4.76,11.72-7.51,17.4-1.84,3.8-5.52,4.47-9.35,4.47q-79.56,0-159.12,0c-2.25,0-4.46-.17-6.34-1.44-3.91-2.66-6.5-6.81-5.64-11.12.79-4,5.43-2,8.3-2q48.77-.21,97.53,0C273.42,436.08,277.56,435,278.21,428.56Z"/><path class="cls-2" d="M337.38,107c-7.43,0-11.48-6.54-7.91-12.89,1.72-3.06,4.79-1.8,7.28-1.85,8.39-.18,13,2.61,12.89,7.54S345.88,107,337.38,107Z"/><path class="cls-2" d="M337,77.56c-6.12,1.61-9.07-1.26-7.95-8.42,1.49-9.52,8.78-4.13,13.3-4.66s7.95,2.69,6.86,7.92C347.88,78.76,342.55,77.53,337,77.56Z"/><path class="cls-1" d="M335.73,428.6c-.91,5.49-4.21,7.65-9.67,7.5q-11.6-.32-23.2,0c-5.47.15-8.77-2-9.64-7.51.81-5.31,4.31-7.21,9.24-7.23q12,0,24,0C331.39,421.37,334.79,423.4,335.73,428.6Z"/><path class="cls-1" d="M207.15,348.33c.16-4.14-1.66-11.08,7-12,5.17-.57,7.59,4.24,7.57,14.11a37.92,37.92,0,0,1-.22,7.32c-.77,3.92-2.77,6.71-7.47,6.43-4.51-.26-6.62-2.72-6.9-7C207,354.76,207.15,352.3,207.15,348.33Z"/><path class="cls-1" d="M114.64,352a46.6,46.6,0,0,1-.63,6.63c-.85,3.77-3.22,5.82-7.37,5.54s-6.38-2.44-6.6-6.39a117.2,117.2,0,0,1,0-13.9c.24-3.84,1.65-7.33,6.3-7.63,4.92-.33,7,3.07,7.86,7.1C114.75,345.89,114.49,348.65,114.64,352Z"/><path class="cls-1" d="M257.09,350.87c0,1.47,0,2.93,0,4.39.2,5-1.18,8.71-7.09,8.86-5.56.13-7-3.64-7.38-8.07a84.46,84.46,0,0,1,0-11.69c.3-4.69,2.74-8.12,7.67-8,4.68.09,6.65,3.51,6.78,8C257.14,346.48,257.09,348.68,257.09,350.87Z"/><path class="cls-1" d="M314.49,350.69c0-2.44-.19-4.9,0-7.33.4-4.14,2.68-7,7-7.09s6.84,2.88,7.31,6.82a77.19,77.19,0,0,1,.13,13.17c-.23,4.62-2,8.07-7.53,7.87s-7-3.52-7-8.31c0-1.71,0-3.42,0-5.13Z"/><path class="cls-1" d="M364.41,350.56c0,2.2.09,4.4,0,6.59-.21,4.28-2.33,6.71-6.79,7-4.62.29-7-2.36-7.44-6.35a90.13,90.13,0,0,1-.23-13.15c.14-4.72,2.45-8.28,7.37-8.3s7.08,3.6,7.15,8.37c0,2,0,3.9,0,5.85Z"/><path class="cls-1" d="M135.53,349.69c-.13-5.85-1-13.3,7.25-13.16,8.06.14,7.25,7.59,7.26,13.43,0,2.43,0,4.87-.17,7.29-.35,4.19-2.46,6.66-6.93,6.89-4.64.24-6.72-2.45-7.33-6.44C135.21,355.09,135.53,352.36,135.53,349.69Z"/><path class="cls-1" d="M386.39,350.08c0-2.45-.08-4.9,0-7.34.15-3.66,2.1-6.13,5.73-6.43A6.8,6.8,0,0,1,399.6,341a29.43,29.43,0,0,1,.31,17.31c-1.1,4.18-3.68,6.29-8,5.68-4.16-.59-5.58-3.47-5.55-7.34,0-2.2,0-4.4,0-6.6Z"/><path class="cls-1" d="M292.44,350.54a67.32,67.32,0,0,1-.06,8c-.41,3.26-2.45,5.18-5.85,5.5s-5.8-1-7-4.06c-2.67-6.71-1.54-13.5.35-20.09.77-2.71,3.42-4.19,6.46-3.62s5.7,2,6.05,5.46C292.67,344.66,292.43,347.61,292.44,350.54Z"/><path class="cls-1" d="M171.82,348.35c.26-4.21-1.91-12,7-11.8,8.1.19,6.45,7.57,6.6,13a71.66,71.66,0,0,1-.1,8c-.36,4.29-2.71,6.52-7.16,6.58s-6-2.65-6.29-6.43C171.65,355.05,171.82,352.36,171.82,348.35Z"/><path class="cls-4" d="M299.91,100.09c0,4.39.07,8.77,0,13.16s-2.26,7.63-6.87,8c-4.44.3-7.09-2.94-7.26-6.74-.44-10-.43-20,0-29.91.18-4,3.4-6.69,7.55-6.5,4.3.19,6.38,3.27,6.5,7.43.15,4.87,0,9.74,0,14.61Z"/></svg>