<svg id="Layer_1" data-name="Layer 1" xmlns="http://www.w3.org/2000/svg" viewBox="0 0 500 500"><defs><style>.cls-1{fill:#f97634;}.cls-2{fill:#f8722b;}.cls-3{fill:#8d3f20;}.cls-4{fill:#9c4b2e;}.cls-5{fill:#fc916c;}.cls-6{fill:#f8742d;}.cls-7{fill:#ce7d66;}.cls-8{fill:#b25a3b;}.cls-9{fill:#f98150;}.cls-10{fill:#905e56;}.cls-11{fill:#f67224;}.cls-12{fill:#f77127;}.cls-13{fill:#0c3eaa;}.cls-14{fill:#1e2d63;}.cls-15{fill:#3f4d8c;}</style></defs><path class="cls-1" d="M425.34,189.65c2.94,2.19,5,5.24,7.17,8a134.17,134.17,0,0,1,13.1,20,154.72,154.72,0,0,1,16,45.81,108.62,108.62,0,0,1,1.82,14.83c.3,5.85.78,11.68.53,17.56a171.88,171.88,0,0,1-3.62,29.21,152.73,152.73,0,0,1-9,28.18,159.65,159.65,0,0,1-18,31.52c-.39.53-.67,1.19-1.35,1.47-1.11-1.4-.18-4.79,1.68-5.13,1.63-.28,2-1.18,2.37-2.4a2.83,2.83,0,0,1,1.16-1.83c.41-.23,1.31-.14.8-1-.32-.54-.31-1.41-1.17-1.51s-1,.55-1.27,1.1a38.8,38.8,0,0,1-1.92,3.74c-1.58,2.69-4.36,4.13-6.22,6.49a1.64,1.64,0,0,1-1.72.32c-1.58-.39-3.15-.46-4.69-1.46s-2.49-2.21-3.93-2.88a2.62,2.62,0,0,1-1.84-2.91,2,2,0,0,0-1.91-2.39c-1.81-.13-1.91-1.13-1.5-2.51a27,27,0,0,0,.37-12,78.37,78.37,0,0,1-1-12c0-1,0-1.87,1.4-1.94,1.18-.05,1.36-.92,1.48-2,.36-3.33-1.29-6.46-.9-9.78a1.06,1.06,0,0,0-.4-.88c-2-1-1.54-2.77-1.57-4.41,0-.66.17-1.41-.33-1.95-1.09-1.18-1.11-2,.27-3.14,1.12-.9,0-2.26-.55-2.82-.83-.8-1.06.53-1.35,1-.86,1.52-1.6,3.1-2.43,4.65-1.44,2.7-3.48,5.06-4.52,8-1.27.56-1.21,2.25-2.43,2.84a2,2,0,0,0-1.22,1.62c-4,3.81-7.49,8.15-11.79,11.72a70,70,0,0,1-16.34,10.52c-1.17.51-2.24,2-3.88,1.26.13-1,1.09-.87,1.68-1.23.74-.45,1.72-.72,1.87-1.7a2.63,2.63,0,0,1,1.46-1.82c3-1.84,6.23-3.38,8.77-5.92,1.48-1.47,3-2.87,4.42-4.43.74-.84.4-1.47-.82-1.52-.81,0-1.54.58-2.37.21-3.31-1.48-6.91-1.64-10.39-2.33a8,8,0,0,0-4,.13,2.31,2.31,0,0,1-3.09-2.44l3.18-3.24a8.81,8.81,0,0,0,1.55-.4A175.75,175.75,0,0,0,388.28,329a3.64,3.64,0,0,1,1.42-.73c2.39-.25,4.2-2,6.52-2.45a5.29,5.29,0,0,1,2.9-.17c2,.64,4.06,1.19,6-.34.62.6,1,.08,1.29-.35a38.78,38.78,0,0,0,2.8-5.1c.55-1.33.64-2.94,2-3.87l.13.08-.13-.08c.09-.69-.09-1.34.52-2,1.84-2.05,2.19-4.66,2.35-7.29,0-.27,0-.54,0-.82.9-.1,1.2-.79,1.43-1.5a60.92,60.92,0,0,0,2.57-14.3c.88-.14,1-.93,1.06-1.54a23.52,23.52,0,0,0,.5-4.78c-.27-5.06.58-10.12-.62-15.2a32,32,0,0,1-1.08-7.33,27,27,0,0,0-1.21-6.09c-.15-.6-.21-1.4-1.08-1.55-.29-.93.64-2.22-.82-2.82l0-1.14c0-1.37-.18-2.63-1.58-3.32-.37-.49-.14-1-.06-1.52-.2-1.05-.37-2.11-1.57-2.53-.17-.8-.35-1.59-.53-2.38.66-2.77-.34-5.12-1.93-7.27-.41-.56-1-.91-.41-1.67.88-1.08.83-2.37.83-3.66,0-8.63,0-17.27,0-25.91,0-2.64,1.62-4.55,3.64-6a4,4,0,0,0,1.58-1.7,2.23,2.23,0,0,1,1.76-1.49,1.67,1.67,0,0,0,1.59-1.68,1.87,1.87,0,0,1,3.3-1.1c.8.77,1.81.8,2.66,1.28C425.59,191.52,425.26,190.4,425.34,189.65Z"/><path class="cls-2" d="M139.33,347.65c-2.22,2.71-5,4.82-7.56,7.19-4.69,4.4-9.5,8.68-14.26,13a2,2,0,0,0-1.32.37c-3.19,2.57-5.74,5.85-9.16,8.17-.32.22-.37.83-.54,1.26h.05c-3.1.95-5.43,3.22-8.18,4.76-.6-.75-.34-1.47.32-2.19-.88-.2-1.28.08-1.48.65s-.82,1-1.22.66c-1.42-1.33-3.39-1.56-4.87-2.59-3.19-2.23-4.29-6.19-7-8.92-.89-.9-1.37-2.28-2.4-3.19a2,2,0,0,1-.79-1.57c0-3.38,0-6.75,0-10.12a1.82,1.82,0,0,1,.35-1.12c.88-.86.78-1.92.86-3a47.74,47.74,0,0,0-1.4-13.67c-.42-1.89-.72-3.69-2.3-4.93-1.09-.87-1.79-3-3.37-2.32-1.41.62-.48,2.58-.63,3.93-.21,2,.66,4.26-.38,6-2,3.2-1.76,6.84-1.86,10.13-.15,5.07-1.13,10.06-1,15.13a1.61,1.61,0,0,1-.21,1c-1.94,2.52-1.26,6.93-5.59,7.72-.16,0-.29.27-.44.4a3.48,3.48,0,0,1-4.71-.05,2.47,2.47,0,0,0-2-.74l-.85-.4,0,0c.41-1.62-1.16-2.88-.79-4.49.46-.65.83-1.52,1.87-.78.59.43.9,0,1.36-.32A3.71,3.71,0,0,0,61.51,364c-.1-.77-.19-1.69.79-2.08,1.18-.49,1.18-1.49,1.22-2.52.15-4.37-.7-8.7-.42-13.08a3.71,3.71,0,0,0-.74-2c-.71-1.25-1.54-2.56.52-3.42a.74.74,0,0,0,.51-1c-.51-1.1.31-2.1.13-3.16a43.6,43.6,0,0,1,9.16-9.82c3.94-3,7.39-6.6,11.47-9.45a3.25,3.25,0,0,0,1.66-2.2c2.31-.53,3.7-2.16,4.87-4.05.85,0,1.51-.23,1.62-1.21,6.12-3.89,11.24-9,16.87-13.54,5.41-4.34,10.81-8.71,15.9-13.44.6-.56,1.35-.83,1.25-1.8h1.22c-.23.8-.47,1.58.75,1.83a1,1,0,0,1,.84,1c.19,3.46,2.38,6.6,1.67,10.22-.07.37.18.78.2,1.18.1,2.66.52,5.26-.4,7.95-.53,1.59-.93,3.65.62,5.13a3.23,3.23,0,0,1,.94,3.63c-.45,1.51,0,2.77,1.73,3,1.32.18,1.53.92,1.78,2a24.43,24.43,0,0,1,.64,6.71c-.17,4.05-.25,8.08-3,11.42a1.7,1.7,0,0,0-.43,1.09c.23,3-1,6-.1,9,.34,1.19.38,2.52,1.71,2.92,1,.32,2.3,1.24,3.27-.37.19-.31,1-.25,1.51-.36Z"/><path class="cls-2" d="M288,61.64c9-.27,16,3.39,21.46,10.45-.53-.06-1.07-.09-1.59-.19-.75-.14-1.41,0-1.54.83-.17,1,.67,1,1.33,1s1.92-.26,1.3,1.26a.72.72,0,0,0,.42.31c1.65,0,1.74,1.09,1.73,2.31,0,.66.4,1,1,1s1.46,0,2.2,0h0a2.31,2.31,0,0,0,.86,2.14c.29.28.9.78.07,1-1.24.39-1,1.35-.92,2.15.29,2.82-.05,5.63,0,8.45,0,.9,0,1.87-.82,2.37-1.62,1-1.75,2.44-1.6,4a30.19,30.19,0,0,1,.37,3.4c-.14,7,.42,14-1,20.93-.63,3-1.2,6.67,2.48,8.83.72.43.84,1.1-.25,1.38a14.59,14.59,0,0,1-2.48-2.61q-7.08-7.17-14-14.48c-6.2-6.55-12.57-13-18.89-19.38a47.8,47.8,0,0,1-9.42-12.68c0-.48,0-1,0-1.44.1-3.4.19-6.81.29-10.21.73-.83,1.9-1.42,1.6-2.83,2.6-1.55,4.42-4.17,7.34-5.31.69-.27,1.66-.22,2-1.14h0c2,0,3.93-.7,5.91-1C286.56,62.09,287.51,62.68,288,61.64Z"/><path class="cls-1" d="M142.94,137.78c5.21-1.73,10.51-2.85,16.06-2.13,1.6.21,3.22.22,4.84.33,4.57.3,9.14.64,13.71.9,11.44.67,22.87,1.54,34.3,2.29,5.32.35,10.63.72,16,1,10.83.66,21.65,1.51,32.48,2.23,4,.27,7.94.41,11.9.75,6.24.53,12.51.77,18.78,1.09a13.87,13.87,0,0,0,2.2-.21c.32.41.79.39,1.25.51,2.11.55,4.28.25,6.4.49,4.19.48,8.4.72,12.59,1.05,3.54.29,7.1.45,10.66.58.14.16.27.14.38,0l1.19-.09c.44.85.39,1-.74,1-5-.07-10-.62-15-1a35.1,35.1,0,0,1-5-.08c-5.19-.81-10.44-.6-15.64-1.13a8.22,8.22,0,0,1-2.78.4c-1.45-.17-2.73-1-4.3-.86a14.63,14.63,0,0,1-5.43-.25.93.93,0,0,0-1.22.43c-.39.78-1.09.68-1.76.68-3.17,0-6.34,0-9.52,0-.67,0-1.78.25-1.6-.91s1-.39,1.52-.16c.76.31,1.19-.17,1.36-.78.12-.41-.3-.46-.67-.47-2.33-.07-4.67-.27-7-.23a76.66,76.66,0,0,1-13.19-1,1.59,1.59,0,0,0-1.73.67c-.58.75-1.76.78-2.06,0-.58-1.45-1.62-1.15-2.65-1.19-1.55-.05-3.11,0-4.65-.16-1.36-.13-2.77-.84-3.81.74a1,1,0,0,1-.93.1c-2.4-1.52-5.1-1.39-7.76-1.64-5.2-.48-10.42-.54-15.61-1.34a50.57,50.57,0,0,0-7.2-.15c-3.14,0-6.23-.71-9.41-.49-1.55.11-3.25-.82-1.88,1.92.41.83-.24,1.48-1,1.69s-1.12-.42-1.25-1.18a3.68,3.68,0,0,0-4.39-2.72c-.34.08-.78.14-.67.57.36,1.44-1,1.89-1.67,2.18-2.58,1.08-3.24,3.09-3.28,5.56a8.75,8.75,0,0,1-.14,1c-.2,1.28-.78,2.11-2.26,2a2.45,2.45,0,0,0-2.76,1.6,8.25,8.25,0,0,1-5.68,5.54c-1.15.37-1.43,1.23-.68,2s.68,1.76,1.2,2.49c1.11,1.56,0,4.4,2.89,5,.55.1.42.91,0,1.38s-1.41.9-1.49.38c-.31-2-2.83-2.14-3.11-4.14-.15-1.08-1.26-1.56-2.34-1.59a1.4,1.4,0,0,0-1.5,1.36c-.05,2.49-2,3.8-3.52,5-1.71,1.37-2.35,3.83-4.7,4.47-.16.05-.31.45-.33.7-.08,1.33-1,1.83-2.08,2.12-.4.1-1.06.38-1,.61,1,2.06-1,3.15-1.46,4.71-1.34,0-2.89-.35-3.25,1.64a21.76,21.76,0,0,1-13.09-7.62,19.1,19.1,0,0,1-4.79-12.67c.07-2.62-.08-5.25.87-7.77,1.06-1.27.56-3.13,1.63-4.4.13,0,.32,0,.37-.13,2.18-4.27,6-6.87,9.68-9.69C138.91,139.51,141.21,139.17,142.94,137.78Zm126.36,6.85a7.94,7.94,0,0,0,5,0A8.15,8.15,0,0,0,269.3,144.63Zm-93.52-6.46c-1.23-.7-2.27-.26-3.17-.59-.32-.12-.69-.15-.75.32s.29.59.63.59A6.88,6.88,0,0,0,175.78,138.17Zm-.89,1.56a2.8,2.8,0,0,0,3,0A3.56,3.56,0,0,0,174.89,139.73Zm-3.54,0a3.78,3.78,0,0,0-3.53.33C169.38,140.14,170.37,140.33,171.35,139.68Zm-5.78-2.3a3.32,3.32,0,0,0,3.12-.2C167.28,136.89,166.43,136.78,165.57,137.38Z"/><path class="cls-3" d="M325.63,146.59l-1.19.09a.7.7,0,0,0-.38,0c-3.56-.13-7.12-.29-10.66-.58-4.19-.33-8.4-.57-12.59-1.05-2.12-.24-4.29.06-6.4-.49-.46-.12-.93-.1-1.25-.51l-10.84-11.24-.34-.39-.05-.05c-.22-1.58-3.53-5-5.8-5.92h0c-1.09-1.71-1.82-3.77-4.18-4.22l-.11-.12c-.06-.93-.18-1.79-1.47-1.5-.1,0-.16,0-.17-.14,1.19-2-.53-1.23-1.3-1.38h0c0-.61.06-1.36-1-.91l-.11-.14c.1-.29,0-.39-.29-.29l-.13-.12c.4-1.39-.5-1.53-1.51-1.55l-.11-.1c.55-1.82-1-1.53-1.9-1.93l-.06,0c.06-.3,0-.41-.33-.3l-.12-.12c.1-.29,0-.39-.29-.29-.09,0-.14,0-.14-.12a2.62,2.62,0,0,0-2.67-2.85h0a.42.42,0,0,0-.44-.43l0,0a.42.42,0,0,0-.43-.44l0,0a.39.39,0,0,0-.43-.41h0c.28-1-.12-1.44-1.17-1.21v0c-.13-.15-.27-.29-.41-.44v0c.2-1-.2-1.41-1.21-1.21h0l-.42-.43h0c-.16-1.74-2.71-4.28-4.44-4.44h0c-.23-3-.23-3-3.19-3.31l-2.05-3.45c-.21-2,.44-3.3,2.49-3.85,5-1.35,10-2.64,14.89-4.21,1.76-.56,3.92-.57,5.13-2.41a47.8,47.8,0,0,0,9.42,12.68c6.32,6.43,12.69,12.83,18.89,19.38q6.93,7.32,14,14.48a14.59,14.59,0,0,0,2.48,2.61c2.5,3.17,5.47,5.89,8.23,8.81C323.06,143.54,324.86,144.62,325.63,146.59Z"/><path class="cls-2" d="M425.34,189.65c-.08.75.25,1.87-1.25,1-.85-.48-1.86-.51-2.66-1.28a1.87,1.87,0,0,0-3.3,1.1,1.67,1.67,0,0,1-1.59,1.68,2.23,2.23,0,0,0-1.76,1.49,4,4,0,0,1-1.58,1.7c-2,1.43-3.62,3.34-3.64,6-.06,8.64,0,17.28,0,25.91,0,1.29,0,2.58-.83,3.66-.62.76,0,1.11.41,1.67,1.59,2.15,2.59,4.5,1.93,7.27-1.4-2.51-2.88-5-4.2-7.52-2.43-4.72-5.76-8.81-9.05-12.91a103.12,103.12,0,0,0-11-11.19c.84-.06,1.64-.24,1-1.3a4.64,4.64,0,0,1-.47-2.74q0-14.27,0-28.55a5.51,5.51,0,0,0-.15-2c-1.48-3.54-1.53-7.48-3.42-11-.88-1.62-1.31-3.27-3.26-3.9-.65-.22-.73-.86-.92-1.45-.75-2.36-.88-5-3.05-6.72-.92-.73-2.34-1.25-2.38-2.6-.05-1.6-.91-2.78-1.61-4a5.81,5.81,0,0,1-1-3.41,1.3,1.3,0,0,0-.72-1.29,9.83,9.83,0,0,1-4.53-8.87,7,7,0,0,1,3.08,2.81,20.12,20.12,0,0,0,3.9,3.92c1.41,1.27,3.5,2.22,3.56,4.61-.85.25-1.13.9-.43,1.38s1.63.63,2-.55a15.13,15.13,0,0,1,4.91,5.06,2.26,2.26,0,0,0,2.39,1.41h0c0,.74,1.15,1.18.66,2-1.57,2.58.5,2,1.76,2.07-.1,1.4,0,2.67,1.44,3.48.5.29.79.36,1.2-.06s.35-.78,0-1.21c-.76-.85-1.47-1.74-2.2-2.62l.39-.39a34.49,34.49,0,0,1,4.88,4.86,10.56,10.56,0,0,0,3.5,4.51c3.54,2.51,5.91,6.11,9,9s6.31,6.39,9.45,9.6a116.92,116.92,0,0,0,9.07,8.88ZM380,145.83l-.36-.58-.21.22.57.36.36.58.22-.22Z"/><path class="cls-4" d="M203.24,379.66A136.92,136.92,0,0,1,181.81,336a56.93,56.93,0,0,1-2-8.21c.19-1.55-.27-3.16.5-5.36.53,2.17,1.38,2.72,2.76,1.49.16-.14.52-.09.77-.07,4.83.46,9.67.05,14.5.22,1.29,0,1.8-.39,1.78-1.72,0-2.4-1.24-4.63-1-7.07,0-.2-.35-.44-.38-.68-.23-2-1.06-4.11.53-6,.24.84-.47,2,.78,2.51v1.58c-.55.66-.33,1.4-.25,2.13a134.33,134.33,0,0,0,2.29,14.49c1,4.24,1.73,8.52,3.67,12.47l.06.07a12,12,0,0,0,2.33,6.55l.15,1.18a1.24,1.24,0,0,0,.69,1.55,150.34,150.34,0,0,0,9.56,19.7,155.19,155.19,0,0,0,15.68,22.17c1.35,1.54,3.11,2.79,3.94,4.77-4.13.38-8.19-.67-12.3-.61-1.46,0-3.11-1.11-4.33.62l-.14-.07.13.08c-.32,1.22,1.37,1.72,1.06,2.95-4-2.88-7.17-6.56-10.4-10.19a2.16,2.16,0,0,0-.7-2c-2.43-2.22-4.16-5-6.26-7.52-.44-.53-.81-1.09-1.62-1h0Z"/><path class="cls-5" d="M86.58,296.83c4-3.39,8.06-6.81,12.13-10.18,6.3-5.22,12.59-10.48,19-15.58,2.56-2,4.83-4.45,7.68-6.13a1,1,0,0,0,.94-.43l0,0c.59,0,1-.41,1.41-.72q6.78-4.71,13.6-9.37c6.49-4.42,13-8.8,19.49-13.22q10.59-7.18,21.16-14.39,12.49-8.49,25-17c-.07.84.24,1.75-.49,2.48a26,26,0,0,0-3.15,4.36c-1.25,1-2.58,2-3.74,3.18-2.89,2.83-6.3,5-9.23,7.78a.8.8,0,0,0-.83.77l0,0c-2.36,1-4.62,2.24-5.65,4.84l0,0a2.75,2.75,0,0,0-2.13.93c-1.3,1.05-2.51,2.21-3.78,3.29-2.11,1.78-4.76,3-6.2,5.52a.86.86,0,0,1-.81.83,77.24,77.24,0,0,0-7.33,5.53c-2.61,2.48-5.5,4.6-8.16,7-4.4,4-9.14,7.54-13.74,11.28-2.58,2.1-5.15,4.22-7.74,6.3-1,.82-1.92,1.76-3,2.55-1.71,1.24-3.68,2.48-4.6,4.61h0a2.34,2.34,0,0,0-1.88.53,108.94,108.94,0,0,1-9.75,8.47c-4.15,3.37-8.43,6.59-12.42,10.15-1.61,1.44-3.55,2.4-5,4.17a15.09,15.09,0,0,1-5,4.23,2.16,2.16,0,0,0-1.62,1.61h0a.81.81,0,0,0-.82.79,7,7,0,0,1-2.41,1.65c-1.74-.14-2.54.68-2.45,2.4l-1.6,0a.84.84,0,0,1-.72-1.18,12,12,0,0,1,1.18-3.59c1-1.48.52-2.81,0-4.15a4.83,4.83,0,0,1,1.27-5.44,6.88,6.88,0,0,0,2-2.48c.22-.57.13-.89-.52-1l0,0Z"/><path class="cls-2" d="M177,313.18c-10.11,9.32-20.19,18.67-30.35,27.93-2.41,2.2-4.58,4.69-7.31,6.54l-.09-.1a3.26,3.26,0,0,1,2.25-3.05,5.73,5.73,0,0,0,2.25-1.93,21.13,21.13,0,0,1,3.66-3.6c1.19-1,2.63-1.91,3.08-3.59.13-.49.36-.56.87-.44,1.34.29,1.78-.17,1.07-1.46a1,1,0,0,1,.2-1.3.59.59,0,0,1,.9,0c1,1.2,1.46.18,1.91-.52.56-.85.94-2.45,1.54-2.53,2.37-.29,3.15-2.81,5.27-3.35.5-.13.69-.79.29-1.36-.58-.15-.78.46-1.21.59-.26.08-.51.23-.73,0a.51.51,0,0,1,0-.73c1.15-1.22,0-1.65-1.3-2.3,2-.24,1.84-1.35,1.84-2.45,0-7.75,0-15.51,0-23.26,0-2.67-.06-5.26-2.09-7.34a1.83,1.83,0,0,1-.33-1.33c.33-2.65-.11-4.81-3.2-5.42a.38.38,0,0,1-.17-.12c-2.88-3.31-7.74-4.13-10.15-8-.3-.49-1-.39-1.45-.58-1.85-.75-3.91.13-5.72-.77,2-2.22,4.88-3.43,6.88-5.68.55,2,2.17,1.1,3.35,1.14.72,0,1.82-.12,1.85-1.15,0-1.29.75-2.91-1.14-3.63.78-1.15,2.06-1.51,3.24-2,1.14.12,1.75,1.37,3.09,1.26,1.91-.14,3.67.69,5.42,1.39,2.52,1,3.9,3.63,6,4.82,2.42,1.39,3.15,3.49,3.78,5.46,1.18,3.67,3.64,6.34,5.67,9.41s6.36,4.95,5.86,9.62c0,.33.47.68.55,1.05.33,1.65,2.29,2.48,2.07,4.41a4.12,4.12,0,0,0,2.39,4.3c-2.34,2.87-5.42,5-7.95,7.64C178.37,311.45,177,311.79,177,313.18Z"/><path class="cls-6" d="M402.25,336.66c1-2.93,3.08-5.29,4.52-8,.83-1.55,1.57-3.13,2.43-4.65.29-.52.52-1.85,1.35-1,.58.56,1.67,1.92.55,2.82-1.38,1.11-1.36,2-.27,3.14.5.54.31,1.29.33,1.95,0,1.64-.4,3.43,1.57,4.41a1.06,1.06,0,0,1,.4.88c-.39,3.32,1.26,6.45.9,9.78-.12,1.07-.3,1.94-1.48,2-1.38.07-1.4.92-1.4,1.94a78.37,78.37,0,0,0,1,12,27,27,0,0,1-.37,12c-.41,1.38-.31,2.38,1.5,2.51a2,2,0,0,1,1.91,2.39,2.62,2.62,0,0,0,1.84,2.91c1.44.67,2.53,2,3.93,2.88s3.11,1.07,4.69,1.46a1.64,1.64,0,0,0,1.72-.32c1.86-2.36,4.64-3.8,6.22-6.49a38.8,38.8,0,0,0,1.92-3.74c.24-.55.49-1.19,1.27-1.1s.85,1,1.17,1.51c.51.83-.39.74-.8,1a2.83,2.83,0,0,0-1.16,1.83c-.39,1.22-.74,2.12-2.37,2.4-1.86.34-2.79,3.73-1.68,5.13a.27.27,0,0,1-.21.25.71.71,0,0,0-.7.74l0,.08a10.91,10.91,0,0,0-4.48,0c-.53.14-1.1.14-1.07.87s.49.72,1,.75,1.23,0,1.35.83c-1.33-.14-2.53-.06-2.82,1.61a2.72,2.72,0,0,0,.43,1.64h0a.75.75,0,0,0-.81.82c-.71.37-.64,1.47-1.55,1.66l-.49-.47c.81-1.2-.08-1.41-.91-1.36-.4,0-.44,1-1.12,1-.38-1-1-1.1-1.52-.2-.31.51-.29.88-1.1.48-2.76-1.39-6-2.07-7.45-5.3-.76-1.67-2.69-2.44-3.29-4.26-.69-2.09-.87-4.39-3.22-5.68a2.71,2.71,0,0,1-1-3.24,9.83,9.83,0,0,0,.21-2.81c.22-5.76-.48-11.51-.05-17.29.41-5.43-.31-10.89.34-16.33A3.65,3.65,0,0,0,402.25,336.66Z"/><path class="cls-7" d="M206.94,209.87q-12.49,8.48-25,17-10.59,7.18-21.16,14.39c-6.49,4.42-13,8.8-19.49,13.22q-6.83,4.65-13.6,9.37c-.45.31-.82.71-1.41.72.72-1.91,2.59-2.67,4-3.82,14.39-11.89,28.87-23.69,43.3-35.53Q191,210.87,208.4,196.53c.42-.33.9-.58,1.35-.87.63.53.74.06.83-.44v0c1.42.93,2.81,2.24,4.44.34.11-.12.2-.48.38-.14,1,1.76,2.18.39,3.18.15,1.24-.31,2.3-1,3.65-.12a3.42,3.42,0,0,0,3.23-.19c1.2-.68,2.05-1.59,3.36-.41,0,.13,0,.25,0,.38-4.82,2.53-9.07,5.93-13.55,9Q211.08,207,206.94,209.87Z"/><path class="cls-8" d="M41.6,337.83l.38-.61a4.47,4.47,0,0,1-.18,1.17c-1,2.38-.8,2.68,1.84,2.74,1.33,0,2.86-.51,4,.27,2.13,1.53,4.59,1.29,6.92,1.72,1.32.24,2.94,1,3.23-1.4,0-.25.78-.41,1.2-.61,0,.14.05.29.08.44a1.59,1.59,0,0,0,0,.38,30.86,30.86,0,0,0-4,12.12c-1.59.65-.09,2.44-1.21,3.27a2.07,2.07,0,0,0-.37,1.73c.29,3.74-.27,7.4,1.33,11.23a29.38,29.38,0,0,0,5.53,9.14c.63.67,1.54,1.16,1.63,2.23-2.67.29-5-1-7.56-1.47-3.33-.65-6.18-2.75-9.56-3.31h.06l-.48-.41,0,.05a.42.42,0,0,0-.46-.41l0,0c-.11-1.17-.55-2-1.93-1.76h0c0-.39-.13-.71-.57-.8-3.93-4.4-5.28-9.74-5.45-15.45a34.8,34.8,0,0,1,5.28-19.8Z"/><path class="cls-9" d="M86.62,297.38c.65.08.74.4.52,1a6.88,6.88,0,0,1-2,2.48,4.83,4.83,0,0,0-1.27,5.44c.47,1.34,1,2.67,0,4.15A12,12,0,0,0,82.65,314a.84.84,0,0,0,.72,1.18c.39,2-1.56,2.28-2.54,3.17a81,81,0,0,1-8.75,7.21A27.2,27.2,0,0,0,64,333.49a73.26,73.26,0,0,1-4.55,6.35,2.28,2.28,0,0,0-2.16-1.55,28.38,28.38,0,0,1-10.14-2,1.69,1.69,0,0,0-1.68.38c-1.08.83-1.71.49-1.79-.86,0-.47,0-.94-.06-1.41,3.1-4.9,7.32-8.78,11.76-12.34C62,316.78,68.6,311.33,75.23,306l9.1-7.34C85.57,299.09,86.23,298.48,86.62,297.38Z"/><path class="cls-8" d="M177,313.18c0-1.39,1.38-1.73,2.13-2.52,2.53-2.67,5.61-4.77,7.95-7.64,3.18-2.51,6-5.4,9-8.19a2.21,2.21,0,0,0,.37.08,5.46,5.46,0,0,1,1.37,1.82c.36.82.45,2,1.54,2.34l0,.64a1.2,1.2,0,0,0,0,1.78v7.17c-1.59,1.87-.76,3.95-.53,6,0,.24.41.48.38.68-.28,2.44.92,4.67,1,7.07,0,1.33-.49,1.76-1.78,1.72-4.83-.17-9.67.24-14.5-.22-.25,0-.61-.07-.77.07-1.38,1.23-2.23.68-2.76-1.49-.77,2.2-.31,3.81-.5,5.36a68.25,68.25,0,0,1-2-11.62C177.66,315.18,177.84,314,177,313.18Z"/><path class="cls-4" d="M124.64,162.84a19.1,19.1,0,0,0,4.79,12.67,21.76,21.76,0,0,0,13.09,7.62l1.08,0a1.64,1.64,0,0,0,1.79.68l1.19.08.8,0a70.86,70.86,0,0,0,11.36.74l6.86.38c2.3.06,4.59.07,6.88.17,10.41.47,20.83,1,31.24,1.43,6.25.25,12.51.23,18.75.66,2.1.14,4.3-.14,6.36.62-3.29,0-6.57-.06-9.85,0-3.69.09-7.35.3-11-.51a3,3,0,0,0-2.66.51c-7.27-1.35-14.68-.37-22-1.47-6.46-1-13.06,0-19.64-.74-7.25-.76-14.64-.18-21.94-1.06-.46-1.44-2.34-.33-2.89-1.6l-3.6-.83.37-.66c-1.56-.14-2.38-2.17-4.62-1.1s-5,.91-7.47,1.38c-2.74.53-5.62.52-8.12,2h0c-.5-1.1-1-.31-1.55,0l-.27.22c-4.31-2.95-7.53-6.7-8.7-11.95-.27-1.87.3-2.84,2.4-3.19,4.73-.81,9.39-2,14.11-2.89,1.93-.36,2.87-1.15,2.56-3.2a23.89,23.89,0,0,1,0-3.1C124.56,161,123.92,162.06,124.64,162.84Z"/><path class="cls-10" d="M141.72,184.71c7.3.88,14.69.3,21.94,1.06,6.58.69,13.18-.22,19.64.74,7.33,1.1,14.74.12,22,1.47a1.38,1.38,0,0,0,.95,1.19c1.45.31,3.28-.07,3.31,2.3,0,.13.42.26.64.39l-28.47-1.13c-17.37-.68-34.74-1.33-52.11-2.1-2.59-.11-5.26-.06-7.75-1.09,1.73-.13,3.47-.15,5.18-.42C132,186.37,136.84,185.52,141.72,184.71Z"/><path class="cls-3" d="M221.54,397.84c1.22-1.73,2.87-.6,4.33-.62,4.11-.06,8.17,1,12.3.61a4.17,4.17,0,0,1,.81.56,141.17,141.17,0,0,0,14.36,13c5.34,4.41,11.38,7.81,17.17,11.58,1.46.95,3.25,1.28,4.6,2.45-.58.6-1.2.19-1.67-.06a90.93,90.93,0,0,1-9.09-5.09c-1.58-1.08-3.13-2.29-5.14-2.52-1-1.08-2.44-1.57-3.22-2.85-.1-.72-.64-.81-1.23-.82h0a4.8,4.8,0,0,0-3.53-1.62,33,33,0,0,1-5.16-.69c-4.33-1-8.73-1.77-13.1-2.6l-.06-.05-.46-.3a38.91,38.91,0,0,1-8.09-6.48l-.46-.37,0,0-.45-.4v0l-.42-.42h0l-.47-.37h0c.31-1.22-1.38-1.72-1.06-2.94Z"/><path class="cls-10" d="M259.21,417.71c2,.23,3.56,1.44,5.14,2.52a90.93,90.93,0,0,0,9.09,5.09c.47.25,1.09.66,1.66.06a.43.43,0,0,1,.25.05,2.13,2.13,0,0,0,1.3,1.46,54.51,54.51,0,0,0,7.48,3.21c2.45.71,4.74,2.3,7.5,1.79h0c0,1.09,1.5.5,1.59,1.46-15.72-3.66-31.53-7.06-45.87-15A100.67,100.67,0,0,1,233,409.13c4.37.83,8.77,1.56,13.1,2.6a33,33,0,0,0,5.16.69,4.8,4.8,0,0,1,3.53,1.62l-2.74.43c-.34,0-.68.1-.77.5a.65.65,0,0,0,.47.77C254.25,416.32,256.59,417.54,259.21,417.71Z"/><path class="cls-8" d="M268.92,72.49c-.1,3.4-.19,6.81-.29,10.21-.15-.37-.31-.94-.77-.75A75.45,75.45,0,0,1,259,84.47c-3.43.87-6.8,2-10.13,3.2-1.56.57-3.88.14-4.27,2.66A13.42,13.42,0,0,1,246,79.43a93.62,93.62,0,0,0,9.65-2.87c2.33-.75,4.64-1.59,7.05-2.19,1.48-.37,3.42,0,4.42-1.35C267.76,72.16,268.25,72.42,268.92,72.49Z"/><path class="cls-8" d="M124.64,162.84c-.72-.78-.08-1.84-.74-3.07a23.89,23.89,0,0,0,0,3.1c.31,2-.63,2.84-2.56,3.2-4.72.89-9.38,2.08-14.11,2.89-2.1.35-2.67,1.32-2.4,3.19-.8-4.69-1-9.33,1.27-13.75l.29-.46h0c1.3.42,2.29-.57,3.47-.76,3-.49,6.07-1.12,9.12-1.5,2.16-.27,4.22-1.64,6.5-.6C124.56,157.59,124.71,160.22,124.64,162.84Z"/><path class="cls-5" d="M142.94,137.78c-1.73,1.39-4,1.73-5.75,3.07-3.63,2.82-7.5,5.42-9.68,9.69-.05.08-.24.09-.37.13a33.32,33.32,0,0,0-8.7,2.05,2.43,2.43,0,0,1-1.91.28c-.93-.39-1.65.05-2.47.34-1.79.62-3.56,1.44-5.55.95a7.66,7.66,0,0,1,2.2-3.08,30.33,30.33,0,0,1,12.84-8.47c4.1-1.4,8.37-2.3,12.57-3.37C138.38,138.79,140.56,137.85,142.94,137.78Z"/><path class="cls-1" d="M376.73,141.77c-.06-2.39-2.15-3.34-3.56-4.61a20.12,20.12,0,0,1-3.9-3.92,7,7,0,0,0-3.08-2.81l-.82-.8c-1.12-.24-1.41-1.28-2-2l-.41-.41-.41-.8a3.21,3.21,0,0,1-2.68-2.17c-.5-1-.88-1.21-1.76-.57a1,1,0,0,1-1.31.06.81.81,0,0,1-.17-1.1c1.3-1.94,0-1.88-1.38-1.93-1.1,0-2.22-.56-1.7-1.78.62-1.47-.31-1.73-1.13-2.24l-.36-.58-.22.22.58.36c-.36,1.15-1.26.9-2,.63s-.46-.91-.23-1.41c.95-2-.05-2-1.61-1.72-1.24.25-2-.29-1.8-1.66.32-2.25.23-2.35-2-1.69-.49.15-1,.21-1.17-.38s-.26-1.19.27-1.21c2.25-.07.4-1,.25-1.31-.55-1.21-1.34-.52-2.15-.23-.51.17-1.13.6-1.72.13s-.27-.93-.05-1.3c.94-1.56.13-2.54-1-3.49a5.71,5.71,0,0,1-1.31-1.51c-.47-.86-.89-1.33-1.83-.56-.57.47-1.11.25-1.6-.24s-.9-1-.38-1.75c.24-.33.65-.82.27-1-1.83-1-2.57-3.25-4.6-4a2.18,2.18,0,0,1-1.65-2.42l.82,0c4.23,3.73,8,7.89,12,11.88,7.73,7.77,15.36,15.63,23.06,23.43,6.86,7,13.76,13.86,20.63,20.8.41.41,1,.74,1,1.44a2.26,2.26,0,0,1-2.39-1.41,15.13,15.13,0,0,0-4.91-5.06Z"/><path class="cls-8" d="M293.23,433.35c-.09-1-1.62-.37-1.59-1.46a19.88,19.88,0,0,1,6.39,1.54c5,2,10.3,2.4,15.48,3.18a115.42,115.42,0,0,0,21.76.92,10.12,10.12,0,0,0,2.21-.11c4.1-1.11,8.35-.58,12.51-1.37,3.15-.6,6.35-1.18,9.37-2.05,3.93-1.13,8-1.76,11.78-3.58,3-1.45,6.32-2.35,9.4-3.74s6.21-3.35,9.54-4.54a1.83,1.83,0,0,1,.13.16,89.39,89.39,0,0,1-16.27,7.94c-18.89,7.43-38.46,9.48-58.58,7.46A143.36,143.36,0,0,1,293.23,433.35Z"/><path class="cls-3" d="M210.21,191.86c-.22-.13-.64-.26-.64-.39,0-2.37-1.86-2-3.31-2.3a1.38,1.38,0,0,1-.95-1.19,3,3,0,0,1,2.66-.51c3.66.81,7.32.6,11,.51,3.28-.09,6.56,0,9.85,0l1.25,0h7.63a4.49,4.49,0,0,1-2.41,2c-.8-.38-1.61-.71-2.42,0-.74.05-1.48.08-2.21.15-5.79.57-11.5,1.88-17.34,2Z"/><path class="cls-5" d="M279.89,63.21c-.37.92-1.34.87-2,1.14-2.92,1.14-4.74,3.76-7.34,5.31-1.56.34-3.16.55-4.67,1-4.79,1.55-9.54,3.23-14.32,4.81a4.28,4.28,0,0,1-2.91.14c3.35-3.94,7.89-5.57,12.73-6.8,3.74-1,7.35-2.42,11.06-3.52C274.89,64.59,277.26,63.42,279.89,63.21Z"/><path class="cls-7" d="M43.63,334.45c0,.47,0,.94.06,1.41.08,1.35.71,1.69,1.79.86a1.69,1.69,0,0,1,1.68-.38,28.38,28.38,0,0,0,10.14,2,2.28,2.28,0,0,1,2.16,1.55l0,.82-.5.45c-.42.2-1.17.36-1.2.61-.29,2.38-1.91,1.64-3.23,1.4-2.33-.43-4.79-.19-6.92-1.72-1.09-.78-2.62-.25-4-.27-2.64-.06-2.86-.36-1.84-2.74a4.47,4.47,0,0,0,.18-1.17A5.52,5.52,0,0,1,43.63,334.45Z"/><path class="cls-8" d="M213.33,192.08c5.84-.07,11.55-1.38,17.34-2,.73-.07,1.47-.1,2.21-.15.66,1.35-.88,1.66-1.21,2.55-.28,1.6-1.74,1.76-2.86,2.34-1.31-1.18-2.16-.27-3.36.41a3.42,3.42,0,0,1-3.23.19c-1.35-.88-2.41-.19-3.65.12-1,.24-2.2,1.61-3.18-.15-.18-.34-.27,0-.38.14-1.63,1.9-3,.59-4.44-.34C211.37,194.08,212.8,193.48,213.33,192.08Z"/><path class="cls-4" d="M244.62,90.33c.39-2.52,2.71-2.09,4.27-2.66,3.33-1.21,6.7-2.33,10.13-3.2A75.45,75.45,0,0,0,267.86,82c.46-.19.62.38.77.75s0,1,0,1.44c-1.21,1.84-3.37,1.85-5.13,2.41-4.91,1.57-9.91,2.86-14.89,4.21-2.05.55-2.7,1.89-2.49,3.85C245.42,93.26,244.49,92,244.62,90.33Z"/><path class="cls-7" d="M108.51,154.29c2,.49,3.76-.33,5.55-.95.82-.29,1.54-.73,2.47-.34a2.43,2.43,0,0,0,1.91-.28,33.32,33.32,0,0,1,8.7-2.05c-1.07,1.27-.57,3.13-1.63,4.4-2.28-1-4.34.33-6.5.6-3.05.38-6.08,1-9.12,1.5-1.18.19-2.17,1.18-3.47.76A7.8,7.8,0,0,1,108.51,154.29Z"/><path class="cls-7" d="M248.62,75.65a4.28,4.28,0,0,0,2.91-.14c4.78-1.58,9.53-3.26,14.32-4.81,1.51-.49,3.11-.7,4.67-1,.3,1.41-.87,2-1.6,2.83-.67-.07-1.16-.33-1.81.53-1,1.33-2.94,1-4.42,1.35-2.41.6-4.72,1.44-7.05,2.19A93.62,93.62,0,0,1,246,79.43,7.92,7.92,0,0,1,248.62,75.65Z"/><path class="cls-10" d="M135.23,182.28l3.6.83c0,.35-.15.68-.54.74-4,.71-8.06,1.31-12.06,2.13-1.86.38-3.94-.18-5.59,1.2a12.68,12.68,0,0,1-5.28-2.05c.82-.14,1.73.31,2.45-.41C123.62,183.94,129.34,182.47,135.23,182.28Z"/><path class="cls-9" d="M424.78,189.18a116.92,116.92,0,0,1-9.07-8.88c-3.14-3.21-6.2-6.57-9.45-9.6s-5.48-6.5-9-9a10.56,10.56,0,0,1-3.5-4.51c2.43,1.78,4.35,4.11,6.47,6.23,7.73,7.72,15.4,15.48,23.1,23.23A3.83,3.83,0,0,1,424.78,189.18Z"/><path class="cls-4" d="M61.89,381.65c-.09-1.07-1-1.56-1.63-2.23a29.38,29.38,0,0,1-5.53-9.14c-1.6-3.83-1-7.49-1.33-11.23a2.07,2.07,0,0,1,.37-1.73A33.36,33.36,0,0,0,55,366.26v0a12.55,12.55,0,0,0,2.43,6.92l0,0a12.22,12.22,0,0,0,4.09,6,4.6,4.6,0,0,1,1.17.72c2.86,3.29,6.61,5,10.68,6.23l.3.23c0,.05-.1.13-.14.13H71.7c-1.2,0-2.17-.77-3.31-.9-1.68-1.43-3.74-2.17-5.66-3.16l-.42-.4Z"/><path class="cls-8" d="M71.7,386.48h1.8s.09-.08.14-.13l-.3-.23c.62-.72,1.24-.05,1.84,0a32.35,32.35,0,0,0,10.71,0c1.28-.2,2.71,0,3.64-1.23a10.3,10.3,0,0,0,5.19-.91,1.27,1.27,0,0,0,.86-.72c1.1.26,1.78-.82,2.78-.88,2.75-1.54,5.08-3.81,8.18-4.76-2,2.44-4.79,3.85-7.51,5.25C90.37,387.36,81.29,389,71.7,386.48Z"/><path class="cls-10" d="M62.73,382.42c1.92,1,4,1.73,5.66,3.16a141.56,141.56,0,0,1-18-4.93,12,12,0,0,1-5.57-3.78c3.38.56,6.23,2.66,9.56,3.31,2.52.5,4.89,1.76,7.56,1.47l.42.37Z"/><path class="cls-9" d="M328.92,91.52l-.82,0c-1.5-1.53-3.59-2.49-4.4-4.71a2.88,2.88,0,0,0-1.4-1.42c-2.25-1-3.55-2.94-4.92-4.87-.7-1-1.47-2.18-3-2h0l-3.66-5.12c1.51,0,2.21,1.29,3.05,2.11,3.92,3.87,7.65,7.93,11.53,11.85A22.43,22.43,0,0,1,328.92,91.52Z"/><path class="cls-3" d="M120.64,187.18c1.65-1.38,3.73-.82,5.59-1.2,4-.82,8-1.42,12.06-2.13.39-.06.51-.39.54-.74.55,1.27,2.43.16,2.89,1.6-4.88.81-9.76,1.66-14.66,2.41-1.71.27-3.45.29-5.18.42Z"/><path class="cls-8" d="M423,395.48c.91-.19.84-1.29,1.55-1.66a.8.8,0,0,0,.81-.82h.78a107.82,107.82,0,0,1-12.67,13,62.72,62.72,0,0,1-7.91,6.54l-.09-.1a43.74,43.74,0,0,1,6.64-6.27A90.65,90.65,0,0,0,423,395.48Z"/><path class="cls-11" d="M310.68,73.43l3.66,5.12c-.74,0-1.47,0-2.2,0s-1-.3-1-1c0-1.22-.08-2.33-1.73-2.31A.72.72,0,0,1,309,75c.62-1.52-.5-1.22-1.3-1.26s-1.5,0-1.33-1c.13-.8.79-1,1.54-.83.52.1,1.06.13,1.59.19C309.86,72.54,310.27,73,310.68,73.43Z"/><path class="cls-1" d="M426.14,393h-.77a2.72,2.72,0,0,1-.43-1.64,2.54,2.54,0,0,0,2.82-1.61c-.12-.82-.75-.8-1.35-.83s-1-.14-1-.75.54-.73,1.07-.87a10.91,10.91,0,0,1,4.48,0A32.46,32.46,0,0,1,426.14,393Z"/><path class="cls-8" d="M106.49,377.64c.17-.43.22-1,.54-1.26,3.42-2.32,6-5.6,9.16-8.17a2,2,0,0,1,1.32-.37A78.89,78.89,0,0,1,106.49,377.64Z"/><path class="cls-10" d="M203.61,380.1c.81-.09,1.18.47,1.62,1,2.1,2.5,3.83,5.3,6.26,7.52a2.16,2.16,0,0,1,.7,2A55.61,55.61,0,0,1,203.61,380.1Z"/><path class="cls-1" d="M388.86,152.32l-.39.39-.41.41c-1.26-.1-3.33.51-1.76-2.07.49-.8-.66-1.24-.66-2A9.12,9.12,0,0,1,388.86,152.32Z"/><path class="cls-4" d="M276.13,126.47c2.27,1,5.58,4.34,5.8,5.92A47,47,0,0,1,276.13,126.47Z"/><path class="cls-5" d="M288,61.64c-.49,1-1.44.45-2.16.56-2,.31-3.88,1-5.91,1C282.35,61.28,285.19,61.52,288,61.64Z"/><path class="cls-4" d="M251.42,101.38c1.73.16,4.28,2.7,4.44,4.44A23.93,23.93,0,0,1,251.42,101.38Z"/><path class="cls-8" d="M395.89,419.06a25,25,0,0,1-5.68,3.24,1.83,1.83,0,0,0-.13-.16,13.5,13.5,0,0,1,5.67-3.25C395.8,419,395.84,419,395.89,419.06Z"/><path class="cls-4" d="M248.21,98.06c3,.35,3,.35,3.19,3.31A25.59,25.59,0,0,1,248.21,98.06Z"/><path class="cls-8" d="M400.73,415.79a18.42,18.42,0,0,1-4.84,3.27c-.05-.05-.09-.11-.14-.17,1-2,3.08-2.4,4.86-3.25Z"/><path class="cls-4" d="M272,122.26c2.36.45,3.09,2.51,4.18,4.22A23.2,23.2,0,0,1,272,122.26Z"/><path class="cls-8" d="M405.12,412.88a16.77,16.77,0,0,1-4.39,2.91l-.12-.15a10.17,10.17,0,0,1,4.44-2.84Z"/><path class="cls-4" d="M117.81,184.72c-.72.72-1.63.27-2.45.41a4.61,4.61,0,0,1-1.81-1l.27-.22,1.55,0h0C116,184.79,117.1,184.15,117.81,184.72Z"/><path class="cls-4" d="M260.28,110.34a2.62,2.62,0,0,1,2.67,2.85A13.38,13.38,0,0,1,260.28,110.34Z"/><path class="cls-5" d="M86.62,297.38c-.39,1.1-1.05,1.71-2.29,1.24a3,3,0,0,1,1.75-1.28h.51Z"/><path class="cls-4" d="M263.89,114.07c.87.4,2.45.11,1.9,1.93A6.59,6.59,0,0,1,263.89,114.07Z"/><path class="cls-10" d="M42,374.35c1.38-.22,1.82.59,1.93,1.76A3.54,3.54,0,0,1,42,374.35Z"/><path class="cls-4" d="M268.92,119.12c.77.15,2.49-.62,1.3,1.38A3,3,0,0,1,268.92,119.12Z"/><path class="cls-4" d="M265.9,116.1c1,0,1.91.16,1.51,1.55A4.4,4.4,0,0,1,265.9,116.1Z"/><path class="cls-4" d="M270.39,120.64c1.29-.29,1.41.57,1.47,1.5Z"/><path class="cls-4" d="M257.88,107.89c1.05-.23,1.45.16,1.17,1.21A2.17,2.17,0,0,1,257.88,107.89Z"/><path class="cls-4" d="M256.27,106.24c1-.2,1.41.2,1.21,1.21A2.09,2.09,0,0,1,256.27,106.24Z"/><path class="cls-4" d="M267.94,118.2c1-.45.94.3,1,.91A1.84,1.84,0,0,1,267.94,118.2Z"/><path class="cls-8" d="M210.58,195.22c-.09.5-.2,1-.83.44C209.93,195.33,210.16,195.08,210.58,195.22Z"/><path class="cls-1" d="M431,387.24a.71.71,0,0,1,.7-.74Z"/><path class="cls-7" d="M126.32,264.51a1,1,0,0,1-.94.43A.89.89,0,0,1,126.32,264.51Z"/><path class="cls-10" d="M41.47,373.56c.44.09.55.41.57.8Z"/><path class="cls-4" d="M259.07,109.1a.39.39,0,0,1,.43.41Z"/><path class="cls-4" d="M257.48,107.43c.14.15.28.29.41.44C257.76,107.72,257.62,107.58,257.48,107.43Z"/><path class="cls-10" d="M43.93,376.09a.42.42,0,0,1,.46.41A.45.45,0,0,1,43.93,376.09Z"/><path class="cls-10" d="M44.35,376.45l.48.41Z"/><path class="cls-10" d="M203.24,379.66l.41.45Z"/><path class="cls-7" d="M41.6,337.83l-.3.48Z"/><path class="cls-9" d="M86.59,297.34h-.51l.5-.51Z"/><path class="cls-4" d="M282,132.44l.34.39Z"/><path class="cls-4" d="M263.5,113.72c.29-.11.39,0,.33.3Z"/><path class="cls-4" d="M263.09,113.31c.29-.1.39,0,.29.29C263.28,113.51,263.19,113.41,263.09,113.31Z"/><path class="cls-4" d="M255.87,105.81l.42.43Z"/><path class="cls-4" d="M223.08,401.15l.42.42Z"/><path class="cls-4" d="M223.49,401.55l.45.4Z"/><path class="cls-4" d="M223.91,401.93l.46.37Z"/><path class="cls-10" d="M232.46,408.78l.46.3Z"/><path class="cls-8" d="M405.56,412.51l-.44.37-.07-.08.42-.39Z"/><path class="cls-4" d="M259.87,109.9a.42.42,0,0,1,.44.43Z"/><path class="cls-7" d="M106.41,157.94l-.29.46Z"/><path class="cls-4" d="M259.47,109.49a.42.42,0,0,1,.43.44C259.76,109.78,259.62,109.63,259.47,109.49Z"/><path class="cls-4" d="M267.54,117.77c.29-.1.39,0,.29.29A4,4,0,0,1,267.54,117.77Z"/><path class="cls-4" d="M222.62,400.79l.47.37Z"/><path class="cls-12" d="M405.47,412.41l-.42.39a10.17,10.17,0,0,0-4.44,2.84c-1.78.85-3.87,1.22-4.86,3.25a13.5,13.5,0,0,0-5.67,3.25c-3.33,1.19-6.33,3.09-9.54,4.54s-6.39,2.29-9.4,3.74c-3.78,1.82-7.85,2.45-11.78,3.58-3,.87-6.22,1.45-9.37,2.05-4.16.79-8.41.26-12.51,1.37a10.12,10.12,0,0,1-2.21.11,115.42,115.42,0,0,1-21.76-.92c-5.18-.78-10.48-1.16-15.48-3.18a19.88,19.88,0,0,0-6.39-1.54h0a3,3,0,0,0-1.57-.83c-3.72-1.11-7.26-2.68-10.85-4.13-1.28-.51-2.34-1.61-3.86-1.5a.43.43,0,0,0-.25-.05c-1.34-1.17-3.13-1.5-4.59-2.45-5.79-3.77-11.83-7.17-17.17-11.58a141.17,141.17,0,0,1-14.36-13,4.17,4.17,0,0,0-.81-.56c-.83-2-2.59-3.23-3.94-4.77a155.19,155.19,0,0,1-15.68-22.17,150.34,150.34,0,0,1-9.56-19.7c-.08-.58.17-1.31-.69-1.55l-.15-1.18c-.53-2.27-.81-4.63-2.33-6.55l-.06-.07c-.15-1,.17-2.13-.31-3.17A21.17,21.17,0,0,1,203.3,329c-.2-.83.55-2-.81-2.43l-.79-2c.82-.68,1.34-1.36,0-2,0-.13,0-.27,0-.4.16-.81.71-1,1.46-1.08a22.81,22.81,0,0,0,7.48-2.89c1-.54,1.88-1.61,2.93-1.68a8.17,8.17,0,0,0,6.63-3.86c1.57-2.23,4.59-3.23,5.8-6a3,3,0,0,1,1.4-1.42c2.15-1,2.48-3.13,3.53-4.86.89-1.49.59-3.67,2.52-4.53a4.78,4.78,0,0,0,2.9-3.86c.22-1.52.49-2.72,2.22-3.11.66-.14.76-.84.82-1.48.19-2.16.49-4.27,2.5-5.66.91-.62.74-1.66.73-2.6,0-1.39.32-2.52,1.88-2.94.66-.18,1.36-.55,1.32-1.35-.21-3.74,2.18-6.71,3-10.15a1.59,1.59,0,0,1,1.42-1.27c2.28-.3,2.45-1.79,1.95-3.56-.3-1-.25-2.2.59-2.55,2.33-1,2.07-2.83,2-4.71,0-.78,0-1.55,1.23-1,.91.4,1.5-.32,1.17-1.1-.73-1.73-.21-3.47-.36-5.19-.06-.59,0-1.32.87-1.26.74,0,.78.71.71,1.23-.45,3.06.94,5.91,1,8.91l0,0c-1.13-.11-.74-1.41-1.53-2.15-.45,2.87-2.38,5.19-1.1,8.09.33.74-.13,1.65-.47,2.49-.42,1.06-1.47,1.76-1.51,3-.1,2.65-.35,5.29-.39,7.94-.06,4.57,0,9.14,0,13.72,0,.73.36,1.69-.79,2a11.29,11.29,0,0,1,0-2.4c.27-1.23-1.13-2.22-.65-3.2,1.29-2.65.49-5-.6-7.37.13-1.66.3-3.32.39-5,0-.78.1-1.8-1.07-1.76-.94,0-1.32.83-1.33,1.72,0,1.68,0,3.36,0,5-.43.1-.75.32-.77.8-.15,3.56-.3,7.11-.42,10.66,0,.52,0,1.27.71,1.2s.47-.86.47-1.34c0-3.77,0-7.54,0-11.32a3,3,0,0,1,1.62.41c0,3.64,0,7.28,0,10.92,0,1.22.4,1.78,1.64,1.64-.05,1.23.82,2.18.88,3.46.13,2.95.07,5.94,1.47,8.75.58,1.18,1.46,2.64.82,4-1,2.24-.77,3.89,1.43,5.19.46.28.12,1,.28,1.53.37,1.19.27,2.74,2.05,3a2.45,2.45,0,0,1,0,.38c-.3.19-.56.45-.37.81s.47.09.71,0a45.21,45.21,0,0,0,2.45,4.74c.54,1.15.63,2.42,1.34,3.5,1.83,2.78,3.11,5.87,5.15,8.54,1.58,2.05,2.64,4.59,4.46,6.37,5,4.86,9.32,10.4,15.11,14.39,1.78,1.21,3.1,3.17,5.48,3.43a2,2,0,0,0,1,1.25c2,1.46,3.84,3,6.35,3.73,2.18.62,4.15,2.58,6.14,3.07,3.62.88,6.84,2.76,10.53,3.46,4.86.91,9.7,2,14.65,2.19a72.92,72.92,0,0,0,16.7-.85c3.23-.62,6.57-1.08,9.52-2.76,2-.3,4.06-.58,5.67-2l.42-.81h.8c1.64.74,2.71-.75,3.88-1.26a70,70,0,0,0,16.34-10.52c4.3-3.57,7.77-7.91,11.79-11.72,1-.09,1.24-.76,1.22-1.62,1.22-.59,1.16-2.28,2.43-2.84a3.65,3.65,0,0,1,1.1,3.31c-.65,5.44.07,10.9-.34,16.33-.43,5.78.27,11.53.05,17.29a9.83,9.83,0,0,1-.21,2.81,2.71,2.71,0,0,0,1,3.24c2.35,1.29,2.53,3.59,3.22,5.68.6,1.82,2.53,2.59,3.29,4.26,1.46,3.23,4.69,3.91,7.45,5.3.81.4.79,0,1.1-.48.54-.9,1.14-.81,1.52.2l-.4.81c-.13.47-1.33.57-.53,1.3.46.43.85.12.93-.49.92,0,1.3-.9,2-1.21l.49.47a90.65,90.65,0,0,1-10.89,10.66A43.74,43.74,0,0,0,405.47,412.41Z"/><path class="cls-8" d="M367.34,340.33a87.65,87.65,0,0,0,17.08-28.13,47.34,47.34,0,0,0,1.94-6.89,21.21,21.21,0,0,1,.95-3.18c2.71-5.77,3.93-11.93,4.86-18.17,1.73-.67,1.33-2.5,2-4,.58,1.06.4,2.32,1.65,2.55.69-.28,0-1.25.79-1.46.73.24.07,1.22.95,1.49.48-1.9,2.15-1.87,3.51-1.72,4.3.47,8.57,0,12.85-.1,2.07-.06,2.69.56,2.6,2.61-.07,1.58-.69,3.39.76,4.78-.62,4.6-.63,9.29-2.21,13.74-.46,1.3-1.18,2.57-1,4,0,.28,0,.55,0,.82-1.09.63-.95,1.82-1.32,2.79s-.11,2.06-1.07,2.49c-1.34.6-1.56,1.67-1.68,2.88a.61.61,0,0,0-.35.71l-.06.49a.66.66,0,0,0-.36.76l0,.06a.64.64,0,0,0-.34.74,4,4,0,0,0-1.29,3.27.7.7,0,0,0-.77.79l0,.43a.78.78,0,0,0-.4.78c-.13.27-.27.54-.41.81l-.42.41c-.44.31-.41.76-.4,1.22-1.9,1.53-4,1-6,.34a5.29,5.29,0,0,0-2.9.17c-2.32.48-4.13,2.2-6.52,2.45a3.64,3.64,0,0,0-1.42.73,175.75,175.75,0,0,1-19.39,10.92A8.81,8.81,0,0,1,367.34,340.33Z"/><path class="cls-9" d="M295.62,357.35a92.78,92.78,0,0,0,16.65,7.71,19.09,19.09,0,0,0,2.55.49c.11.48.48.55.89.65,8.88,2.26,17.54,1.39,26.05-1.71l.87.09c4.55.13,9.05,1.12,13.63,1,2.33-.06,4.48-.4,6.06-2.35.94-1.15.87-1.93-.72-2.25-2-.42-4.07-.8-6.09-1.28-.76-.18-1.66-.12-2.19-.84-.3-.41-.56-.8-1.11-.63-.81.24-.55,1-.61,1.53h0c-1.76.49-2.73-1.22-4.09-1.48-1.59-.31-1.24-.81-.76-1.7a92.19,92.19,0,0,0,17.41-13,2.31,2.31,0,0,0,3.09,2.44,8,8,0,0,1,4-.13c3.48.69,7.08.85,10.39,2.33.83.37,1.56-.24,2.37-.21,1.22.05,1.56.68.82,1.52-1.38,1.56-2.94,3-4.42,4.43-2.54,2.54-5.75,4.08-8.77,5.92a2.63,2.63,0,0,0-1.46,1.82c-.15,1-1.13,1.25-1.87,1.7-.59.36-1.55.24-1.68,1.23h-.41q-.19-.3-.39,0l-.42.81c-2.08.13-4.11.41-5.67,2-2.95,1.68-6.29,2.14-9.52,2.76a72.92,72.92,0,0,1-16.7.85c-5-.2-9.79-1.28-14.65-2.19-3.69-.7-6.91-2.58-10.53-3.46-2-.49-4-2.45-6.14-3.07-2.51-.72-4.37-2.27-6.35-3.73a2,2,0,0,1-1-1.25Z"/><path class="cls-8" d="M303,201l-10.89,6.45c0-1,.92-1.24,1.52-1.7,1.84-1.42,3.91-2.55,5.38-4.41l1.13-.42c1.71.17,2.38-.79,2.5-2.34a.42.42,0,0,0,.24-.05c.87,1.19,1.06.13,1.41-.42,1.27-.58,2.91-.49,3.66-2,1.26.6,2.38,0,3.48-.46a67.54,67.54,0,0,1,11.49-3.45,76.12,76.12,0,0,1,27.54-.4,73.39,73.39,0,0,1,21.92,7.37,102.36,102.36,0,0,1,9,5.29c1.84,1.22,3.33,2.95,5.42,3.78a103.12,103.12,0,0,1,11,11.19c3.29,4.1,6.62,8.19,9.05,12.91,1.32,2.55,2.8,5,4.2,7.52.18.79.36,1.58.53,2.38a3,3,0,0,0,1.57,2.53c-.08.51-.31,1,.06,1.52l-.12.83c-1-.09-.44-1.59-1.49-1.63l-.07-.8c-.59-1.72-.57-3.74-2.36-4.88l-.07-.79a2.37,2.37,0,0,0-1.57-2.45l0-.8c-.43-1.46-.9-2.88-2.37-3.66l-.07-.8-.37-.37-.44-.85a6.39,6.39,0,0,0-2.38-3.22l0,0c-.28-1-.39-2-1.59-2.4l0,0a2,2,0,0,0-.24-.75,84.67,84.67,0,0,0-10.25-11.47c-1.27-1.12-2.32-2.62-4.07-3.14a2.63,2.63,0,0,0-.39-.06,5.15,5.15,0,0,0-2.84-2.37l0,0a1.86,1.86,0,0,0-1.6-1.18l0,0-.38-.36a68.92,68.92,0,0,0-13.59-7.36,84.21,84.21,0,0,0-21.18-5.4,79.57,79.57,0,0,0-15.12,0c-2.67.24-5.48.31-8.05,1.41a7.83,7.83,0,0,0-1.61,0,92.21,92.21,0,0,0-16.66,5.83A1.75,1.75,0,0,0,303,201Z"/><path class="cls-11" d="M415.64,253.58c.87.15.93.95,1.08,1.55a27,27,0,0,1,1.21,6.09,32,32,0,0,0,1.08,7.33c1.2,5.08.35,10.14.62,15.2a23.52,23.52,0,0,1-.5,4.78c-.1.61-.18,1.4-1.06,1.54-.09-.67.16-1.4-.33-2,0-.29,0-.57,0-.86l.33-.39v-2.32L418,284l0-1.25-.32-.42a49.81,49.81,0,0,0,.16-12.44c-.39-5.07-1.48-10-2.36-15.06l.14-1.23Z"/><path class="cls-6" d="M410,314.85c.12-1.21.34-2.28,1.68-2.88,1-.43.74-1.64,1.07-2.49s.23-2.16,1.32-2.79c-.16,2.63-.51,5.24-2.35,7.29-.61.68-.43,1.33-.52,2h0c-1.35.93-1.44,2.54-2,3.87a38.78,38.78,0,0,1-2.8,5.1c-.26.43-.67.95-1.29.35,0-.46,0-.91.4-1.22l.42-.41c.14-.27.28-.54.41-.81s.27-.52.4-.78,0-.29,0-.43a.79.79,0,0,0,.77-.79,4,4,0,0,1,1.28-3.27l.35-.74,0-.06.36-.76.06-.49C409.73,315.33,409.84,315.09,410,314.85Z"/><path class="cls-6" d="M417.74,288.06c.49.61.24,1.34.33,2a60.92,60.92,0,0,1-2.57,14.3c-.23.71-.53,1.4-1.43,1.5-.21-1.47.51-2.74,1-4,1.58-4.45,1.59-9.14,2.21-13.74Z"/><path class="cls-8" d="M414.79,249.62l0,1.14c0,.53-.07,1.07-.1,1.6a9.13,9.13,0,0,1-1.54-4.37C414.29,248,413.72,249.6,414.79,249.62Z"/><path class="cls-11" d="M414.79,249.62c-1.07,0-.5-1.65-1.61-1.63l-.09-.86.12-.83C414.61,247,414.81,248.25,414.79,249.62Z"/><path class="cls-11" d="M413.15,244.78a3,3,0,0,1-1.57-2.53C412.78,242.67,413,243.73,413.15,244.78Z"/><path class="cls-11" d="M414.72,252.36c0-.53.07-1.07.1-1.6,1.46.6.53,1.89.82,2.82l0,0-.83-.74Z"/><path class="cls-6" d="M399.82,339.5c0,.86-.21,1.53-1.22,1.62A2,2,0,0,1,399.82,339.5Z"/><path class="cls-6" d="M411.16,316l.13.08-.13-.08Z"/><path class="cls-11" d="M138.07,272.65c1.81.9,3.87,0,5.72.77.48.19,1.15.09,1.45.58,2.41,3.91,7.27,4.73,10.15,8a.38.38,0,0,0,.17.12c3.09.61,3.53,2.77,3.2,5.42a1.83,1.83,0,0,0,.33,1.33c2,2.08,2.1,4.67,2.09,7.34,0,7.75,0,15.51,0,23.26,0,1.1.15,2.21-1.84,2.45,1.34.65,2.45,1.08,1.3,2.3a.51.51,0,0,0,0,.73c.22.25.47.1.73,0,.43-.13.63-.74,1.21-.59.4.57.21,1.23-.29,1.36-2.12.54-2.9,3.06-5.27,3.35-.6.08-1,1.68-1.54,2.53-.45.7-.89,1.72-1.91.52a.59.59,0,0,0-.9,0,1,1,0,0,0-.2,1.3c.71,1.29.27,1.75-1.07,1.46-.51-.12-.74-.05-.87.44-.45,1.68-1.89,2.6-3.08,3.59a21.13,21.13,0,0,0-3.66,3.6,5.73,5.73,0,0,1-2.25,1.93,3.26,3.26,0,0,0-2.25,3.05c-.53.11-1.33.05-1.52.36-1,1.61-2.23.69-3.27.37-1.33-.4-1.37-1.73-1.71-2.92-.87-3.05.33-6,.1-9a1.7,1.7,0,0,1,.43-1.09c2.79-3.34,2.87-7.37,3-11.42a24.43,24.43,0,0,0-.64-6.71c-.25-1.08-.46-1.82-1.78-2-1.71-.22-2.18-1.48-1.73-3a3.23,3.23,0,0,0-.94-3.63c-1.55-1.48-1.15-3.54-.62-5.13.92-2.69.5-5.29.4-7.95,0-.4-.27-.81-.2-1.18.71-3.62-1.48-6.76-1.67-10.22a1,1,0,0,0-.84-1c-1.22-.25-1-1-.75-1.83,1.7-1.8,3.91-3,5.79-4.56C134.89,275.29,136.2,273.62,138.07,272.65Z"/><path class="cls-11" d="M98.36,382.4c-1,.06-1.68,1.14-2.78.88a.76.76,0,0,0-.86.72,10.3,10.3,0,0,1-5.19.91,5.35,5.35,0,0,1-2.47-.62c-1-.51-2,.1-2.76.73-.17.14-.33.55-.25.68.45.71,1.23.25,1.84.44a32.35,32.35,0,0,1-10.71,0c-.6-.08-1.22-.75-1.84,0-4.07-1.21-7.82-2.94-10.68-6.23a4.6,4.6,0,0,0-1.17-.72,2.59,2.59,0,0,0-.74-2c-.91-1.16-1.68-2.44-2.5-3.67a2.47,2.47,0,0,1,2,.74,3.48,3.48,0,0,0,4.71.05c.15-.13.28-.37.44-.4,4.33-.79,3.65-5.2,5.59-7.72a1.61,1.61,0,0,0,.21-1c-.09-5.07.89-10.06,1-15.13.1-3.29-.1-6.93,1.86-10.13,1-1.71.17-4,.38-6,.15-1.35-.78-3.31.63-3.93,1.58-.68,2.28,1.45,3.37,2.32,1.58,1.24,1.88,3,2.3,4.93A47.74,47.74,0,0,1,82.17,351c-.08,1.08,0,2.14-.86,3a1.82,1.82,0,0,0-.35,1.12c0,3.37,0,6.74,0,10.12a2,2,0,0,0,.79,1.57c1,.91,1.51,2.29,2.4,3.19,2.69,2.73,3.79,6.69,7,8.92,1.48,1,3.45,1.26,4.87,2.59.4.37,1,0,1.22-.66s.6-.85,1.48-.65C98,380.93,97.76,381.65,98.36,382.4Zm-6.85.49a4.23,4.23,0,0,0-3.75,0A5.74,5.74,0,0,0,91.51,382.89Z"/><path class="cls-6" d="M55,354.05a30.86,30.86,0,0,1,4-12.12c.93.12,1.18-.52,1.51-1.22a10.7,10.7,0,0,1,3-4c.18,1.06-.64,2.06-.13,3.16a.74.74,0,0,1-.51,1c-2.06.86-1.23,2.17-.52,3.42a3.71,3.71,0,0,1,.74,2c-.28,4.38.57,8.71.42,13.08,0,1,0,2-1.22,2.52-1,.39-.89,1.31-.79,2.08a3.71,3.71,0,0,1-1.65,3.62c-.46.36-.77.75-1.36.32-1-.74-1.41.13-1.87.78-1.3-.3-.6-1.95-1.64-2.43v0q0-4.68,0-9.34,1.83-1.21,0-2.43Z"/><path class="cls-1" d="M138.07,272.65c-1.87,1-3.18,2.64-4.74,4-1.88,1.6-4.09,2.76-5.79,4.56h-1.22c.92-2.13,2.89-3.37,4.6-4.61,1.08-.79,2-1.73,3-2.55,2.59-2.08,5.16-4.2,7.74-6.3,4.6-3.74,9.34-7.32,13.74-11.28,2.66-2.4,5.55-4.52,8.16-7a77.24,77.24,0,0,1,7.33-5.53,2.4,2.4,0,0,1-1.24,2.35c-3.92,2.94-7.58,6.21-11.45,9.23a32.5,32.5,0,0,0-5.95,5.83c-1.18.52-2.46.88-3.24,2l-.41.4a6.52,6.52,0,0,0-2,2c-.54.41-1.51.24-1.63,1.21C143,269.22,140.1,270.43,138.07,272.65Z"/><path class="cls-1" d="M92.28,308.71a15.09,15.09,0,0,0,5-4.23c1.46-1.77,3.4-2.73,5-4.17,4-3.56,8.27-6.78,12.42-10.15a108.94,108.94,0,0,0,9.75-8.47,2.34,2.34,0,0,1,1.88-.53c.1,1-.65,1.24-1.25,1.8-5.09,4.73-10.49,9.1-15.9,13.44-5.63,4.51-10.75,9.65-16.87,13.54l0,0Z"/><path class="cls-1" d="M63.52,336.67a10.7,10.7,0,0,0-3,4c-.33.7-.58,1.34-1.51,1.22a1.59,1.59,0,0,1,0-.38.94.94,0,0,0,.42-.89l0-.82A73.26,73.26,0,0,0,64,333.49a27.2,27.2,0,0,1,8.07-7.92,81,81,0,0,0,8.75-7.21c1-.89,2.93-1.14,2.54-3.17l1.6,0,.83,0h0a3.25,3.25,0,0,1-1.66,2.2c-4.08,2.85-7.53,6.46-11.47,9.45A43.6,43.6,0,0,0,63.52,336.67Z"/><path class="cls-1" d="M87.42,312.76a7,7,0,0,0,2.41-1.65l.83,0h0c-1.17,1.89-2.56,3.52-4.87,4.05h0C86,314.12,87.29,313.84,87.42,312.76Z"/><path class="cls-12" d="M58.25,373.54c.82,1.23,1.59,2.51,2.5,3.67a2.59,2.59,0,0,1,.74,2,12.22,12.22,0,0,1-4.09-6Z"/><path class="cls-12" d="M55,366.24c1,.48.34,2.13,1.64,2.43-.37,1.61,1.2,2.87.79,4.49A12.55,12.55,0,0,1,55,366.24Z"/><path class="cls-1" d="M92.3,309.94c-.11,1-.77,1.22-1.62,1.21h0v-.82h0l1.62-.4Z"/><path class="cls-11" d="M386.77,208.25c-2.09-.83-3.58-2.56-5.42-3.78a102.36,102.36,0,0,0-9-5.29,73.39,73.39,0,0,0-21.92-7.37,76.12,76.12,0,0,0-27.54.4,67.54,67.54,0,0,0-11.49,3.45c-1.1.42-2.22,1.06-3.48.46-1-.12-2.61,0-2.6-1.19s1.54-.8,2.49-.88c0,.51,0,1.07.71,1.15.55.07.82-.24.91-.75.63-.09,1.05-.49,1-1.07-.09-.79-.82-.49-1.3-.54s-1.21-.05-1.23-.75c-.07-2-.68-4.23.23-6,1.14-2.17,1.17-4.45,1.23-6.63.34-10.94-.32-21.9.49-32.85,5,.33,10,.88,15,1,1.13,0,1.18-.15.74-1-.77-2-2.57-3.05-3.93-4.49-2.76-2.92-5.73-5.64-8.23-8.81,1.09-.28,1-.95.25-1.38-3.68-2.16-3.11-5.82-2.48-8.83,1.45-7,.89-14,1-20.93a30.19,30.19,0,0,0-.37-3.4c-.15-1.6,0-3.08,1.6-4,.84-.5.83-1.47.82-2.37,0-2.82.32-5.63,0-8.45-.08-.8-.32-1.76.92-2.15.83-.26.22-.76-.07-1a2.31,2.31,0,0,1-.86-2.14c1.57-.2,2.34,1,3,2,1.37,1.93,2.67,3.83,4.92,4.87a2.88,2.88,0,0,1,1.4,1.42c.81,2.22,2.9,3.18,4.4,4.71A2.18,2.18,0,0,0,329.75,94c2,.72,2.77,3,4.6,4,.38.21,0,.7-.27,1-.52.71-.15,1.24.38,1.75s1,.71,1.6.24c.94-.77,1.36-.3,1.83.56A5.71,5.71,0,0,0,339.2,103c1.14,1,1.95,1.93,1,3.49-.22.37-.43.91.05,1.3s1.21,0,1.72-.13c.81-.29,1.6-1,2.15.23.15.34,2,1.24-.25,1.31-.53,0-.41.77-.27,1.21s.68.53,1.17.38c2.24-.66,2.33-.56,2,1.69-.19,1.37.56,1.91,1.8,1.66,1.56-.31,2.56-.27,1.61,1.72-.23.5-.39,1.17.23,1.41s1.62.52,2-.63h0c.82.51,1.75.77,1.13,2.24-.52,1.22.6,1.75,1.7,1.78,1.37,0,2.68,0,1.38,1.93a.81.81,0,0,0,.17,1.1,1,1,0,0,0,1.31-.06c.88-.64,1.26-.45,1.76.57a3.21,3.21,0,0,0,2.68,2.17c.13.27.27.53.41.8s.27.27.41.41c-.49.68-1.53.8-1.84,1.8A3.74,3.74,0,0,1,364.1,132c.79-.82,1.36-1.44,1.27-2.4l.82.8a9.83,9.83,0,0,0,4.53,8.87,1.3,1.3,0,0,1,.72,1.29,5.81,5.81,0,0,0,1,3.41c.7,1.25,1.56,2.43,1.61,4,0,1.35,1.46,1.87,2.38,2.6,2.17,1.75,2.3,4.36,3.05,6.72.19.59.27,1.23.92,1.45,1.95.63,2.38,2.28,3.26,3.9,1.89,3.48,1.94,7.42,3.42,11a5.51,5.51,0,0,1,.15,2q0,14.28,0,28.55a4.64,4.64,0,0,0,.47,2.74C388.41,208,387.61,208.19,386.77,208.25Z"/><path class="cls-6" d="M152.25,261.3a32.5,32.5,0,0,1,5.95-5.83c3.87-3,7.53-6.29,11.45-9.23a2.4,2.4,0,0,0,1.24-2.35.86.86,0,0,0,.81-.83c1,0,2,0,2.53-1.17a2.83,2.83,0,0,1,1.24-1.25c3-1.27,5-3.86,7.46-5.84a1.8,1.8,0,0,0,.88-1.48l0,0a9.36,9.36,0,0,0,5.65-4.84l0,0a.73.73,0,0,0,.83-.77c2.93-2.76,6.34-4.95,9.23-7.78,1.16-1.14,2.49-2.13,3.74-3.18a5.08,5.08,0,0,0,3.34-1.48,39.89,39.89,0,0,1,5-4.79c2.42-1.95,4.63-4.13,7.24-5.89,1.3-.87,2.15-2.51,3.7-3.26,2.41-1.17,3.9-3.44,6-5a.7.7,0,0,0,.21-1c0-.13,0-.25,0-.38,1.12-.58,2.58-.74,2.86-2.35,1.51-.41,3-.91,3.63-2.52a4.49,4.49,0,0,0,2.41-2h-6.9c-.24-.33-.49-.32-.73,0l-1.25,0c-2.06-.76-4.26-.48-6.36-.62-6.24-.43-12.5-.41-18.75-.66-10.41-.44-20.83-1-31.24-1.43-2.29-.1-4.58-.11-6.87-.17-.14-1.1-1-1.28-1.8-1.13-1.68.31-3.59-.88-5.07.75a70.86,70.86,0,0,1-11.36-.74c.94-2.58,3.16-1.37,4.87-1.65,1,1,4.44,1.17,6.13,0h-6.13c0-.54,0-1.08,0-1.76,2,0,4.12.39,6.12-.32a10.92,10.92,0,0,0-6.12.32c-2.26-.27-4.25,1.37-6.49,1,.48-1.56,2.45-2.65,1.46-4.71-.11-.23.55-.51,1-.61,1.12-.29,2-.79,2.08-2.12,0-.25.17-.65.33-.7,2.35-.64,3-3.1,4.7-4.47,1.51-1.22,3.47-2.53,3.52-5a1.4,1.4,0,0,1,1.5-1.36c1.08,0,2.19.51,2.34,1.59.28,2,2.8,2.15,3.11,4.14.08.52,1.07.11,1.49-.38s.53-1.28,0-1.38c-2.92-.57-1.78-3.41-2.89-5-.52-.73-.43-1.74-1.2-2.49s-.47-1.6.68-2a8.25,8.25,0,0,0,5.68-5.54,2.45,2.45,0,0,1,2.76-1.6c1.48.08,2.06-.75,2.26-2a8.75,8.75,0,0,0,.14-1c0-2.47.7-4.48,3.28-5.56.7-.29,2-.74,1.67-2.18-.11-.43.33-.49.67-.57a3.68,3.68,0,0,1,4.39,2.72c.13.76.39,1.41,1.25,1.18s1.41-.86,1-1.69c-1.37-2.74.33-1.81,1.88-1.92,3.18-.22,6.27.48,9.41.49a50.57,50.57,0,0,1,7.2.15c5.19.8,10.41.86,15.61,1.34,2.66.25,5.36.12,7.76,1.64a1,1,0,0,0,.93-.1c1-1.58,2.45-.87,3.81-.74,1.54.15,3.1.11,4.65.16,1,0,2.07-.26,2.65,1.19.3.74,1.48.71,2.06,0a1.59,1.59,0,0,1,1.73-.67,76.66,76.66,0,0,0,13.19,1c2.33,0,4.67.16,7,.23.37,0,.79.06.67.47-.17.61-.6,1.09-1.36.78-.56-.23-1.34-1-1.52.16s.93.9,1.6.91c3.18,0,6.35,0,9.52,0,.67,0,1.37.1,1.76-.68a.93.93,0,0,1,1.22-.43,14.63,14.63,0,0,0,5.43.25c1.57-.11,2.85.69,4.3.86a8.22,8.22,0,0,0,2.78-.4c.21,1.37-1.35,1.65-1.68,2.82a24.82,24.82,0,0,0-.59,11.11c.36,2.14,1.72,4.26.88,6.48-.92,2.45-.66,4.86-.38,7.34.21,1.89-.11,4.25-1.35,5.18-2.61,1.94-2.52,4.72-2.31,7,.25,2.7-1,4.52-2.06,6.48-1.29,2.39-2.21,4.63-1.14,7.33a4.23,4.23,0,0,1-1.63,5.35,3.27,3.27,0,0,0-1.51,3.08c0,1.25.36,2.65-.55,3.71-2.17,2.5-1.76,5.15-.64,7.89l-.81.4a1.85,1.85,0,0,1-1.3-.36c-.31-.28-.51-.91-1.09-.53a1.19,1.19,0,0,0-.39,1.44c.31.92.76,1.8,1.16,2.7v.82h0c-.55.42-.39,1-.41,1.59a1.13,1.13,0,0,1-.36.06.74.74,0,0,0-.85.8h0c-.45.05-.64.31-.84.72a8.92,8.92,0,0,1-1.74,3.05c-1.12,1-1.59,2.71-3.45,2.85-.58,0-.45.73-.15,1.14,1.28,1.76-1.77,2.77-.75,4.47-2.14.15.07,1.15-.32,1.65-.64,2.82-2.28,5.25-3.2,8-.71,2.1-1.15,4.31-2.41,6.21,0-3-1.41-5.85-1-8.91.07-.52,0-1.18-.71-1.23-.9-.06-.93.67-.87,1.26.15,1.72-.37,3.46.36,5.19.33.78-.26,1.5-1.17,1.1-1.26-.56-1.24.21-1.23,1,0,1.88.29,3.74-2,4.71-.84.35-.89,1.52-.59,2.55.5,1.77.33,3.26-1.95,3.56a1.59,1.59,0,0,0-1.42,1.27c-.79,3.44-3.18,6.41-3,10.15,0,.8-.66,1.17-1.32,1.35-1.56.42-1.89,1.55-1.88,2.94,0,.94.18,2-.73,2.6-2,1.39-2.31,3.5-2.5,5.66-.06.64-.16,1.34-.82,1.48-1.73.39-2,1.59-2.22,3.11a4.78,4.78,0,0,1-2.9,3.86c-1.93.86-1.63,3-2.52,4.53-1,1.73-1.38,3.88-3.53,4.86a3,3,0,0,0-1.4,1.42c-1.21,2.76-4.23,3.76-5.8,6a8.17,8.17,0,0,1-6.63,3.86c-1.05.07-2,1.14-2.93,1.68a22.81,22.81,0,0,1-7.48,2.89c-.75.12-1.3.27-1.46,1.08-.39-.35-.31-.85-.42-1.29-.69-2.64,0-5.48-1.21-8v-1.58c0-1.95-.09-3.91,0-5.85.16-2.47.09-4.93,1.22-7.33a8.09,8.09,0,0,0,.49-6.07c-.2-.6-.18-1.61-1-1.52a1.53,1.53,0,0,0-1.51,1.34v0a.74.74,0,0,0-.82.82h0c-.71,0-.84.49-.89,1l-.1.15a3.44,3.44,0,0,0-.27.27l-.13.09c-.49.06-1,.11-1.07.75-2.94,2.79-5.77,5.68-9,8.19a4.12,4.12,0,0,1-2.39-4.3c.22-1.93-1.74-2.76-2.07-4.41-.08-.37-.59-.72-.55-1.05.5-4.67-3.8-6.52-5.86-9.62s-4.49-5.74-5.67-9.41c-.63-2-1.36-4.07-3.78-5.46-2.09-1.19-3.47-3.82-6-4.82-1.75-.7-3.51-1.53-5.42-1.39C154,262.67,153.39,261.42,152.25,261.3Zm28.29-113.64a1,1,0,0,0-1.11-1,1.09,1.09,0,0,0-1.2,1.28c0,.6.37,1.06,1,1A1.44,1.44,0,0,0,180.54,147.66Zm-20.6,25a1.08,1.08,0,0,0-1.16,1.11c0,.69.28,1.24,1,1.17a1.3,1.3,0,0,0,1.24-1.35C161.06,172.91,160.57,172.64,159.94,172.61Z"/><path class="cls-2" d="M276.24,219.17c-1.12-2.74-1.53-5.39.64-7.89.91-1.06.59-2.46.55-3.71a3.27,3.27,0,0,1,1.51-3.08,4.23,4.23,0,0,0,1.63-5.35c-1.07-2.7-.15-4.94,1.14-7.33,1.05-2,2.31-3.78,2.06-6.48-.21-2.25-.3-5,2.31-7,1.24-.93,1.56-3.29,1.35-5.18-.28-2.48-.54-4.89.38-7.34.84-2.22-.52-4.34-.88-6.48a24.82,24.82,0,0,1,.59-11.11c.33-1.17,1.89-1.45,1.68-2.82,5.2.53,10.45.32,15.64,1.13a35.1,35.1,0,0,0,5,.08c-.81,11-.15,21.91-.49,32.85-.06,2.18-.09,4.46-1.23,6.63-.91,1.74-.3,4-.23,6,0,.7.69.68,1.23.75s1.21-.25,1.3.54c.06.58-.36,1-1,1.07-.31-1-.91-1-1.62-.4-.95.08-2.49-.3-2.49.88s1.57,1.07,2.6,1.19c-.75,1.53-2.39,1.44-3.66,2l-1.41.42a.42.42,0,0,1-.24.05c-.69-.77-3-.37-4.12.7-.89.52-1.56,1.09-.4,2l-1.63,1.21c-.06-.66.2-1.64-.91-1.52-.76.09-1.26.65-.71,1.53-.32,1.8-1.75,2.35-3.24,2.83-.4-.42-.93-.6-1.31-.14s.2.47.5.54c-.38,1.55-1.3,1.5-2.43.82-.6-1.46-1.12-.33-1.36.14s.08,1,.15,1.48h-1.63a4.89,4.89,0,0,0-.62-2.68,1,1,0,0,0-1.2-.47c-.59.16-.56.63-.53,1.12a2.56,2.56,0,0,0,2.35,2.43c-.41,1.63-1,3.15-2.83,3.64-.09-.59.24-1.31-.43-1.81-.57.61-.31,1.24-.38,1.82v.4l-1-.25c-.61-.18-1.21-.23-1.61.37a.83.83,0,0,0-.05.73c.45.56,1.07.36,1.66.22l1-.26c0,.41,0,.82,0,1.23h0a.77.77,0,0,0-.81.82h0c-.4,0-.8,0-1.2-.11s-.81-.82-1.09,0a.85.85,0,0,0,.64,1.08l.77.22c-1.07.35-1.21,1.75-2.32,2.06a1.22,1.22,0,0,0-.86.82h0Zm0-2.69c.07.57-.17,1.48.58,1.51.91,0,1.05-.88,1-1.64,0-.56.23-1.43-.59-1.48C276.22,214.8,276.28,215.74,276.23,216.48Z"/><path class="cls-6" d="M143.6,183.16l-1.08,0c.36-2,1.91-1.6,3.25-1.64C146,183.29,144.72,183.11,143.6,183.16Z"/><path class="cls-2" d="M269.3,144.63a8.15,8.15,0,0,1,5,0A7.94,7.94,0,0,1,269.3,144.63Z"/><path class="cls-2" d="M175.78,138.17a6.88,6.88,0,0,1-3.29.32c-.34,0-.68-.17-.63-.59s.43-.44.75-.32C173.51,137.91,174.55,137.47,175.78,138.17Z"/><path class="cls-2" d="M174.89,139.73a3.56,3.56,0,0,1,3,0A2.8,2.8,0,0,1,174.89,139.73Z"/><path class="cls-2" d="M171.35,139.68c-1,.65-2,.46-3.53.33A3.78,3.78,0,0,1,171.35,139.68Z"/><path class="cls-6" d="M165.57,137.38c.86-.6,1.71-.49,3.12-.2A3.32,3.32,0,0,1,165.57,137.38Z"/><path class="cls-11" d="M324.06,146.7a.7.7,0,0,1,.38,0C324.33,146.84,324.2,146.86,324.06,146.7Z"/><path class="cls-11" d="M388.06,153.12l.41-.41c.73.88,1.44,1.77,2.2,2.62.38.43.47.76,0,1.21s-.7.35-1.2.06C388.06,155.79,388,154.52,388.06,153.12Z"/><path class="cls-11" d="M376.73,141.77l1.61.83c-.41,1.18-1.39,1-2,.55S375.88,142,376.73,141.77Z"/><path class="cls-1" d="M380,145.83l.58.36-.22.22-.36-.58Z"/><path class="cls-1" d="M380,145.83l-.57-.36.21-.22.36.58Z"/><path class="cls-11" d="M199.3,291.74a1.53,1.53,0,0,1,1.51-1.34c.81-.09.79.92,1,1.52a8.09,8.09,0,0,1-.49,6.07c-1.13,2.4-1.06,4.86-1.22,7.33-.13,1.94,0,3.9,0,5.85-1.25-.53-.54-1.67-.78-2.51v-7.17c0-.6,0-1.19,0-1.78,0-.21,0-.42,0-.64,1.2-2.05.52-4.4,1.06-6.57C200.55,291.74,199.85,291.74,199.3,291.74Z"/><path class="cls-11" d="M200.05,312.75c1.18,2.56.52,5.4,1.21,8,.11.44,0,.94.42,1.29,0,.13,0,.27,0,.4,0,.67,0,1.35,0,2l.79,2c.21.83-.55,2,.81,2.43a21.17,21.17,0,0,0,2.15,9.71c.48,1,.16,2.12.31,3.17-1.94-3.95-2.7-8.23-3.67-12.47a134.33,134.33,0,0,1-2.29-14.49C199.72,314.15,199.5,313.41,200.05,312.75Z"/><path class="cls-11" d="M205.82,341.91c1.52,1.92,1.8,4.28,2.33,6.55A12,12,0,0,1,205.82,341.91Z"/><path class="cls-11" d="M208.3,349.64c.86.24.61,1,.69,1.55A1.24,1.24,0,0,1,208.3,349.64Z"/><path class="cls-3" d="M221.53,397.85l-.13-.08.14.07Z"/><path class="cls-9" d="M228.79,195.25a.7.7,0,0,1-.21,1c-2.08,1.56-3.57,3.83-6,5-1.55.75-2.4,2.39-3.7,3.26-2.61,1.76-4.82,3.94-7.24,5.89a39.89,39.89,0,0,0-5,4.79,5.08,5.08,0,0,1-3.34,1.48,26,26,0,0,1,3.15-4.36c.73-.73.42-1.64.49-2.48q4.16-2.84,8.3-5.65C219.72,201.18,224,197.78,228.79,195.25Z"/><path class="cls-9" d="M183.81,233.32a1.8,1.8,0,0,1-.88,1.48c-2.46,2-4.43,4.57-7.46,5.84a2.83,2.83,0,0,0-1.24,1.25c-.56,1.13-1.51,1.18-2.53,1.17,1.44-2.53,4.09-3.74,6.2-5.52,1.27-1.08,2.48-2.24,3.78-3.29A2.75,2.75,0,0,1,183.81,233.32Z"/><path class="cls-9" d="M189.48,228.46a9.36,9.36,0,0,1-5.65,4.84C184.86,230.7,187.12,229.51,189.48,228.46Z"/><path class="cls-9" d="M87.42,312.76c-.13,1.08-1.47,1.36-1.62,2.43l-.83,0C84.88,313.44,85.68,312.62,87.42,312.76Z"/><path class="cls-9" d="M92.28,309.92l-1.62.4a2.16,2.16,0,0,1,1.62-1.61Z"/><path class="cls-9" d="M90.65,310.32v.82l-.83,0A.81.81,0,0,1,90.65,310.32Z"/><path class="cls-9" d="M190.33,227.67a.73.73,0,0,1-.83.77A.8.8,0,0,1,190.33,227.67Z"/><path class="cls-12" d="M148.6,263.73l.41-.4c1.89.72,1.17,2.34,1.14,3.63,0,1-1.13,1.17-1.85,1.15-1.18,0-2.8.85-3.35-1.14.12-1,1.09-.8,1.63-1.21C148.23,266.06,148.47,265,148.6,263.73Z"/><path class="cls-1" d="M422.51,395c-.73.31-1.11,1.21-2,1.21l-.4-.81.4-.81c.68,0,.72-.92,1.12-1C422.43,393.6,423.32,393.81,422.51,395Z"/><path class="cls-11" d="M427.76,389.75a2.54,2.54,0,0,1-2.82,1.61C425.23,389.69,426.43,389.61,427.76,389.75Z"/><path class="cls-1" d="M425.36,393a.8.8,0,0,1-.81.82A.75.75,0,0,1,425.36,393Z"/><path class="cls-12" d="M55,356.92q0,4.66,0,9.34a33.36,33.36,0,0,1-1.23-8.94c1.12-.83-.38-2.62,1.21-3.27l0,.44Z"/><path class="cls-6" d="M59.44,340.66a.94.94,0,0,1-.42.89c0-.15-.05-.3-.08-.44Z"/><path class="cls-3" d="M199.3,291.74c.55,0,1.25,0,1.06.76-.54,2.17.14,4.52-1.06,6.57-1.09-.38-1.18-1.52-1.54-2.34a5.46,5.46,0,0,0-1.37-1.82l.7-.83.13-.09.27-.27.1-.15a1.1,1.1,0,0,0,.89-1h0a.84.84,0,0,0,.82-.82Z"/><path class="cls-11" d="M197.09,294.08l-.7.83a2.21,2.21,0,0,1-.37-.08C196.11,294.19,196.6,294.14,197.09,294.08Z"/><path class="cls-3" d="M199.28,299.71c0,.59,0,1.18,0,1.78A1.2,1.2,0,0,1,199.28,299.71Z"/><path class="cls-3" d="M117.81,184.72c-.71-.57-1.81.07-2.42-.8,2.5-1.5,5.38-1.49,8.12-2,2.5-.47,5.26-.33,7.47-1.38s3.06,1,4.62,1.1l-.37.66C129.34,182.47,123.62,183.94,117.81,184.72Z"/><path class="cls-1" d="M143.6,183.16c1.12,0,2.41.13,2.17-1.67,2.24.41,4.23-1.23,6.48-.82v1.62h0c-1.71.28-3.93-.93-4.87,1.65l-.8,0a.71.71,0,0,0-1.19-.08A1.64,1.64,0,0,1,143.6,183.16Z"/><path class="cls-1" d="M158.74,184.69c1.48-1.63,3.39-.44,5.07-.75.83-.15,1.66,0,1.8,1.13Z"/><path class="cls-3" d="M115.37,183.91l-1.55,0C114.34,183.6,114.87,182.81,115.37,183.91Z"/><path class="cls-6" d="M145.39,183.84a.71.71,0,0,1,1.19.08Z"/><path class="cls-4" d="M259.21,417.71c-2.62-.17-5-1.39-7.48-2a.65.65,0,0,1-.47-.77c.09-.4.43-.45.77-.5l2.74-.43h0c.08.77.64.82,1.23.82C256.77,416.14,258.25,416.63,259.21,417.71Z"/><path class="cls-10" d="M256,414.86c-.59,0-1.15-.05-1.23-.82C255.35,414.05,255.89,414.14,256,414.86Z"/><path class="cls-4" d="M275.35,425.43c1.52-.11,2.58,1,3.86,1.5,3.59,1.45,7.13,3,10.85,4.13a3,3,0,0,1,1.57.83c-2.76.51-5.05-1.08-7.5-1.79a54.51,54.51,0,0,1-7.48-3.21A2.13,2.13,0,0,1,275.35,425.43Z"/><path class="cls-2" d="M365.37,129.63c.09,1-.48,1.58-1.27,2.4a3.74,3.74,0,0,0-2.58-2.63c.31-1,1.35-1.12,1.84-1.8C364,128.35,364.25,129.39,365.37,129.63Z"/><path class="cls-11" d="M352.41,116.66l-.58-.36.22-.22.36.58Z"/><path class="cls-2" d="M363,127.19c-.14-.27-.28-.53-.41-.8C362.67,126.66,362.81,126.92,363,127.19Z"/><path class="cls-4" d="M235.3,190c-.67,1.61-2.12,2.11-3.63,2.52.33-.88,1.87-1.19,1.21-2.54C233.69,189.29,234.5,189.62,235.3,190Z"/><path class="cls-4" d="M230.08,188c.24-.31.49-.32.73,0Z"/><path class="cls-8" d="M62.73,382.42l-.42-.4Z"/><path class="cls-12" d="M85.89,386.14c-.61-.19-1.39.27-1.84-.44-.08-.13.08-.54.25-.68.81-.63,1.81-1.24,2.76-.73a5.35,5.35,0,0,0,2.47.62C88.6,386.16,87.17,385.94,85.89,386.14Z"/><path class="cls-2" d="M94.72,384a.76.76,0,0,1,.86-.72A1.27,1.27,0,0,1,94.72,384Z"/><path class="cls-6" d="M259.37,254.16c-.13,3.17-1.49,6.07-2,9.16a104.73,104.73,0,0,0-.77,31.71A110.24,110.24,0,0,0,260,311.14a10.05,10.05,0,0,0,.44,4c-1.78-.23-1.68-1.78-2.05-3-.16-.49.18-1.25-.28-1.53-2.2-1.3-2.47-2.95-1.43-5.19.64-1.38-.24-2.84-.82-4-1.4-2.81-1.34-5.8-1.47-8.75-.06-1.28-.93-2.23-.88-3.46,1.15-.31.79-1.27.79-2,0-4.58,0-9.15,0-13.72,0-2.65.29-5.29.39-7.94,0-1.25,1.09-2,1.51-3,.34-.84.8-1.75.47-2.49-1.28-2.9.65-5.22,1.1-8.09C258.63,252.75,258.24,254.05,259.37,254.16Z"/><path class="cls-5" d="M260.48,315.18a10.05,10.05,0,0,1-.44-4c1.27,1.42,1.6,3.3,2.27,5a82.29,82.29,0,0,0,14.1,23.62,117.62,117.62,0,0,0,10.84,11,85.57,85.57,0,0,0,7,5.14,3,3,0,0,1,1.34,1.44h-.77c-2.38-.26-3.7-2.22-5.48-3.43-5.79-4-10.14-9.53-15.11-14.39-1.82-1.78-2.88-4.32-4.46-6.37-2-2.67-3.32-5.76-5.15-8.54-.71-1.08-.8-2.35-1.34-3.5a45.21,45.21,0,0,1-2.45-4.74c-.11-.28-.23-.55-.34-.83A2.45,2.45,0,0,0,260.48,315.18Z"/><path class="cls-6" d="M252.33,276.29c1.09,2.38,1.89,4.72.6,7.37-.48,1,.92,2,.65,3.2a11.29,11.29,0,0,0,0,2.4c-1.24.14-1.66-.42-1.64-1.64.05-3.64,0-7.28,0-10.92Z"/><path class="cls-2" d="M252.33,276.29l-.41.41a3,3,0,0,0-1.62-.41c0-1.67,0-3.35,0-5,0-.89.39-1.69,1.33-1.72,1.17,0,1.11,1,1.07,1.76C252.63,273,252.46,274.63,252.33,276.29Z"/><path class="cls-2" d="M250.3,276.29c0,3.78,0,7.55,0,11.32,0,.48.27,1.26-.47,1.34s-.73-.68-.71-1.2c.12-3.55.27-7.1.42-10.66C249.55,276.61,249.87,276.39,250.3,276.29Z"/><path class="cls-1" d="M359.7,367.45c1.56-1.61,3.59-1.89,5.67-2C363.76,366.87,361.73,367.15,359.7,367.45Z"/><path class="cls-6" d="M203.3,329c-1.36-.44-.6-1.6-.81-2.43C203.85,327,203.1,328.13,203.3,329Z"/><path class="cls-6" d="M201.7,324.5c0-.67,0-1.35,0-2C203,323.14,202.52,323.82,201.7,324.5Z"/><path class="cls-6" d="M420.08,395.41l.4.81c-.08.61-.47.92-.93.49C418.75,396,420,395.88,420.08,395.41Z"/><path class="cls-6" d="M260.52,315.56c.11.28.23.55.34.83-.24.07-.54.29-.71,0S260.22,315.75,260.52,315.56Z"/><path class="cls-1" d="M365.79,364.62q.19-.3.39,0Z"/><path class="cls-13" d="M392.17,284c-.93,6.24-2.15,12.4-4.86,18.17a21.21,21.21,0,0,0-.95,3.18c-.84.12-.88.91-1.19,1.46-6.33,11.31-15.1,19.91-27.41,24.54a5.25,5.25,0,0,1-.78.2c-.32-1-1-.23-1.21-.08-1.89,1.17-4.11.88-6.13,1.5-4.25,1.31-8.72.9-13.12.87-3.14,0-6.07-1.18-9-1.94s-5.49-2.15-8.22-3.27c-.45-.55-1.12-.4-1.7-.55a.66.66,0,0,0-.73-.63c-.83-1.27-2.41-1.45-3.48-2.45-1.59-1.48-3.92-2.34-5.22-3.88-2.06-2.44-4.31-4.73-6.27-7.29a67.56,67.56,0,0,1-8.55-15.49,34.11,34.11,0,0,1-1.85-7.72c-.76-4.57-1.58-9.1-1.43-13.75a46.76,46.76,0,0,1,.6-8.14c.52-2.52.5-5.16,1.64-7.58a4.46,4.46,0,0,0,.17-1.39c-.1-1,.68-1.64,1-2.47.64-1.79,1.32-3.58,2-5.37,1.45-3.85,4-7.08,6.49-10.18a51.82,51.82,0,0,1,13.74-11.94c2.73-1.64,5.74-2.31,8.56-3.55a44.37,44.37,0,0,1,15.33-3.43c3.05-.19,6.08.55,9.13.06,6.69.69,12.7,3.31,18.34,6.79a50.51,50.51,0,0,1,15.4,15.13c.89,1.15,1.08,2.77,2.47,3.57,1.38,2.17,2.16,4.62,3.31,6.9.31,1,.58,2,.94,3a45.49,45.49,0,0,1,3,14.28C392.22,276.31,392.16,280.13,392.17,284Z"/><path class="cls-3" d="M388.17,255.23c-1.15-2.28-1.93-4.73-3.31-6.9a4.3,4.3,0,0,0-1.57-3.63,93.85,93.85,0,0,0-7.38-13.81c-.33-1,.18-2.69-1.81-2.58l0-.08c.17-.39.28-.83,0-1.14-1.91-2-2.36-5.11-4.92-6.36-1-.49-1-2.59-2.74-1.65l-.07-.1c-.1-2.76-2.14-3.55-4.3-4.22l-.3-.28c.87-.47.86-1-.06-1.29a5.66,5.66,0,0,0-1.55-.09h0a1.58,1.58,0,0,0-2-1.61,112,112,0,0,0-15-9l-.45-.29h0c0-1.07.65-1.32,1.6-1.3a23.6,23.6,0,0,0,6.92-.75,29.82,29.82,0,0,1,8.95-.88c.71,0,1.69,0,1.76-.88s-.84-.66-1.41-.75-.63-.5-1-.66c-1.59-.78-3.14-1.7-5-1.75l-.44-.06c-.65-1.34-1.87-.49-2.81-.74l-3.66-.42-1.22-.13c0-1.06-.77-1.07-1.55-1.07H332.16c-.65,0-1.4-.14-1.63.78-1.49.1-2.94.66-4.47.41-1.14-.75-2.42-.22-3.63-.38,2.57-1.1,5.38-1.17,8.05-1.41a79.57,79.57,0,0,1,15.12,0,84.21,84.21,0,0,1,21.18,5.4A68.92,68.92,0,0,1,380.37,205l.38.36,0,0c-.06,1.19.73,1.24,1.6,1.18l0,0c.14,1.76,1.11,2.51,2.84,2.37a2.63,2.63,0,0,1,.39.06c-.24,1.59,1.33,1.69,2.08,2.4a95.5,95.5,0,0,1,10.93,12.25,1.63,1.63,0,0,0,1.55.71l0,0a2.09,2.09,0,0,0,1.59,2.4l0,0a3.23,3.23,0,0,0,2.38,3.22l.44.84c.12.13.24.26.37.38,0,.27,0,.53.07.8.43,1.45.91,2.87,2.37,3.66,0,.26,0,.53,0,.8A2.44,2.44,0,0,0,409.1,239c0,.26,0,.52.07.79.85,1.59.28,3.87,2.36,4.88,0,.26.05.53.07.8a9.76,9.76,0,0,0,.43,3.31,2.62,2.62,0,0,1-2.42,3.57,29.14,29.14,0,0,0-3.24,0c-4.48.67-9.23-1.78-13.52,1.17-.09.07-.26,0-.39,0-1.19.25-2.7-.23-3.21,1.54C389.15,255.5,388.56,255.47,388.17,255.23Z"/><path class="cls-14" d="M292.43,259.72a4.46,4.46,0,0,1-.17,1.39c-1.14,2.42-1.12,5.06-1.64,7.58a46.76,46.76,0,0,0-.6,8.14c-.15,4.65.67,9.18,1.43,13.75a34.11,34.11,0,0,0,1.85,7.72,67.56,67.56,0,0,0,8.55,15.49c2,2.56,4.21,4.85,6.27,7.29,1.3,1.54,3.63,2.4,5.22,3.88,1.07,1,2.65,1.18,3.48,2.44-.29,1-1.12.85-1.82.79-3.46-.31-6.92-.71-10.38-1-4-.33-8-.94-12-.9a48.22,48.22,0,0,1-10.54-7.73A54.62,54.62,0,0,1,273.37,308c-5.55-8.7-8-18.31-8.28-28.53a9.6,9.6,0,0,1,.2-1.59c6.84.09,13.69-.08,20.54.36,3.18.21,4.12-1,3.8-4.17-.11-1-.57-1.49-1.54-1.46-6.27.2-12.52-.36-18.79-.36-1.27,0-2.51.34-3.66-.45.05-.67.11-1.34.16-2,.75.14,1.54.7,2.15-.31a.59.59,0,0,1,.88-.18c1.23.89,2.68.64,3.92.42,5-.89,10-.3,15.07-.36,1.18,0,3,.39,1.66-1.91-.29-.5.91-.64.44-1.26-1.35-.26-1.12,1.65-2.38,1.56-2.9-.22-5.78.81-8.66.33-3.09-.5-6.18-.24-9.28-.32-2.63-.07-2.62,0-2.39-2.58,0-.22-.22-.46-.34-.69a21.09,21.09,0,0,1,1.54-5.34C276.42,259.25,284.42,259.91,292.43,259.72Z"/><path class="cls-15" d="M292.43,259.72c-8,.19-16-.47-24-.53a51.93,51.93,0,0,1,32.23-32.83,53.66,53.66,0,0,1,14.83-2.73c7.73-.42,15.46-1,23.19-1.45a32.29,32.29,0,0,1,10,.66c-3,.49-6.08-.25-9.13-.06a44.37,44.37,0,0,0-15.33,3.43c-2.82,1.24-5.83,1.91-8.56,3.55a51.82,51.82,0,0,0-13.74,11.94c-2.52,3.1-5,6.33-6.49,10.18-.67,1.79-1.35,3.58-2,5.37C293.11,258.08,292.33,258.75,292.43,259.72Z"/><path class="cls-15" d="M292.65,326.3c4,0,8,.57,12,.9,3.46.28,6.92.68,10.38,1,.7.06,1.53.22,1.82-.79.44,0,.65.24.73.65a1.26,1.26,0,0,0,1.7.54c2.73,1.12,5.38,2.55,8.22,3.27s5.91,1.91,9,1.94c4.4,0,8.87.44,13.12-.87,2-.62,4.24-.33,6.13-1.5.24-.15.89-1,1.21.08-4.31,2.17-9,2.62-13.71,2.94-4.54.32-9-.38-13.5-.9-7.71-.88-15.5-.93-23.15-2.19A40.2,40.2,0,0,1,292.65,326.3Z"/><path class="cls-15" d="M265.64,271.84c1.15.79,2.39.45,3.66.45,6.27,0,12.52.56,18.79.36,1,0,1.43.45,1.54,1.46.32,3.15-.62,4.38-3.8,4.17-6.85-.44-13.7-.27-20.54-.36A16,16,0,0,1,265.64,271.84Z"/><path class="cls-5" d="M346.75,356.58c-.48.89-.83,1.39.76,1.7,1.36.26,2.33,2,4.09,1.48.12.63.49.89,1.1.68.1,0,.22-.38.18-.43-.36-.36-.84-.2-1.28-.25.06-.57-.2-1.29.61-1.53.55-.17.81.22,1.11.63.53.72,1.43.66,2.19.84,2,.48,4.06.86,6.09,1.28,1.59.32,1.66,1.1.72,2.25-1.58,1.95-3.73,2.29-6.06,2.35-4.58.12-9.08-.87-13.63-1,.35-1.06,1.43-1.3,2.17-1.92,1.34-1.11,1.22-1.8-.32-2.62-.84-.45-2,0-2.63-1C343.45,358.17,344.88,356.93,346.75,356.58Z"/><path class="cls-4" d="M354.48,195.25c1.86.05,3.41,1,5,1.75.33.16.52.6,1,.66s1.47,0,1.41.75-1.05.9-1.76.88a29.82,29.82,0,0,0-8.95.88,23.6,23.6,0,0,1-6.92.75c-1,0-1.58.23-1.6,1.3a120.13,120.13,0,0,0-12.06-4.17c.71-1.36,2-1.09,3.18-1.11,6.78-.16,13.56-.29,20.34-.44.44,0,1.08.2,1.26-.33S354.65,195.68,354.48,195.25Z"/><path class="cls-8" d="M341.76,364.49c-8.51,3.1-17.17,4-26.05,1.71-.41-.1-.78-.17-.89-.65,5.74-.11,11.27-1.47,16.85-2.61,3.09.12,6.07,1.27,9.21.92A.72.72,0,0,1,341.76,364.49Z"/><path class="cls-7" d="M326.06,194c1.53.25,3-.31,4.47-.41a25.7,25.7,0,0,0,3.83-.08c4-.69,8-.21,12,.37l1.22.13a2.88,2.88,0,0,1-2.15,1.27c-4.46.23-8.94.35-13.37.89-1.78.22-3.71-.42-5.36.71-2,.23-3.88-.35-5.79-.61-1.53-.21-3.06-.07-4.57-.32a4.12,4.12,0,0,1,.72-.31A80.62,80.62,0,0,1,326.06,194Z"/><path class="cls-15" d="M266.87,264.53c.12.23.36.47.34.69-.23,2.57-.24,2.51,2.39,2.58,3.1.08,6.19-.18,9.28.32,2.88.48,5.76-.55,8.66-.33,1.26.09,1-1.82,2.38-1.56.47.62-.73.76-.44,1.26,1.33,2.3-.48,1.9-1.66,1.91-5,.06-10.05-.53-15.07.36-1.24.22-2.69.47-3.92-.42a.59.59,0,0,0-.88.18c-.61,1-1.4.45-2.15.31C266,268,265.89,266.17,266.87,264.53Z"/><path class="cls-10" d="M326.69,196.9c1.65-1.13,3.58-.49,5.36-.71,4.43-.54,8.91-.66,13.37-.89a2.88,2.88,0,0,0,2.15-1.27l3.66.42c.85.56,1.88.46,2.81.74l.44.06c.17.43,1.07.31.86.92s-.82.32-1.26.33c-6.78.15-13.56.28-20.34.44-1.16,0-2.47-.25-3.18,1.11C329.25,197.75,327.83,197.8,326.69,196.9Z"/><path class="cls-7" d="M341.76,364.49a.72.72,0,0,0-.88-.63c-3.14.35-6.12-.8-9.21-.92l10.18-3.89c.6,1,1.79.54,2.63,1,1.54.82,1.66,1.51.32,2.62-.74.62-1.82.86-2.17,1.92Z"/><path class="cls-11" d="M288.39,206.61c1.13.68,2.05.73,2.43-.82l.81-.4c1.49-.48,2.92-1,3.24-2.83h1.62l1.63-1.21.9,0c-1.48,1.86-3.55,3-5.39,4.41-.6.46-1.54.66-1.52,1.7h0c-.8-.17-1.32,0-1.28,1a.37.37,0,0,1-.31.2c-1.77-.57-2.85.95-3.52,1.84-1.42,1.85-3.5,2.7-5.07,4.23,0-.41,0-.82,0-1.23s0-.54,0-.81v-.4h.81c1.86-.49,2.42-2,2.83-3.64v-.4h1.63C288.92,208.69,288.16,207.28,288.39,206.61Z"/><path class="cls-8" d="M281.92,214.72c1.57-1.53,3.65-2.38,5.07-4.23.67-.89,1.75-2.41,3.52-1.84-.18.82-.89,1.17-1.47,1.6-6,4.46-10.91,10-15.43,15.9-.45.58-1,1.11-1.46,1.66l.06-1.74h0a.87.87,0,0,0,.85-.8,1.13,1.13,0,0,0,.36-.06c.53-.43.39-1,.41-1.59h0c.13-.27.27-.54.41-.8h0a1.31,1.31,0,0,0,.39-.05.75.75,0,0,0,.81-.78h0a2.17,2.17,0,0,0,1.65-2.41h0c.55,0,.78-.34.86-.82,1.11-.31,1.25-1.71,2.33-2.06.32-.38.87-.57.87-1.19h0a.8.8,0,0,0,.81-.82Z"/><path class="cls-4" d="M326.06,194a80.62,80.62,0,0,0-9,1.64,4.12,4.12,0,0,0-.72.31A92.48,92.48,0,0,0,303,201a1.75,1.75,0,0,1,1.16-1.52,92.21,92.21,0,0,1,16.66-5.83,7.83,7.83,0,0,1,1.61,0C323.64,193.8,324.92,193.27,326.06,194Z"/><path class="cls-11" d="M272.21,226.07l-.06,1.74q-3.6,6.06-7.19,12.14c.39-.5-1.82-1.5.32-1.65-1-1.7,2-2.71.75-4.47-.3-.41-.43-1.1.15-1.14,1.86-.14,2.33-1.89,3.45-2.85a8.92,8.92,0,0,0,1.74-3.05C271.57,226.38,271.76,226.12,272.21,226.07Z"/><path class="cls-4" d="M366.38,219.08c1.74-.94,1.75,1.16,2.74,1.65,2.56,1.25,3,4.41,4.92,6.36.31.31.2.75,0,1.14Z"/><path class="cls-10" d="M383.29,244.7a4.3,4.3,0,0,1,1.57,3.63c-1.39-.8-1.58-2.42-2.47-3.57Z"/><path class="cls-4" d="M362,214.76c2.16.67,4.2,1.46,4.3,4.22Z"/><path class="cls-4" d="M360.1,213.1a5.66,5.66,0,0,1,1.55.09c.92.32.93.82.06,1.29A3.11,3.11,0,0,1,360.1,213.1Z"/><path class="cls-4" d="M374.1,228.31c2-.11,1.48,1.53,1.81,2.58A9.31,9.31,0,0,1,374.1,228.31Z"/><path class="cls-4" d="M358.06,211.49a1.58,1.58,0,0,1,2,1.61A5.73,5.73,0,0,1,358.06,211.49Z"/><path class="cls-8" d="M290.82,208.45c0-.94.48-1.15,1.28-1C291.78,207.94,291.5,208.45,290.82,208.45Z"/><path class="cls-4" d="M342.62,202.21l.45.29Z"/><path class="cls-4" d="M388.17,255.23c.39.24,1,.27,1.08-.08.51-1.77,2-1.29,3.21-1.54.13,0,.3,0,.39,0,4.29-3,9-.5,13.52-1.17a29.14,29.14,0,0,1,3.24,0,2.62,2.62,0,0,0,2.42-3.57,9.76,9.76,0,0,1-.43-3.31c1,0,.5,1.54,1.49,1.63l.09.86a9.13,9.13,0,0,0,1.54,4.37c0,.17,0,.34.07.51.12.69-.31,1.58.69,2,.88,5,2,10,2.36,15.06a49.81,49.81,0,0,1-.16,12.44l.32.42,0,1.25-.3.4c0,.42-.05.88.39,1.17v1.23l-.33.39c0,.29,0,.57,0,.86l-.49,0c-1.45-1.39-.83-3.2-.76-4.78.09-2.05-.53-2.67-2.6-2.61-4.28.12-8.55.57-12.85.1-1.36-.15-3-.18-3.51,1.72-.88-.27-.22-1.25-.95-1.49-.75.21-.1,1.18-.79,1.46-1.25-.23-1.07-1.49-1.65-2.55-.64,1.52-.24,3.35-2,4,0-3.83.05-7.65-.05-11.47a45.49,45.49,0,0,0-3-14.28C388.75,257.23,388.48,256.22,388.17,255.23Z"/><path class="cls-1" d="M407.52,320.88a.79.79,0,0,1-.77.79A.7.7,0,0,1,407.52,320.88Z"/><path class="cls-1" d="M410,314.85c-.12.24-.23.48-.35.71A.61.61,0,0,1,410,314.85Z"/><path class="cls-1" d="M406.71,322.1c-.13.26-.26.52-.4.78A.78.78,0,0,1,406.71,322.1Z"/><path class="cls-1" d="M409.55,316.05l-.36.76A.66.66,0,0,1,409.55,316.05Z"/><path class="cls-1" d="M409.15,316.87l-.35.74A.66.66,0,0,1,409.15,316.87Z"/><path class="cls-1" d="M405.9,323.69l-.42.41Z"/><path class="cls-4" d="M400.2,224.42a1.63,1.63,0,0,1-1.55-.71,95.5,95.5,0,0,0-10.93-12.25c-.75-.71-2.32-.81-2.08-2.4,1.75.52,2.8,2,4.07,3.14A84.67,84.67,0,0,1,400,223.67,2,2,0,0,1,400.2,224.42Z"/><path class="cls-11" d="M298.52,199.31c1.08-1.07,3.43-1.47,4.12-.7-.12,1.55-.79,2.51-2.5,2.34C301.39,198.64,299.45,199.47,298.52,199.31Z"/><path class="cls-6" d="M298.52,199.31c.93.16,2.87-.67,1.62,1.64l-1.13.42-.89,0C297,200.4,297.63,199.83,298.52,199.31Z"/><path class="cls-4" d="M411.53,244.7c-2.08-1-1.51-3.29-2.36-4.88C411,241,410.94,243,411.53,244.7Z"/><path class="cls-4" d="M385.25,209c-1.73.14-2.7-.61-2.84-2.37A5.15,5.15,0,0,1,385.25,209Z"/><path class="cls-4" d="M407.49,235.78c-1.46-.79-1.94-2.21-2.37-3.66C406.59,232.9,407.06,234.32,407.49,235.78Z"/><path class="cls-4" d="M404.24,230.1a3.23,3.23,0,0,1-2.38-3.22A6.39,6.39,0,0,1,404.24,230.1Z"/><path class="cls-4" d="M409.1,239a2.44,2.44,0,0,1-1.57-2.45A2.37,2.37,0,0,1,409.1,239Z"/><path class="cls-4" d="M401.82,226.85a2.09,2.09,0,0,1-1.59-2.4C401.43,224.8,401.54,225.89,401.82,226.85Z"/><path class="cls-4" d="M382.37,206.59c-.87.06-1.66,0-1.6-1.18A1.86,1.86,0,0,1,382.37,206.59Z"/><path class="cls-11" d="M302.88,198.56l1.41-.42C303.94,198.69,303.75,199.75,302.88,198.56Z"/><path class="cls-4" d="M380.75,205.39l-.38-.36Z"/><path class="cls-4" d="M405.05,231.32c-.13-.12-.25-.25-.37-.38C404.8,231.07,404.92,231.2,405.05,231.32Z"/><path class="cls-8" d="M415.48,254.84c-1-.39-.57-1.28-.69-2l.83.74C415.57,254,415.53,254.43,415.48,254.84Z"/><path class="cls-6" d="M418.06,285.58c-.44-.29-.36-.75-.39-1.17l.38.08Z"/><path class="cls-8" d="M418,282.76l-.32-.42Z"/><path class="cls-8" d="M418.05,284.49l-.38-.08.3-.4C418,284.17,418,284.33,418.05,284.49Z"/><path class="cls-6" d="M417.72,287.2l.33-.39Z"/><path class="cls-12" d="M91.51,382.89a5.74,5.74,0,0,1-3.75,0A4.23,4.23,0,0,1,91.51,382.89Z"/><path class="cls-2" d="M55,356.92v-2.43Q56.84,355.71,55,356.92Z"/><path class="cls-2" d="M148.6,263.73c-.13,1.22-.37,2.33-2,2A6.52,6.52,0,0,1,148.6,263.73Z"/><path class="cls-6" d="M307.84,194.05c.71-.57,1.31-.65,1.62.4-.09.51-.36.82-.91.75C307.84,195.12,307.87,194.56,307.84,194.05Z"/><path class="cls-2" d="M273.81,222.82c-.4-.9-.85-1.78-1.16-2.7a1.19,1.19,0,0,1,.39-1.44c.58-.38.78.25,1.09.53a1.85,1.85,0,0,0,1.3.36V222h-.81a.91.91,0,0,0-.39.83h0Z"/><path class="cls-1" d="M152.27,180.39a12.28,12.28,0,0,1,6.11-.18C156.38,180.92,154.29,180.53,152.27,180.39Z"/><path class="cls-1" d="M152.25,182.29h6.13c-1.69,1.18-5.1,1-6.13,0Z"/><path class="cls-1" d="M180.54,147.66a1.44,1.44,0,0,1-1.29,1.31c-.65.06-1-.4-1-1a1.09,1.09,0,0,1,1.2-1.28A1,1,0,0,1,180.54,147.66Z"/><path class="cls-1" d="M159.94,172.61c.63,0,1.12.3,1.12.93a1.3,1.3,0,0,1-1.24,1.35c-.76.07-1.06-.48-1-1.17A1.08,1.08,0,0,1,159.94,172.61Z"/><path class="cls-11" d="M275.43,222v-2.44l.81-.4.84.43A2.17,2.17,0,0,1,275.43,222Z"/><path class="cls-11" d="M198.48,292.53a1.1,1.1,0,0,1-.89,1C197.64,293,197.77,292.53,198.48,292.53Z"/><path class="cls-11" d="M199.29,291.72a.84.84,0,0,1-.82.82A.74.74,0,0,1,199.29,291.72Z"/><path class="cls-11" d="M273.82,223.63c0,.56.12,1.16-.41,1.59C273.43,224.66,273.27,224.05,273.82,223.63Z"/><path class="cls-11" d="M273.05,225.28a.87.87,0,0,1-.85.8A.74.74,0,0,1,273.05,225.28Z"/><path class="cls-11" d="M273.81,222.82l.42,0c-.14.26-.28.53-.41.8C273.81,223.36,273.81,223.09,273.81,222.82Z"/><path class="cls-11" d="M197.49,293.72l-.27.27A3.44,3.44,0,0,1,197.49,293.72Z"/><path class="cls-6" d="M285.55,208.23v.4a2.56,2.56,0,0,1-2.35-2.43c0-.49-.06-1,.53-1.12a1,1,0,0,1,1.2.47A4.89,4.89,0,0,1,285.55,208.23Z"/><path class="cls-6" d="M276.23,216.48c0-.74,0-1.68,1-1.61.82,0,.58.92.59,1.48,0,.76-.12,1.68-1,1.64C276.06,218,276.3,217.05,276.23,216.48Z"/><path class="cls-6" d="M281.91,212.68c0,.27,0,.54,0,.81l-1,.26c-.59.14-1.21.34-1.66-.22a.83.83,0,0,1,.05-.73c.4-.6,1-.55,1.61-.37Z"/><path class="cls-6" d="M288.39,206.61c-.23.67.53,2.08-1.21,1.62-.07-.5-.33-1.1-.15-1.48S287.79,205.15,288.39,206.61Z"/><path class="cls-6" d="M296.49,202.55h-1.62c-.55-.88-.05-1.44.71-1.53C296.69,200.91,296.43,201.89,296.49,202.55Z"/><path class="cls-11" d="M281.12,215.53c0,.62-.55.81-.87,1.19l-.78-.22a.85.85,0,0,1-.64-1.08c.28-.82.71-.08,1.09,0S280.72,215.5,281.12,215.53Z"/><path class="cls-6" d="M282.72,212.27h-.81c.07-.58-.19-1.21.38-1.82C283,211,282.63,211.68,282.72,212.27Z"/><path class="cls-6" d="M291.63,205.39l-.81.4c-.3-.07-.77-.21-.5-.54S291.23,205,291.63,205.39Z"/><path class="cls-11" d="M281.92,214.72a.8.8,0,0,1-.81.82A.77.77,0,0,1,281.92,214.72Z"/><path class="cls-11" d="M277.92,218.78c-.08.48-.31.82-.86.82A1.22,1.22,0,0,1,277.92,218.78Z"/><path class="cls-14" d="M319.25,328.59a1.26,1.26,0,0,1-1.7-.54C318.13,328.19,318.8,328,319.25,328.59Z"/><path class="cls-4" d="M346.35,193.9c-4-.58-8-1.06-12-.37a25.7,25.7,0,0,1-3.83.08c.23-.92,1-.78,1.63-.78H344.8C345.58,192.83,346.32,192.84,346.35,193.9Z"/><path class="cls-4" d="M354,195.19c-.93-.28-2-.18-2.81-.74C352.17,194.7,353.39,193.85,354,195.19Z"/><path class="cls-9" d="M351.6,359.76c.44.05.92-.11,1.28.25,0,.05-.08.4-.18.43-.61.21-1-.05-1.1-.68Z"/><path class="cls-11" d="M274.62,222h.81a.75.75,0,0,1-.81.78Z"/><path class="cls-6" d="M274.62,222v.78a1.31,1.31,0,0,1-.39.05A.91.91,0,0,1,274.62,222Z"/></svg>