<svg id="Layer_1" data-name="Layer 1" xmlns="http://www.w3.org/2000/svg" viewBox="0 0 310.08 371.87"><defs><style>.cls-1{fill:#ed4323;}.cls-2{fill:#ec2f02;}</style></defs><path class="cls-1" d="M405,304.69q0,10.8.05,21.61C400.61,365,378.56,392,347.5,412.91c-14.69,9.86-30.4,17.86-48,21.5,4.32-4.71,10.37-6.92,15.3-10.79,23.24-18.29,33.82-41.53,26.92-70.94-4.71-20.07-17.39-35.26-32.82-48.26s-33.08-22.56-50-33.27c-9-5.71-17.9-11.59-25-19.7-6.6-7.48-11.11-15.72-9.21-26.35-17.19,10.62-22.84,36.88-12.33,56.1,4.42,8.09,10.34,15,16.47,21.83,6.56,7.29,10.44,15.78,9.25,25.68-1.63,13.65-12.58,21.7-27.16,20.67a24.43,24.43,0,0,1-22.8-24.09c0-4,.73-8,1.2-12.81-4.36,1.83-7.37,5.09-10.48,8-14.44,13.55-25.07,29.28-27.18,49.58-2.75,26.46,10.48,44.94,30.15,60.25,1.89,1.47,5.94,1.47,5,5.61-18.73-6.52-36.67-14.48-52-27.46q-35.41-30-39.79-76.08,0-11.56.07-23.12c4-37.46,21.34-68.74,45-97.08,16.13-19.34,34.42-36.53,53.28-53.16,14.09-12.42,28.24-24.82,38.87-40.53a115.91,115.91,0,0,0,7.71-13.08c6.55-13.08,9.21-26.62,3.25-41.35C276.7,87.78,290,125.76,278.79,164.16c-2.26,7.74-4.39,15.52-6.58,23.28a33.5,33.5,0,0,0,0,16.73c2.4,6.08,4.63,12.23,9.13,17.23,13.05,14.49,37.54,10.21,44.59-7.61,1.29-3.25.14-6.34,1-10.19C367.76,226.31,398.32,256.2,405,304.69Z" transform="translate(-94.96 -64.07)"/><path class="cls-2" d="M272.2,204.17a18.63,18.63,0,0,1,0-16.73Q272.21,195.81,272.2,204.17Z" transform="translate(-94.96 -64.07)"/></svg>