<svg id="Layer_1" data-name="Layer 1" xmlns="http://www.w3.org/2000/svg" viewBox="0 0 500 500"><defs><style>.cls-1{fill:#3799d5;}.cls-2{fill:#fcfdfe;}</style></defs><rect class="cls-1" width="500" height="500"/><path class="cls-2" d="M250.29,142.61c39.42,0,78.84.13,118.25-.13,6.54,0,9,1,8.29,8.42-3.9,38.68-7.27,77.41-10.78,116.13q-4,43.56-7.81,87.14c-1.28,14.22-2.67,28.42-3.76,42.65-.27,3.5-2,4.5-5,5.29q-48.09,12.76-96.1,25.78a14.7,14.7,0,0,1-8-.35c-30.83-8.33-61.6-16.89-92.52-24.84-5.6-1.44-6.88-3.6-7.36-9.07-3.24-37.53-7.1-75-10.55-112.52-2.74-29.64-5.17-59.31-7.76-89-1.22-13.92-2.11-27.88-3.94-41.72-.94-7.12,1.88-8,7.9-7.93C170.84,142.71,210.56,142.61,250.29,142.61ZM250,225.2c-.21,2.93-2,2.94-3.3,3.5-17.1,7.2-34.15,14.52-51.31,21.57-20,8.21-19.64,8.07-17.68,30,.67,7.41,2.82,9.45,10.26,9.35,30.84-.45,61.69,0,92.54-.33,6.44-.07,8.67,1.7,8,8.15-1,9.05-1.21,18.18-1.91,27.26-.18,2.31.15,5.44-2.85,6.13-14.44,3.36-27.67,13.42-43.82,7.49a119.76,119.76,0,0,0-18.46-5c-4.57-.89-6.19-2.67-7-7.53-1-6.14,2-14.75-3.1-17.88-4.69-2.89-12.45-.81-18.86-.91a38.67,38.67,0,0,1-4.57,0c-5.59-.79-6.67,2.05-6.26,6.88,1,11.5,1.73,23,2.5,34.53.31,4.7,1.94,7.39,7.22,8.79,17.61,4.68,35,10.11,52.48,15.36a21.89,21.89,0,0,0,12.55-.06c17.85-4.94,35.72-9.82,53.57-14.78,3.19-.89,5.95-1.61,6.3-6.29,2.15-28.47,4.63-56.92,7.24-85.36.56-6.12-.7-8.46-7.66-8.27-20.75.54-41.51.19-62.27.19,17.43-8.83,34.91-16.47,52.61-23.55,21.35-8.53,21.22-8.34,22.82-31.18.51-7.14-1.54-9.24-8.9-9.18-45.81.34-91.62.17-137.44.17-14,0-14,0-11.88,13.47.52,3.29,1.76,6.62,1.53,9.86-.61,8.86,4.47,9.39,11.35,9.11C205.73,225.75,227.83,227,250,225.2Z"/><path class="cls-2" d="M255.34,91c3.39,2.91,6.61,6.06,10.22,8.68,6.14,4.47,4.41,10.8,4.36,16.7,0,3.72-3.17,3-5.44,3-10,.14-20,0-30.05.33-2.62.08-4.68-.23-4-3,1.08-4.15-3.95-10.55,3.33-12.29,9.45-2.26,7.34-6.66,1.91-10.22-7.64-5-5.11-12-5.2-18.59-.06-3.88,3.18-3.79,6-3.79,9.16,0,18.34.38,27.47-.13,6.86-.39,6.44,3.66,6.15,8.07-.27,4.17,1.9,9.89-6,9.31-2.42-.18-4.86,0-7.28,0Z"/><path class="cls-2" d="M174.12,96c0-6.07.15-12.14-.05-18.2-.14-4,.66-6.19,5.42-6,9.43.3,18.88.41,28.3,0,7.39-.33,5.66,4.76,5.61,8.55s2.19,9.23-5.26,8.81c-3-.17-6.13.33-9.12-.09-6.77-1-8,2.22-7.93,8.27.07,5.43,1.3,8,7.1,7.14,2.38-.34,4.9.23,7.28-.12,6.3-.92,8.32,1.25,8.21,7.82-.11,6.19-2,7.78-7.89,7.45-8.44-.48-16.94-.32-25.4,0-4.78.17-6.55-1.57-6.33-6.28C174.33,107.53,174.12,101.75,174.12,96Z"/><path class="cls-2" d="M310.41,91c3.44,2.89,6.61,6.19,10.37,8.57,6.08,3.86,5.36,9.57,5.22,15.32-.09,3.33-1.35,4.79-5,4.7-9.68-.22-19.38-.29-29.06,0-6.65.2-5.05-4.29-5.21-8-.19-4.08-.59-8.18,5.74-7.32,2.55.34,5.18,0,9-2.06-2.54-2-5-4.06-7.63-6-6-4.32-7.75-10.06-7.34-17.35.28-5,1.4-7.05,6.68-6.83a230.51,230.51,0,0,0,24.66,0c6.91-.45,7.85,2.73,8,8.6.13,6.41-2,9-8.36,8.08a40.42,40.42,0,0,0-5.28,0Z"/></svg>