<svg id="Layer_1" data-name="Layer 1" xmlns="http://www.w3.org/2000/svg" viewBox="0 0 500 500"><defs><style>.cls-1{fill:#30a6fb;}.cls-2{fill:#ed6000;}.cls-3{fill:#01a9d7;}.cls-4{fill:#023e52;}</style></defs><path class="cls-1" d="M142,138c-7.43-.74-9.53-6.21-9.73-12.24-.37-11.67-.31-23.38.09-35,.33-9.63,5.37-14.3,14.94-14.31q114.36-.15,228.71-.14c9.76,0,14,4.15,14.14,13.83.22,11.94.27,23.89.08,35.82-.1,6.29-2,11.67-9.69,12.12-27.34-.1-54.68-.29-82-.28Q220.3,137.79,142,138Z"/><path class="cls-1" d="M378.61,213.22c8.64,1.79,11.3,4.69,11.43,13.3.17,11.44.35,22.9,0,34.33-.16,5,.65,6.9,6.28,7.18,9.5.46,19.16.9,29.44,4.29-5.41,4-10.81,3.84-15.78,4.28-65.43,5.86-131,5-196.61,4.5-32.52-.22-65-1.19-97.43-4.34-5.49-.54-11-.92-17.44-3.79,9.76-4.5,19.2-3.89,28.23-4.93,4.61-.54,6.06-1.16,5.75-6.35-.67-11.15-.39-22.38,0-33.56.22-7.33,2.58-13.55,11.31-14.54,30.23.12,60.46.48,90.69.18a31.56,31.56,0,0,1,20.85,6.88c17.33,13.28,35.09,26,52.78,38.79,1.69,1.22,3.4,4.08,5.76,2.64,2.1-1.29.86-4.21.91-6.38.14-6.1.54-12.25-.07-18.28-.75-7.25,1.31-10.83,9.16-10.48,3.45.15,6.95-1.4,10.46-1.66C349.82,224.1,362.63,212.83,378.61,213.22Z"/><path class="cls-2" d="M378.61,213.22c-16-.39-28.79,10.88-44.36,12.06-3.51.26-7,1.81-10.46,1.66-7.85-.35-9.91,3.23-9.16,10.48.61,6,.21,12.18.07,18.28-.05,2.17,1.19,5.09-.91,6.38-2.36,1.44-4.07-1.42-5.76-2.64-17.69-12.8-35.45-25.51-52.78-38.79a31.56,31.56,0,0,0-20.85-6.88c-30.23.3-60.46-.06-90.69-.18,0-2.19,0-4.39,0-6.58,29.81.74,59.61,1,89.61-.72-1-3.78-4.94-4-6.59-7.26l71.31-52.75-.91-2.17h-153c0-2.26.18-4.61-2.09-6.1q78.27-.13,156.52-.25c27.34,0,54.68.18,82,.28-1.79,1.59-1.81,3.73-1.84,5.87l-43.51.33c-21.27.16-21.12.16-20.59,21.4.11,4.77,1.67,6,6.23,5.92,14.83-.35,29.42-2.31,43.36-7.35,8.63-3.12,17.95-5.69,23.26-14.4C399.74,143.17,403.4,131.55,405,119a58.82,58.82,0,0,0-.24-14.74c5.44,6,7.12,13.41,8,21,2.86,25.14-3.11,47.83-19.51,67.46-1.3,1.56-2.37,3.3-3.55,5-4.63,1.82-7.69,5.39-10.4,9.35l-1,1.82,0-.09Z"/><path class="cls-1" d="M144.13,144.11h153l.91,2.17L226.74,199c1.65,3.22,5.56,3.48,6.59,7.26-30,1.72-59.8,1.46-89.61.72-7.6-.19-9.73-5.93-11.86-11.68l-.12-10.4q.27-11.81.54-23.61C132.47,153,135.3,146.49,144.13,144.11Z"/><path class="cls-2" d="M131.74,184.93l.12,10.4q-29.39,32.41-58.78,64.84C60,274.66,47,289.24,33.77,303.66c-2.56,2.81-3.43,4.73-.55,8.2,21.24,25.58,42.23,51.37,63.33,77.07a22.31,22.31,0,0,0,2.84,2.45c0,3.76-.07,7.53-.11,11.29q-31.09-37.59-62.19-75.2c-3.24-3.92-6-8.38-9.73-11.72-6.64-5.92-4.95-10.15.49-16.12C61.61,262.63,95,225.26,128.46,188,129.46,186.91,130.64,186,131.74,184.93Z"/><path class="cls-2" d="M264.45,334.77a53.2,53.2,0,0,1,20.2,2.52c8.12,2.82,14.41,7.67,17.16,15.92,9.29,27.88-4.27,52.67-34.75,53.06-19.57.26-19.57.16-19.57-19.64,0-14.72.35-29.44-.16-44.14-.22-6.42,1.66-8.74,8-7.78C257.77,335.09,260.36,334.77,264.45,334.77Zm-8,35.46c0,7.6,0,15.21,0,22.81,0,2.27-.26,4.85,3.18,4.81,6.56-.08,13.21.77,19.56-1.63,12.89-4.87,18-15.53,15.89-33.19-1.36-11.59-8.93-18.39-22.25-19.79-3.52-.37-7.1-.12-10.62-.51-4.91-.54-6,1.8-5.85,6.21C256.66,356,256.45,363.13,256.46,370.23Z"/><path class="cls-1" d="M387.49,149.81c-5.31,8.71-14.63,11.28-23.26,14.4-13.94,5-28.53,7-43.36,7.35-4.56.11-6.12-1.15-6.23-5.92-.53-21.24-.68-21.24,20.59-21.4l43.51-.33C381.66,145.86,385.89,145.88,387.49,149.81Z"/><path class="cls-2" d="M362.42,406.23c-3.73.74-5.16-1.32-6.43-4.63-5.77-15.08-5.88-15-22.18-15h-1.53c-12.28,0-12.27,0-16.31,11.92-.57,1.68-1.45,3.25-2,4.92-1.59,4.68-5.68,3.33-8.29,2.51-3.33-1.05-.64-3.83,0-5.67,7.64-20.14,15.39-40.23,23.07-60.35,1.12-2.94,2.13-5.39,6.23-5.25,3.53.12,5.23,1,6.56,4.55,7.74,20.61,15.81,41.1,23.82,61.62C366.58,403.88,368.15,406.94,362.42,406.23Zm-26-57.27-1.95-.76c-2.76,7.2-5.56,14.39-8.26,21.6-3.36,9-3.33,9,6,9,3.56,0,7.12-.12,10.67,0s4.58-.84,3.17-4.39C342.67,366,339.58,357.47,336.39,349Z"/><path class="cls-1" d="M195.82,365.33c3.4.7,3.65-2.75,5.22-4.24,7.45-7.09,19.17-9.31,28.12-4.88,7.43,3.68,12.23,14.53,11.28,24.1-.34,3.48-2.1,3.35-4.49,3.34-8.62,0-17.26.14-25.88-.07-4.14-.1-4.66,1.47-3.64,5,2.34,8.2,12,11.83,23.07,8.36a47.93,47.93,0,0,0,5.45-2.45c2.39,8.34,1.22,10.31-6.91,11.94-25.57,5.1-40.14-11.41-32.42-36.6.42-1.36,2.52-3,.35-4.67Zm32.69,10.41c.21-6.08-1.62-10.63-7.48-12s-10.5.78-13.41,6.16c-1.91,3.54-2.35,6.19,3.27,5.89S222,375.74,228.51,375.74Z"/><path class="cls-1" d="M99.28,402.67c0-3.76.08-7.53.11-11.29.08-16.77.33-33.54.12-50.31-.06-4.8,1-6.69,6.19-6.43,8.88.44,17.79.24,26.68.07,3.71-.08,6,.05,6.05,5,0,5.19-2.2,5.81-6.42,5.55-4.81-.29-9.67.17-14.48-.13-4.35-.28-6.2.66-6.21,5.7-.06,15.74-.31,15.73,15.3,15.74.77,0,1.53-.05,2.29,0,3.42.26,7.71-1.67,7.58,5-.12,6.22-4.07,4.47-7.23,4.59-4.31.17-8.64,0-13,0-2,0-4.19-.34-5,2.27a88.23,88.23,0,0,0,0,24c-.07,1.21-.13,2.42-.2,3.63l-8.63.44C99.93,406.48,99.51,404.66,99.28,402.67Z"/><path class="cls-2" d="M405.51,333.52c2.15.29,5.94.73,9.7,1.36,4.81.81,5.47,4.5,4.37,8.09-1.34,4.36-4.31.64-6,.14-12.25-3.51-23.31-2.32-31.94,7.83-7.56,8.88-8.68,25.7-3,36C384.74,398,397.41,402,412,398c2.23-.6,5.69-5,7.56-.35,2.07,5.22-2.27,7.34-6.43,8.15-14.19,2.76-27.91,3.06-38.58-9.18-9.28-10.65-11.32-29.42-4.65-43.1C376.24,340.42,388.64,333.11,405.51,333.52Z"/><path class="cls-2" d="M474.16,163.85c-.92,1.3-2,3-3.24,4.57q-30.46,37.19-61,74.29c-1.28,1.56-2.49,5.13-5,2.82-2.18-2,.95-3.93,2.23-5.49,19.44-23.86,38.77-47.8,58.6-71.32,4-4.78,3-7.3-.55-11.24q-34.35-37.83-68.4-75.94c-.68-.76-1.47-1.43-2.07-2.24-1.13-1.53-3.6-3.25-1.2-5,1.82-1.36,3,1.19,4.1,2.39q21.5,23.76,42.87,47.62,15.29,17,30.53,34.09C472.3,159.82,474.15,161,474.16,163.85Z"/><path class="cls-1" d="M196,365.18c-14.74-.78-18.5,2.79-18.52,17.56,0,6.36-.28,12.74.08,19.08.27,4.81-2.5,4.66-5.74,4.49s-6.7,1.11-6.58-4.51c.29-13.48.17-27,0-40.45,0-3.68,0-6.39,5-6.11,4.28.23,8.58-.53,7.16,6.09,2.8-.27,3-2.87,4.49-4.05,3.2-2.47,6.89-3.81,10.69-2.68,4.07,1.21,1.67,5.19,2.37,7.88.25,1,.54,1.9.82,2.85Z"/><path class="cls-1" d="M156.06,380.23c0,7.13-.26,14.27.09,21.38.22,4.53-2,4.94-5.54,4.73-3.24-.2-6.62.8-6.52-4.67.28-14,.24-28,0-42-.08-5,3-4.31,6.06-4.32s6.22-.82,6,4.26C155.81,366.48,156.06,373.36,156.06,380.23Z"/><path class="cls-2" d="M102.45,406.63l8.63-.44q15.75,19.47,31.5,39c1.85,2.29,5,5,1.8,7.75-3.45,3-5.3-1.09-7.07-3.25C125.63,435.36,114.06,421,102.45,406.63Z"/><path class="cls-1" d="M150.28,331.31c4.82.22,7.12,2.74,7.16,6.77,0,4.24-3,6.64-6.84,6.54-4-.11-7.29-2.07-6.9-7.15C144,333,146.9,331.59,150.28,331.31Z"/><path class="cls-1" d="M379.24,206.93c2.71-4,5.77-7.53,10.4-9.35C388.77,203.58,384.81,206.15,379.24,206.93Z"/><path class="cls-3" d="M111.28,402.56a88.23,88.23,0,0,1,0-24A145.94,145.94,0,0,1,111.28,402.56Z"/><path class="cls-4" d="M378.31,208.66l0,.09Z"/></svg>