<svg id="Layer_1" data-name="Layer 1" xmlns="http://www.w3.org/2000/svg" viewBox="0 0 500 500"><defs><style>.cls-1{fill:#e34d25;}.cls-2{fill:#fefefe;}</style></defs><rect class="cls-1" width="500" height="500"/><path class="cls-2" d="M250,136.54q61.45,0,122.9-.06c3.16,0,4,.45,3.68,4-1.79,17.64-3.12,35.33-4.7,53-1.5,16.94-3.16,33.88-4.67,50.82-1.34,15.08-2.52,30.17-3.87,45.24-1.31,14.6-2.78,29.19-4.09,43.79-1.08,11.89-2,23.79-3,35.69-.7,8.13-1.46,16.24-2.09,24.37-.13,1.73-1.23,2.22-2.48,2.56q-49.41,13.65-98.83,27.3a11.55,11.55,0,0,1-6.54-.11c-20.49-5.75-41-11.39-61.51-17.09-11.88-3.3-23.73-6.67-35.62-9.9-2.25-.61-3-1.52-3.2-4-.83-12.26-2-24.51-3.09-36.75-1-11.66-2.16-23.31-3.21-35-1.13-12.48-2.21-25-3.32-37.44q-1.91-21.37-3.81-42.74c-1.36-15.07-2.77-30.14-4.1-45.21-1.28-14.6-2.49-29.21-3.74-43.82a106.93,106.93,0,0,0-1.15-11.64c-.6-3,.6-3.07,2.87-3.07q35.44.08,70.89,0Zm-.17,52.22q-38.3,0-76.59,0c-2.3,0-3.52-.1-3.13,3.15,1.29,10.68,2,21.42,3,32.13,1.74,19.32,3.54,38.62,5.23,57.94.24,2.76,1,3.86,4.19,3.85,34.43-.16,68.87-.08,103.31-.15,2.18,0,3,.21,2.78,2.8-1.13,11.89-2.06,23.8-2.92,35.71-.14,2-1.36,2.24-2.72,2.64-9.16,2.64-18.29,5.37-27.49,7.84-2.71.73-5.3,1.78-8.51.77-9.89-3.12-19.95-5.7-29.95-8.48-1.72-.48-2.55-1.2-2.69-3.34-.44-6.72-1.4-13.4-2-20.11-.16-1.79-.94-2.13-2.48-2.13q-13.89.06-27.79,0c-1.54,0-2.13.45-1.92,2,.16,1.16.06,2.37.18,3.54,1.37,13.53,3,27,4,40.58.26,3.52,1.59,4.46,4.56,5.24,18.12,4.74,36.19,9.7,54.3,14.48,2.78.73,5.54,2.36,8.53,1.55C272.18,363.2,292.59,357.54,313,352a2.15,2.15,0,0,0,1.94-2.35c.55-6.83,1.21-13.65,1.79-20.49q1.8-21.54,3.56-43.1c.81-10,1.57-20,2.43-30.06.19-2.18-.25-2.92-2.75-2.91q-53.79.16-107.59.08h-2.49c-1.27,0-1.8-.5-1.94-1.89q-1.31-13.05-2.84-26.08c-.33-2.75.2-3.74,3.39-3.73,37.88.15,75.76.09,113.64.09.83,0,1.67-.05,2.49,0,1.63.12,2.26-.49,2.38-2.21.62-9,1.31-17.93,2.12-26.88.26-2.8-.28-3.84-3.47-3.82C300.41,188.83,275.11,188.76,249.82,188.76Z"/><path class="cls-2" d="M279.5,93.46c3.19-5.17,6.2-9.95,9.1-14.8.72-1.2,1.35-2,3-2,4.34.11,8.68.09,13,0,1.69,0,2.25.54,2.25,2.24q-.07,21.72,0,43.44c0,1.8-.47,2.55-2.39,2.49-3.79-.12-7.6-.14-11.39,0-2.08.08-2.6-.72-2.57-2.67.1-6.71,0-13.41,0-21.07l-11.19,17.17L268,100.7c0,7.77-.16,14.63.09,21.48.08,2.24-.6,2.66-2.5,2.62-3.56-.07-7.13-.1-10.68,0-1.86.06-2.47-.59-2.47-2.45q.09-21.72,0-43.44c0-1.66.52-2.42,2.19-2.29.24,0,.47.08.7.09,4.57,0,9.77-1.24,13.52.53s4.87,7.25,7.37,11C277.23,89.78,278.2,91.39,279.5,93.46Z"/><path class="cls-2" d="M193.56,101.46c0,6.89-.09,13.77.05,20.66,0,2.36-.4,3.43-3.06,3.25-3.54-.23-7.12-.11-10.68,0-1.68,0-2.31-.59-2.27-2.28.08-3.68,0-7.36.05-11,0-1.86-.31-2.85-2.51-2.74-3.31.16-6.65.15-10,0-2-.09-2.38.73-2.33,2.49.11,3.68,0,7.36.06,11,0,1.71-.23,2.62-2.27,2.54-3.91-.14-7.83-.13-11.75,0-1.95.07-2.36-.71-2.35-2.48q.09-21.72,0-43.42c0-1.67.43-2.31,2.18-2.27,4,.11,8,.13,11.94,0,2.06-.08,2.29.89,2.25,2.56-.09,3.56.06,7.12-.06,10.68-.07,1.9.35,2.8,2.5,2.69a85.58,85.58,0,0,1,9.61,0c2.35.14,2.79-.87,2.7-2.92-.13-3.2.12-6.42-.08-9.61-.16-2.52.41-3.65,3.23-3.42a71.51,71.51,0,0,0,9.82,0c2.31-.14,3,.55,3,2.93C193.46,87.21,193.56,94.34,193.56,101.46Z"/><path class="cls-2" d="M223,77.29c6.43,0,12.86.11,19.29-.06,2.12-.06,3,.3,2.88,2.59-.15,3.55-.15,7.11,0,10.66.09,2.09-.72,2.63-2.66,2.54-3-.13-5.93.1-8.89-.08-2.21-.13-2.81.66-2.78,2.81.11,8.65-.09,17.31.12,26,.07,3.06-.93,3.89-3.82,3.66a56,56,0,0,0-8.88,0c-2.62.2-3.45-.55-3.39-3.29.19-8.77,0-17.54.11-26.31,0-2.09-.38-3-2.7-2.83-3.18.21-6.4,0-9.59.08-1.57,0-2.06-.5-2-2,.09-3.91.12-7.83,0-11.74-.05-1.87.8-2,2.35-2,6.66.07,13.33,0,20,0Z"/><path class="cls-2" d="M314.69,101.11c0-7.12.07-14.23,0-21.34,0-2,.59-2.72,2.59-2.63a58.7,58.7,0,0,0,9.47,0c3.79-.47,4.35,1.18,4.26,4.45-.21,8.14,0,16.3-.16,24.45-.05,2.64.68,3.61,3.52,3.48,5.56-.25,11.14,0,16.71-.11,1.86,0,2.49.51,2.43,2.38-.12,3.67-.1,7.35,0,11,0,1.75-.4,2.57-2.36,2.55q-17.07-.09-34.15,0c-2,0-2.3-.84-2.29-2.55C314.73,115.57,314.69,108.34,314.69,101.11Z"/></svg>