<svg id="Layer_1" data-name="Layer 1" xmlns="http://www.w3.org/2000/svg" viewBox="0 0 400 400"><defs><style>.cls-1{fill:#fff;}</style></defs><path class="cls-1" d="M360.1,0H39.9A39.9,39.9,0,0,0,0,39.9V360.1A39.9,39.9,0,0,0,39.9,400H360.1A39.9,39.9,0,0,0,400,360.1V39.9A39.9,39.9,0,0,0,360.1,0Zm13.59,249.54c-.1,16.36-.23,32.8-4,48.85-9.29,39.11-33.78,62.89-72.93,71.6-15.2,3.39-30.75,3.47-46.24,3.69-16.9.23-33.81.05-50.73.05-16.73,0-33.48.2-50.21-.05-16.19-.25-32.44-.34-48.32-4.12C62.45,360.27,38.82,336,30,297.24c-3-13-3.54-26.34-3.62-39.6q-.33-57.75,0-115.51c.1-15.75.88-31.52,5.44-46.79C42.46,59.58,66.49,38.18,102.63,30c13-3,26.34-3.55,39.6-3.62q57.65-.33,115.28,0c15.3.1,30.62.83,45.51,5.05,36.82,10.4,58.81,34.68,67,71.75,3.43,15.49,3.58,31.29,3.66,47Q374,199.88,373.69,249.54Z"/><path class="cls-1" d="M340.24,113.42C337.58,96,330.17,81.25,315.5,70.79c-10.85-7.72-23.28-11.19-36.32-12-16.07-1-32.21-1.56-48.31-1.63-30.72-.1-61.45.2-92.17.52-10.52.11-21,.71-31.37,3.17C85.79,66,70.62,78.44,63.08,99.56a89.68,89.68,0,0,0-4.93,27.85c-.65,24.16-1.07,48.32-1.58,72.48h.53c0,14.61-.23,29.21.07,43.82.33,15.37,0,30.84,3.07,46,5.07,25.2,19.62,41.8,44.68,48.7,10.83,3,22,3.72,33.15,3.77q61.89.27,123.77-.05a156.87,156.87,0,0,0,27.44-2.56c25.47-4.68,42.27-19.42,49.2-44.71,3.31-12.08,3.74-24.49,3.87-36.87q.52-46.33.47-92.69C342.77,148,342.88,130.63,340.24,113.42ZM199.17,289.28c-49.34-.3-88.83-40.62-88.53-90.37.28-48.67,40.56-88.49,89.29-88.27a89.32,89.32,0,1,1-.76,178.64ZM292.77,128a20.84,20.84,0,1,1,20.85-21A20.9,20.9,0,0,1,292.77,128Z"/><path class="cls-1" d="M199.84,141.74a58.18,58.18,0,1,1-58.12,58.44A58.2,58.2,0,0,1,199.84,141.74Z"/></svg>