<svg id="Layer_1" data-name="Layer 1" xmlns="http://www.w3.org/2000/svg" viewBox="0 0 500 500"><defs><style>.cls-1{fill:#eac113;}.cls-2{fill:#fff;}</style></defs><rect class="cls-1" width="500" height="500"/><path class="cls-2" d="M250.37,86c45.9,0,91.81.06,137.71-.09,5,0,6.68.68,6.1,6.58-3.12,31.4-5.51,62.87-8.31,94.31-3.1,34.78-6.44,69.54-9.57,104.33-2.34,26-4.63,52-6.71,78-1,12.47-.75,12.55-12.69,15.89-34,9.51-68.08,18.93-102.1,28.48a17.19,17.19,0,0,1-9.82,0c-35-9.86-70-19.68-105.18-29.15-6.06-1.63-8.44-4.48-9-10.67q-6.21-75.17-12.92-150.29-5.85-66-12.15-132c-.57-5.93,2.49-5.42,6.26-5.42Q181.21,86,250.37,86Zm9.56,112.63c0,15.79.33,31.6-.16,47.38-.21,6.64,2.06,8.24,8.29,8,11.55-.47,23.15.06,34.72-.23,4.91-.13,6.87,1.17,6.24,6.4-1.37,11.48-2.66,23-3.3,34.53-.29,5.22-2.72,6.61-7.18,7.35-11.4,1.9-22.72,4.26-34.11,6.17-3.42.57-4.58,2.1-4.54,5.43q.19,14.22,0,28.43c-.06,3.91,1.44,4.59,5,3.75q34.38-8,68.85-15.7c3.94-.88,5.45-2.58,5.8-6.68,2.76-32.9,5.55-65.8,8.9-98.65.68-6.61-1.11-7.7-7.07-7.49-12.41.43-24.84-.1-37.25.23-5.11.14-6.61-1.64-6.4-6.54.33-7.78.37-15.6,0-23.37-.27-5.44,1.41-7.44,7.09-7.3,13.88.36,27.78,0,41.67.17,4.54.06,6.36-1.64,6.6-6.21.42-8.19,1.08-16.38,2.17-24.5.63-4.64-.82-5.85-5.28-5.82q-42,.22-84,0c-4.62,0-6.25,1.2-6.17,6C260.11,166.14,259.94,182.36,259.93,198.58Zm-19.38,47.09q0-47.7,0-95.4c0-3.7,0-6.42-5.11-6.37q-35.37.33-70.73,0c-4.61,0-5.19,2-4.78,5.81.94,8.57,1.81,17.15,2.39,25.75.26,3.85,2,5,5.6,5,9.68-.14,19.38.26,29-.15,5.45-.23,7.22,1.29,7.17,7-.26,33.69-.13,67.39-.13,101.09,0,16,0,15.8-15.6,13-3.8-.69-4.67-2.22-4.87-5.7-.38-6.5-1.51-13-1.94-19.46-.24-3.69-2-4.49-5.25-4.43-8.21.15-16.43.33-24.62-.05-5.16-.25-6.6,1.58-6.1,6.53,1.47,14.65,2.86,29.31,3.76,44,.3,4.87,1.83,6.94,6.69,7.86,25.6,4.87,51.13,10.06,76.69,15.14,7.73,1.54,7.74,1.54,7.74-6.67Q240.57,292.11,240.55,245.67Z"/></svg>