<svg id="Layer_1" data-name="Layer 1" xmlns="http://www.w3.org/2000/svg" viewBox="0 0 500 500"><defs><style>.cls-1{fill:#171f2b;}.cls-2{fill:#0c68ac;}</style></defs><path class="cls-1" d="M409.57,324.33c5.26-11.59,15.1-9.62,25.74-8.95-10.14,21.1-28.87,35.16-37.86,55.71q-3.43,6.26-6.88,12.51c-4.05,1.24-9-2.36-12.43,2.36l-5,.11c4.39-13.89.24-26.75-4.79-39.5,5.75-1.22,11.87,1.63,17.45-1.56,3,5.8,4.2,10.08,9.32.23,3.7-7.11,9.61-13.72,14.3-20.72Z"/><path class="cls-1" d="M93.43,405.08c-5.53,5.94-12.78,7-20.29,6.74-3-.09-7.69,1.39-8.26-2.85s0-11.18,3.85-12c16.57-3.5,13-17.42,16-28q1.26-6.09,2.53-12.2c2.92-3,.48-8,4-10.78l14.9.52q.06,5.84.14,11.67c-3.46,3.84-2.9,8.47-2.57,13.05a87.46,87.46,0,0,0-7.57,27C93.11,399.69,93.31,402.4,93.43,405.08Z"/><path class="cls-2" d="M264.57,37.77,271.48,28q.4,4.83.8,9.66c-.5,5.11-1.2,10.25,1.91,14.89A26.44,26.44,0,0,0,281.3,70c1.28,4.32,4.11,7.47,7.68,10.06,8,9.46,17.68,16.43,29.67,20,15,6.64,29.91,6.76,44.79-.31l2.14.23c-.93,10.46-11.08,11.67-17.11,17l-14.81,2.44-14.72-.57c-3.56-2.51-7.83-1.79-11.76-2.6-10.82-3-18.79-10.47-27.35-17l-5.67-7.13-4.94-7.45C261.75,69.63,259,54.12,264.57,37.77Z"/><path class="cls-2" d="M365.76,220.43c2.6,4-1.21,6.74-2.07,10l-1.52,2-2,2.65-12,11.65-3.51,3.36-29.21,16.8L304,270.72c-30.83,7.66-61.3,5.93-91.48-3.49L183.14,251.8l-5.63-4a257.77,257.77,0,0,1-36.26-37.44c-.83-3.08-2.32-5.69-5.25-7.26l-6.85-12.48c-3-10.86-6-21.69-11-31.86,2.83-5.63-2.16-9.87-2.66-14.91q0-7.36,0-14.73,1.47-7.44,3-14.89c2.08-3,2.43-6.4,2.44-9.89,1.08-1.17,2.59-2.23,1-4l.26-.89c5.72-11,11.8-21.89,19.42-31.79,3.33-3.14,4.42-1.46,4.6,2.15q-1.22,7.38-2.42,14.78-.36,7.44-.7,14.88c-1.24,5-.65,9.88.22,14.8,0,5.07-1,10.27,2,15,.88,10.69,4.44,20.51,9.71,29.77,7.77,19.42,21.92,33.68,37.79,46.55l4.59,3.53a52.76,52.76,0,0,0,15.22,10.69l4.8,2.7a21.27,21.27,0,0,0,9.94,5.47c9.7,6.69,20.61,10.07,32.13,11.81,4.93,1.06,9.65,3.39,14.91,2.44l14.76.43c17.57,1.18,34.42-1.42,50.24-9.48,6-.94,11.28-2.71,11.83-10C356.39,224.15,360.79,220.72,365.76,220.43Z"/><path class="cls-2" d="M215.23,42.56c-.29,3.3-.59,6.61-.89,9.91L214,55.84l-.79,4-.06,9.87c-.51,5.08-1,10.17,1.68,14.9-.35,5.25,1.19,10.08,3.31,14.78,2.41,7.76,5.58,15.12,11,21.31,5.67,9.67,13.8,16.92,22.93,23.18a12,12,0,0,0,7.3,5.16,26.05,26.05,0,0,0,12.46,7.17c2.69,2.88,6.14,4.17,9.94,4.71,6.65,4.67,14.33,6.09,22.16,7.06,4.92.89,9.84,1.86,14.86.78l14.8-.7c10.85-1.46,21.12-4.42,29.92-11.3,2-.38,3.67-1.22,4.49-3.22,3.3-.75,5.41-3.15,7.59-5.46l3.18-.7c0,1.35,0,2.7.05,4l-.91,2.25-2.09,2.82-13.57,15a1.58,1.58,0,0,0-1.06.81c-9.17,5.23-16.76,13.37-27.83,15.14l-14.53,3.76-26.66,1.2-3-.43c-4.92-1.05-9.83-2.29-14.91-.95l-31.92-15.64c-13.66-7.52-23.19-19.15-31.74-31.76l-10.3-19.64-1.06-4.88c-.45-1-.91-2.07-1.36-3.11a1.63,1.63,0,0,0-.42-1.75q-1.18-7.44-2.38-14.88l.12-17.27,3.36-14.48c.52-1.75,1-3.5,1.57-5.24C205.76,56.27,206.72,46.56,215.23,42.56Z"/><path class="cls-1" d="M336,386a7.8,7.8,0,0,0-2.28.68l-12.06-.74q4.56-23.4,9.13-46.8c2.1-4.64-1.81-10.57,3.12-14.61l14.64-.8,14.76,0,16.34,1.51.58-.56-.48.65c3.28,4,5.82,8.24,5.68,13.63l0-.06-22.16.84c-11.3-2.51-18.64,0-18.95,13.48-.13,6-2,12-3,18Z"/><path class="cls-1" d="M187.69,373.79l-.81,11.84-4.06,1.14-14.93.1-14.75.11-14.92-.22c-10.87-.29-17.2-7.13-22.46-15.51q-.53-8.67-1-17.33,1.48-7.38,3-14.77c4.35-11,10.33-20.81,20.55-27.45,5.81.94,10.46-1.66,14.87-4.94l14.83.3c9,3.57,17,8.33,21.47,17.46,2.6,13.62-.72,26.4-5.57,39C182.06,368.12,178.94,373.12,187.69,373.79ZM169.77,349l.81-4.89c4-14.81-4-23.33-18.62-19.86-13.87,3.3-22.53,29.9-14,42.94,3.94,5.87,9.75,3.89,15.16,3.61C167,373,166.2,362.36,168,353.94Q168.85,351.48,169.77,349Z"/><path class="cls-1" d="M94.06,339c-2.56-10.28-.24-16.67,12.07-15.09,9.66.48,5,6.27,4,10.74C106.46,342.26,99.61,338.21,94.06,339Z"/><path class="cls-1" d="M311.25,386l-7.23.86-14.93.29-14.76-.46-9.92-3.14c-1.54-1.69-3.09-3.37-4.63-5.05-.63-2.44-1.27-4.88-1.9-7.32l7.27-31.83c6.18-8,13.09-14.83,24-15.48h14.77C309,329,320.15,328,319.2,339.13c-1.08,6.58.68,13.48-2.35,19.82-3.32,5.11-8.72,1.25-12.84,3H289.09l-9.85-.05c-1.66-.4-2.45.18-2.16,1.94-.55,10.08,6.94,6.52,12,7.06l14.88.24,9.68.59Q312.46,378.87,311.25,386ZM280,348.29c4.67,0,8.22.25,11.71-.08s7.65,1.87,9.84-2.2c.7-1.28,0-4.48-1.18-5.39A12.47,12.47,0,0,0,289,338.44C284.8,339.61,281.85,342,280,348.29Z"/><path class="cls-1" d="M242.15,386.46H212.49c-9.88-.33-14.51-6.18-16.06-15.26,1.61-15.86,5.16-31.35,8.93-46.79l7.07-.48,7.41.35-.68,14.57c-2.79,6.72-3.74,13.76-4.72,21C212.77,372.08,220,372.1,228.17,371c9-1.24,5.37-9.22,7.08-14.35a47.68,47.68,0,0,0,4-17.48q1.84-7.26,3.68-14.52a1.57,1.57,0,0,0,1.7-.55l14.39.72q-1.35,7-2.68,14c-2.59,10.7-6,21.23-6.39,32.36-1.51,4-3,8-2.49,12.4C246.48,386.05,244.1,385.86,242.15,386.46Z"/></svg>