<svg id="Layer_1" data-name="Layer 1" xmlns="http://www.w3.org/2000/svg" viewBox="0 0 24 24"><defs><style>.cls-1{fill:#fff;}.cls-2{fill:none;stroke:#fff;stroke-miterlimit:10;stroke-width:1.5px;}</style></defs><path class="cls-1" d="M3.9,3.53a4,4,0,0,1,.49-.29,2.76,2.76,0,0,1,.91-.15,5.48,5.48,0,0,1,.56.1,4.31,4.31,0,0,1,.49.22,1,1,0,0,0,.21.15.81.81,0,0,0,.28.27L7,4.05a2.6,2.6,0,0,1,.34,1v.49l0,.2L7.23,6,7,6.5a.65.65,0,0,0-.13.16c-.13.09-.23.23-.36.33l-.12.07a3.48,3.48,0,0,1-.52.24,3.69,3.69,0,0,1-.46.08,2.64,2.64,0,0,1-.49,0,2.72,2.72,0,0,1-.49-.13A2.26,2.26,0,0,1,3.19,6a3.43,3.43,0,0,1-.11-.46,4,4,0,0,1,0-.49l.11-.47a2.11,2.11,0,0,1,.59-.89.19.19,0,0,0,.09-.11Z"/><path class="cls-1" d="M20.94,20.23v.49c0,.16-.05.19-.22.19h-3.3c-.17,0-.2,0-.21-.19V14.34q0-.31-.06-.63a1.05,1.05,0,0,0-.08-.35,1.36,1.36,0,0,0-.17-.49,1.05,1.05,0,0,0-.25-.37.18.18,0,0,0-.12-.12.9.9,0,0,0-.38-.25,1.38,1.38,0,0,0-.49-.14,2,2,0,0,0-.49,0,2.73,2.73,0,0,0-.49.06,1.08,1.08,0,0,0-.49.18.52.52,0,0,0-.27.17.69.69,0,0,0-.22.2,1.06,1.06,0,0,0-.22.29,1.89,1.89,0,0,0-.2.46,3.53,3.53,0,0,0-.19,1c0,.49,0,1,0,1.47v4.91c0,.16-.05.19-.21.19H9.57c-.16,0-.19,0-.21-.19V10.42c0-.39,0-.77,0-1.16,0-.23,0-.26.26-.26h3.1c.13,0,.18.05.19.18v1.24c0,.06,0,.15,0,.18s.08-.08.12-.13a0,0,0,0,0,0,0l.12-.18.27-.32.25-.24.32-.25.17-.11.46-.25A1.94,1.94,0,0,0,15,9a.44.44,0,0,0,.19-.07l.5-.11.48-.06h.49a3.93,3.93,0,0,1,.49,0l.49.05.49.12.15.05.32.1.52.27a1.27,1.27,0,0,0,.19.13,3.47,3.47,0,0,0,.29.25.63.63,0,0,0,.22.21,2.33,2.33,0,0,0,.27.35.39.39,0,0,0,.08.14l.26.49.13.39.05.1.12.49c0,.16.05.33.1.49l.05.49.05.49c0,.17,0,.33,0,.49v6.38Z"/><path class="cls-1" d="M3.36,13.36V9.21A.22.22,0,0,1,3.44,9H6.85C7,9,7,9.07,7,9.21a1.77,1.77,0,0,1,0,.23V20.72c0,.15,0,.18-.2.19H3.44a.21.21,0,0,1-.08-.19V13.36Z"/><rect class="cls-2" x="0.69" y="0.69" width="22.62" height="22.62" rx="2.26"/></svg>