<svg id="Layer_1" data-name="Layer 1" xmlns="http://www.w3.org/2000/svg" viewBox="0 0 500 500"><defs><style>.cls-1{fill:#1c8534;}.cls-2{fill:#238d39;}.cls-3{fill:#56b25a;}.cls-4{fill:#5cb65f;}.cls-5{fill:#3aa545;}.cls-6{fill:#b2b192;}.cls-7{fill:#919f72;}.cls-8{fill:#4faf52;}.cls-9{fill:#48ab4f;}.cls-10{fill:#42a94a;}.cls-11{fill:#33a341;}.cls-12{fill:#1f9c3c;}.cls-13{fill:#139b36;}.cls-14{fill:#2ba13e;}.cls-15{fill:#24a03c;}</style></defs><path class="cls-1" d="M355.05,231.66a46.16,46.16,0,0,1,.41,12c-3.48,3.25-3.13,6.5,0,9.76.27,6-.5,11.91-1.2,17.84-.19.66-.37,1.32-.56,2,.7,1.42.12,2.7-.44,4-1.74,1.61-1,3.61-.9,5.51a16.41,16.41,0,0,1-1.41,8.82c-.64.36-1.66.6-1.82,1.11-.25.81.63,1.25,1.4,1.5-.42,2.8-.62,5.65-2.1,8.18-2.72,1.54-4.58,3.27-1.43,6.17-10.42,37.17-29.57,69.19-56.93,96.35-7.31,7.24-14.52,14.63-23.78,19.5l-1.81-2.21c-6.82-8.91-10.36-19.11-11.72-30.14a2.64,2.64,0,0,0,.4-.24,5,5,0,0,0-.37-.73c0-.88-.05-1.76-.08-2.65l.43-.25-.52-.59-.09-.09c1-5.7-1.58-11.17-1.1-16.83.34-6.42-.37-12.9,1.19-19.24q.63-16.76,1.27-33.51l.09-7.18c2.29-3,.73-6.44,1.1-9.66,0-7.7.19-15.39,0-23.08-.23-8.24,1.13-16.56-1.1-24.72q-.08-14.39-.16-28.79c-.27-4,1.12-8.15-.93-12,0-2.33,0-4.65,0-7,1.44-4.73,1.12-9.57,1-14.41.07-1.61.15-3.23.23-4.85,8.23,2,16.61,1,24.92,1.19,3.29.09,6.43-.95,6.87-4.38.65-5,3.61-5.28,7.55-5.24q17,.21,34,0c6.52-.06,8.6-2.64,7.62-8.93-.14-.89-1-1.87.44-2.45,7.36,6.61,9,14.54,5,23.17-1,2.06-1.51,4.57,1.27,5.55s3.44,2.84,3.26,5.46a7.94,7.94,0,0,0,1.35,5.64A29.56,29.56,0,0,1,352.16,227C352,229.05,351.64,231.6,355.05,231.66Zm-20.56-37.23a2.91,2.91,0,0,0,3.15-2.9c.16-1.66-.15-3.47-2.17-3.58-2.26-.11-2.73,2.07-3.21,3.69S333,194.11,334.49,194.43Z"/><path class="cls-2" d="M355.05,231.66c-3.41-.06-3.07-2.61-2.89-4.71a29.56,29.56,0,0,0-5.85-20.69,7.94,7.94,0,0,1-1.35-5.64c.18-2.62-.38-4.45-3.26-5.46s-2.23-3.49-1.27-5.55c4-8.63,2.36-16.56-5-23.17-1.42.58-.58,1.56-.44,2.45,1,6.29-1.1,8.87-7.62,8.93q-17,.17-34,0c-3.94,0-6.9.22-7.55,5.24-.44,3.43-3.58,4.47-6.87,4.38-8.31-.23-16.69.81-24.92-1.19-2.34-3.35-.66-7.15-1.19-10.7.78-18.79,1.95-37.58-.12-56.36-.26-3.25,1-6.65-.95-9.74,0-3.1,0-6.19,0-9.29,1.52-1.93,1-4.2.89-6.32-.31-12.88-.71-25.75-1.12-38.62-.27-8.3.59-16.63-1-24.91-.43-2.17-1-4.77.84-6.85,6.74,15.61,17.42,28.24,29.17,40.35,33.95,34.95,55.25,77,67.83,123.74A191.67,191.67,0,0,1,355.05,231.66Zm-10.43-40.6-.25-.46c-.11.13-.29.26-.3.4s.14.3.22.45Z"/><path class="cls-3" d="M251.79,100.14c0,3.1,0,6.19,0,9.29-1.88,3.46-3.06,6.86.95,9.74,2.07,18.78.9,37.57.12,56.36l-3.67-1.26c-1.6-6.86-1-14.39-6.95-19.9-1-1-.31-3.85-.22-5.83.23-4.65-1.15-8.85-2.38-13.3-1.45-5.22-7.73-8.06-6.16-14.65,1.13-4.73-.4-9.22-3.33-13.47-4.24-6.16-7.67-12.79-6.21-20.86.39-2.16-.43-4.74-2.95-5.27-4.23-.88-6.2-3.76-7.72-7.3-.8-2,2.08-4,0-6-.16-1.65.5-3.5-1.16-4.78,1.06-2.73,3.2-4.51,5.46-6.18,1.8.17,2.86-.49,2.72-2.46l-.07.07c1.8.16,2.62-.67,2.45-2.47l-.06.07c1.75-.31,3.51-1,5.22-.86,2.79.2,5.95,1.72,4.12,4.75-2.54,4.23-.69,5.59,2.66,7a4.4,4.4,0,0,1,2.65,3.66c1.08,6.07,1,12,4.26,18.1,3.1,5.84,3.91,13.49,2.94,20.7a5.17,5.17,0,0,0,2.33,5.07c2-2.19,1.14-4.47,1.15-6.51C247.9,101.06,248.92,99.74,251.79,100.14Z"/><path class="cls-4" d="M251.79,100.14c-2.87-.4-3.89.92-3.91,3.72,0,2,.83,4.32-1.15,6.51a5.17,5.17,0,0,1-2.33-5.07c1-7.21.16-14.86-2.94-20.7-3.22-6.06-3.18-12-4.26-18.1a4.4,4.4,0,0,0-2.65-3.66c-3.35-1.4-5.2-2.76-2.66-7,1.83-3-1.33-4.55-4.12-4.75-1.71-.12-3.47.55-5.22.86,2.36-4,6-6.79,9.55-9.46C240.64,36,247,28.38,248,17c2.44,1.85,2.88,4.16,3.39,6.44-1.84,2.08-1.27,4.68-.84,6.85,1.61,8.28.75,16.61,1,24.91.41,12.87.81,25.74,1.12,38.62C252.74,95.94,253.31,98.21,251.79,100.14Z"/><path class="cls-5" d="M198.51,386.45c-11.28-11.46-19.55-25.06-27.28-39-25.54-45.91-31.75-95-23.44-146.34a13.67,13.67,0,0,1,.74-2.27c0-.55.07-1.11.11-1.66l0-.19,1.06,0A2.61,2.61,0,0,1,151,199.4l0,2.39c-1.36.88-1.18,2.27-1.18,3.59-1.66,17.36-3.16,34.72-2.46,52.2.38,9.31,2.05,18.39,3.76,27.54,1.55,8.29,6.49,15.72,5.87,24.45,1.29,1.95.87,4.89,3.53,6a12,12,0,0,0,1.39,6.31c1.41,2.76,4,4.59,4.84,8,2.73,10.5,7.83,20,14.13,28.83.48,2.72,2.64,3.16,4.83,3.55a2.12,2.12,0,0,1,2.3,2.33c-1.1.82-1.09,1.64,0,2.45a7.47,7.47,0,0,0,2.41,4.84,2.4,2.4,0,0,0,2.4,2.41c.64,4.68,6.29,6.69,6.28,11.73Z"/><path class="cls-6" d="M264.46,422.18l1.81,2.21c-7.74,17.35-4.72,36-6.58,54.08-.34,3.25-1.12,4.83-4.54,4.48-3.09-.31-7,.4-7-4.37.11-10.16-1.6-20.18-2.11-30.3,5.69-.59,11.66-9.38,10.68-15.73C255.3,423.17,256.21,421.94,264.46,422.18Z"/><path class="cls-7" d="M264.46,422.18c-8.25-.24-9.16,1-7.71,10.37,1,6.35-5,15.14-10.68,15.73a139.06,139.06,0,0,0-5.44-20.86,1.28,1.28,0,0,1,.21-1l1.1-.68.1-.09c2.7-.34,2.72-2.77,3.07-4.5,1-4.82,2.19-9.64,1.65-14.63v0a2,2,0,0,0,1-2.38L248,397c1.76-1.55,1-3.66,1.19-5.54.18-2.18.71-3.9,3.34-3.93l.09.09a2.36,2.36,0,0,0,.09.84c0,.89.06,1.77.08,2.65a1.78,1.78,0,0,0,0,1C254.1,403.07,257.64,413.27,264.46,422.18Z"/><path class="cls-8" d="M160.62,150.34a221.56,221.56,0,0,1,39.3-73.18l.3.29c-.3,5.5-3.55,9.71-6.17,14.19a22.89,22.89,0,0,0-6,9.58c-.07,2.27-1.65,3.46-3.25,4.67a15.4,15.4,0,0,0-6.42,13.19,17.39,17.39,0,0,0-2.64,5.85c-1.2,3.88-6.58,5.08-5.67,9.81-1.62,4.27-4.58,8.17-3.65,13.14-1.43,1.35-1.63,4.36-4.7,3.49Z"/><path class="cls-9" d="M160.62,150.34l1.12,1c.08,5.33-3.73,10-2.53,15.53-2.43.48-2,2.46-2.37,4.18-1.19,5.17-2,10.47-4.74,15.17a2.22,2.22,0,0,0-1,2.4L150.9,191c-1.26,1-1.08,2.27-.92,3.59-.08.78-.17,1.57-.26,2.36l-1.06,0A203,203,0,0,1,160.62,150.34Z"/><path class="cls-5" d="M240.63,427.42c-8.07-6.38-16.69-12.13-22.95-20.52l.42-.51c4.39,0,6.24,3.7,8.85,6.18,4.38,4.19,9,8,15,9.52,0,1.2.07,2.4.1,3.59l-.1.09-1.1.68A1.28,1.28,0,0,0,240.63,427.42Z"/><path class="cls-5" d="M217.68,406.9a83,83,0,0,1-19.17-20.45L199,386c2.31,1.67,6.09,1.28,7,5l2.4,2.38c1.75,1.45,2.46,3.93,4.78,4.8.41.77.84.78,1.28,0,.35,0,.69.05,1,.09-.24,3.06,1,5.65,2.61,8.1Z"/><path class="cls-8" d="M212.05,62.93c1.66,1.28,1,3.13,1.16,4.78-1.87,1.09-3.48,2.84-6,2.41a5.35,5.35,0,0,0-.88-.69A16.15,16.15,0,0,1,212.05,62.93Z"/><path class="cls-8" d="M199.92,77.16a12.61,12.61,0,0,1,5.46-6.63,5.9,5.9,0,0,0,.7.8c-.68,3.26-1.82,6.08-5.86,6.12Z"/><path class="cls-2" d="M355.44,253.45c-3.11-3.26-3.46-6.51,0-9.76Q355.45,248.58,355.44,253.45Z"/><path class="cls-2" d="M347,308.54c-3.15-2.9-1.29-4.63,1.43-6.17C348.86,304.64,347.71,306.54,347,308.54Z"/><path class="cls-4" d="M222.61,51.89c.17,1.8-.65,2.63-2.45,2.47A2.49,2.49,0,0,1,222.61,51.89Z"/><path class="cls-2" d="M352.34,282.76c-.08-1.9-.84-3.9.9-5.51C353.47,279.17,353.75,281.11,352.34,282.76Z"/><path class="cls-2" d="M350.51,294.19c-.77-.25-1.65-.69-1.4-1.5.16-.51,1.18-.75,1.82-1.11Z"/><path class="cls-4" d="M220.23,54.29c.14,2-.92,2.63-2.72,2.46C218,55.44,218.63,54.35,220.23,54.29Z"/><path class="cls-9" d="M148.64,197.22c0,.55-.08,1.11-.11,1.66C148.57,198.33,148.6,197.77,148.64,197.22Z"/><path class="cls-8" d="M205.38,70.53c.34-.36.67-.73,1-1.09a5.11,5.11,0,0,1,.87.68l-1.17,1.21A5.9,5.9,0,0,1,205.38,70.53Z"/><path class="cls-2" d="M353.68,273.27c.19-.66.37-1.32.56-2A1.63,1.63,0,0,1,353.68,273.27Z"/><path class="cls-10" d="M188.07,101.22a22.89,22.89,0,0,1,6-9.58c5.33-.2,5.85,1.86,3.16,6.07-2.59,4.05-4,9.13,0,12.47,5.8,4.82,8,10.9,8.71,17.75.49,4.62-1.09,9.86,5.76,11.13.64.12,1.2,1.5,1.52,2.39,1.89,5.4,4.5,10.63,3.63,16.68-.46,3.24.76,6.21,2.06,9.17,3.24,7.39,7.44,14.54,6.33,23.16-.17,1.33-.4,3.31,1.08,3.76,4.75,1.44,5.5,6.78,8.25,8.87,6.07,4.61,5.24,10.36,6.35,16.19,1,5.17,1.78,11.31,5,14.86s3.63,5.41,1.48,9.34a10.81,10.81,0,0,0,0,9.8c1.41,2.65,4.29-.75,6.54,0,2.23,8.16.87,16.48,1.1,24.72.22,7.69,0,15.38,0,23.08-4.2,2.79-2.56,6.23-1.1,9.66l-.09,7.18c-3.07.24-3.56-1.57-3.57-4.13,0-5.37,1.44-11.23-4.57-14.86a3.68,3.68,0,0,1-1.16-2.68c-.17-6.69-.22-13.33-2.54-19.79-1.66-4.62,1.61-11.54-6.39-13.09a1.16,1.16,0,0,1-.6-.95c.82-6.69-5.76-10.8-5.63-17.74.14-7.46-6.38-13.14-8.46-20.3-1.54-5.31-4.64-10.39-5.1-15.75-.85-9.71-6.59-18.07-6.74-27.84,0-.48-.67-.95-1-1.43A49.24,49.24,0,0,1,199,153c-.28-4.5-.78-10-3.25-12.37-4.77-4.57-3.69-10.08-5.2-15.11-.4-1.35-.55-2.76-1.65-3.71-2.55-2.18-2.28-4.74-.37-6.83C193,110.13,191.1,105.72,188.07,101.22Z"/><path class="cls-11" d="M170.09,134.74c-.91-4.73,4.47-5.93,5.67-9.81a17.39,17.39,0,0,1,2.64-5.85c1.31,1,.95,2.47,1.35,3.75,1.5,4.84,2,10.87,5.21,14.09,4.24,4.23,3.92,8.5,4.39,13.38,1.3,13.43,3.14,26.56,11.63,38.13,2.59,3.53,6.27,7.9,6.13,13a47.21,47.21,0,0,0,2.57,18.08c3.32,8.81,3.4,18.66,10.45,26.4,2.59,2.85,6,7.42,6,11.77a72.9,72.9,0,0,0,5,26c3.89,10.27,2.89,23,14.63,29.37a3.24,3.24,0,0,1,1,2.66c-.67,7,4.21,13.05,3,20.38a41,41,0,0,0-.62,11.13c.29,2.44.42,4.41,3.55,4.16-1.56,6.34-.85,12.82-1.18,19.24-2.86.44-2.1,2.7-2.29,4.5s.8,4.48-2.37,5q0-5.38,0-10.79c1.29-2.67,4-6,2-8.26-3.22-3.55-4.43-8.58-7.37-11.35-4.07-3.84-4.19-7.6-4.19-12.11,0-1.77.46-3.7-.72-5.23-7.75-10-8.3-22.71-12.22-34.12-2.59-7.52-8.63-14.18-6.73-23,0-.14-.19-.34-.31-.5-7.66-10.51-7.87-23.66-12.51-35.2-2.88-7.17-7.17-13.76-6.47-21.94,0-.3-.4-.68-.68-.95-4.62-4.59-4.93-11-6.9-16.68-2.39-6.84-2-15.42-6-20.72-5.79-7.53-4.4-15.16-5-23a6.16,6.16,0,0,0-.61-1.59c-2.32-.2-3,4-5.53,2.14-1.83-1.37-.92-3.73-.91-5.63,0-4-.42-7.92.89-11.84C174.3,136.76,173.64,134.53,170.09,134.74Z"/><path class="cls-9" d="M253.93,253.27c-2.25-.74-5.13,2.66-6.54,0a10.81,10.81,0,0,1,0-9.8c2.15-3.93,1.84-5.71-1.48-9.34s-4.05-9.69-5-14.86c-1.11-5.83-.28-11.58-6.35-16.19-2.75-2.09-3.5-7.43-8.25-8.87-1.48-.45-1.25-2.43-1.08-3.76,1.11-8.62-3.09-15.77-6.33-23.16-1.3-3-2.52-5.93-2.06-9.17.87-6-1.74-11.28-3.63-16.68-.32-.89-.88-2.27-1.52-2.39-6.85-1.27-5.27-6.51-5.76-11.13-.72-6.85-2.91-12.93-8.71-17.75-4-3.34-2.6-8.42,0-12.47,2.69-4.21,2.17-6.27-3.16-6.07,2.62-4.48,5.87-8.69,6.17-14.19,4,0,5.18-2.86,5.86-6.12l1.17-1.21c2.48.43,4.09-1.32,6-2.41,2.09,2-.79,4,0,6-1.5,3.25-6.77,4.11-6.51,7.75s3,6.7,4.93,10c2.39,4.13,5,9,4.88,13.53-.35,13,5.43,24.09,10.25,35.35,3,6.94,4.2,15.13,11,20.15.58.43.59,1.87.57,2.83a62.1,62.1,0,0,0,2.11,17c1.22,4.7,2.89,6.6,7.51,6l1.2-1.21V174.27l3.67,1.26c.53,3.55-1.15,7.35,1.19,10.7-.08,1.62-.16,3.24-.23,4.85-4.3,4.54-2.41,9.49-1,14.41,0,2.32,0,4.64,0,7-1.5,4.15-3.3,8.32.93,12Q253.84,238.88,253.93,253.27Z"/><path class="cls-5" d="M252.6,351.42c-3.13.25-3.26-1.72-3.55-4.16a41,41,0,0,1,.62-11.13c1.19-7.33-3.69-13.38-3-20.38a3.24,3.24,0,0,0-1-2.66c-11.74-6.41-10.74-19.1-14.63-29.37a72.9,72.9,0,0,1-5-26c0-4.35-3.37-8.92-6-11.77-7-7.74-7.13-17.59-10.45-26.4a47.21,47.21,0,0,1-2.57-18.08c.14-5.12-3.54-9.49-6.13-13-8.49-11.57-10.33-24.7-11.63-38.13-.47-4.88-.15-9.15-4.39-13.38-3.22-3.22-3.71-9.25-5.21-14.09-.4-1.28,0-2.79-1.35-3.75a15.4,15.4,0,0,1,6.42-13.19c1.6-1.21,3.18-2.4,3.25-4.67,3,4.5,4.89,8.91.43,13.78-1.91,2.09-2.18,4.65.37,6.83,1.1,1,1.25,2.36,1.65,3.71,1.51,5,.43,10.54,5.2,15.11,2.47,2.36,3,7.87,3.25,12.37a49.24,49.24,0,0,0,9.12,26.33c.35.48,1,1,1,1.43.15,9.77,5.89,18.13,6.74,27.84.46,5.36,3.56,10.44,5.1,15.75,2.08,7.16,8.6,12.84,8.46,20.3-.13,6.94,6.45,11.05,5.63,17.74a1.16,1.16,0,0,0,.6.95c8,1.55,4.73,8.47,6.39,13.09,2.32,6.46,2.37,13.1,2.54,19.79a3.68,3.68,0,0,0,1.16,2.68c6,3.63,4.56,9.49,4.57,14.86,0,2.56.5,4.37,3.57,4.13Q253.24,334.67,252.6,351.42Z"/><path class="cls-10" d="M246.76,380.2c3.17-.56,2.18-3.09,2.37-5s-.57-4.06,2.29-4.5c-.49,5.66,2,11.13,1.09,16.83-2.63,0-3.16,1.75-3.34,3.93-.15,1.88.57,4-1.19,5.54-2-1.67-.94-4-1.24-6C246.75,387.37,246.76,383.79,246.76,380.2Z"/><path class="cls-2" d="M334.49,194.43c-1.49-.32-2.72-1.12-2.23-2.79s.95-3.8,3.21-3.69c2,.11,2.33,1.92,2.17,3.58A2.91,2.91,0,0,1,334.49,194.43Z"/><path class="cls-3" d="M252.82,205.49c-1.46-4.92-3.35-9.87,1-14.41C253.94,195.92,254.26,200.76,252.82,205.49Z"/><path class="cls-3" d="M253.77,224.48c-4.23-3.7-2.43-7.87-.93-12C254.89,216.33,253.5,220.47,253.77,224.48Z"/><path class="cls-2" d="M254,310.73c-1.46-3.43-3.1-6.87,1.1-9.66C254.69,304.29,256.25,307.73,254,310.73Z"/><path class="cls-10" d="M252.74,392a1.78,1.78,0,0,1,0-1,5,5,0,0,1,.37.73A2.64,2.64,0,0,1,252.74,392Z"/><path class="cls-10" d="M252.69,388.42a2.36,2.36,0,0,1-.09-.84l.52.59Z"/><path class="cls-4" d="M252.69,119.17c-4-2.88-2.83-6.28-.95-9.74C253.7,112.52,252.43,115.92,252.69,119.17Z"/><path class="cls-1" d="M344.62,191.06l-.33.39c-.08-.15-.24-.31-.22-.45s.19-.27.3-.4Z"/><path class="cls-8" d="M249.14,182.65V185l-1.2,1.21c-4.62.61-6.29-1.29-7.51-6a62.1,62.1,0,0,1-2.11-17c0-1,0-2.4-.57-2.83-6.78-5-8-13.21-11-20.15C222,129,216.17,118,216.52,104.93c.12-4.5-2.49-9.4-4.88-13.53-1.89-3.26-4.67-6.44-4.93-10s5-4.5,6.51-7.75c1.52,3.54,3.49,6.42,7.72,7.3,2.52.53,3.34,3.11,2.95,5.27-1.46,8.07,2,14.7,6.21,20.86,2.93,4.25,4.46,8.74,3.33,13.47-1.57,6.59,4.71,9.43,6.16,14.65,1.23,4.45,2.61,8.65,2.38,13.3-.09,2-.79,4.88.22,5.83,5.91,5.51,5.35,13,6.95,19.9v7.16c-.15.12-.45.28-.44.34A6,6,0,0,0,249.14,182.65Z"/><path class="cls-12" d="M218.1,406.39c-1.65-2.45-2.85-5-2.61-8.1,5.45-3.85,1.79-7.25-1.32-9.06-5.27-3.09-6.64-7.83-6.76-12.94a142,142,0,0,0-1.51-14.78c-.83-6.46-.53-14.06-10-15-1.79-.18-1.5-1.95-1.91-3.26-4-12.9-6.09-26.11-7.28-39.55-.53-6.07-.53-13.16-9.18-14.46a3.21,3.21,0,0,1-2.42-2.44c-1.67-6.1-4.1-12.12-4.8-18.33-1.11-9.79-4.81-19.22-3.88-29.29a5.39,5.39,0,0,0-3.07-5.42c-4-2-4.09-4.84-3.11-8.89.65-2.64,3.44-6.66-.57-8.62-4.93-2.42-4.36-5.88-3.26-9.85.92-3.34.37-6.74.48-10.11,0-1.44-.25-3.17-1.82-3.35-2.14-.24-1.65,1.78-1.71,3-.09,1.71-.27,3.23-2.42,3.44a2.61,2.61,0,0,0-1.23-2.41c.09-.79.18-1.58.26-2.36,1.08-1,1-2.31.92-3.59l.24-2.38,1-2.4c2.71-4.7,3.55-10,4.74-15.17.39-1.72-.06-3.7,2.37-4.18,1.51,1.6,4.19,2.05,3.8,5.37-.71,5.93.43,11.65,2.21,17.42,2.19,7.11,2.62,14.85,5.43,21.65,1.88,4.55,4.9,8.42,4.3,13.76-.47,4.11-.28,8.08,5,9.36,1.77.43,1.77,2.3,2.17,3.89,2.09,8.35,4.92,16.55,6.45,25,1.38,7.63,7.8,13.91,5.58,22.48-.7,2.72,1.05,4.65,4.1,4.5,2.85-.14,4.57,1,5.19,3.77,1.43,6.35,3.36,12.6,2.63,19.29-.54,5,1.28,10.22,3.57,14,3.31,5.44,5.78,11.39,9.39,16.78,5.83,8.71,8.41,20,8.14,30.52-.26,10.06,4.38,14.39,12.38,17.46.1,5.3-1,11,4.83,14.37.49,5.4-1.12,10.46-2.45,15.56-6-1.56-10.61-5.33-15-9.52C224.34,410.09,222.49,406.38,218.1,406.39Z"/><path class="cls-13" d="M151,199.4c2.15-.21,2.33-1.73,2.42-3.44.06-1.26-.43-3.28,1.71-3,1.57.18,1.86,1.91,1.82,3.35-.11,3.37.44,6.77-.48,10.11-1.1,4-1.67,7.43,3.26,9.85,4,2,1.22,6,.57,8.62-1,4.05-.9,6.88,3.11,8.89a5.39,5.39,0,0,1,3.07,5.42c-.93,10.07,2.77,19.5,3.88,29.29.7,6.21,3.13,12.23,4.8,18.33a3.21,3.21,0,0,0,2.42,2.44c8.65,1.3,8.65,8.39,9.18,14.46,1.19,13.44,3.27,26.65,7.28,39.55.41,1.31.12,3.08,1.91,3.26,9.47,1,9.17,8.56,10,15a142,142,0,0,1,1.51,14.78c.12,5.11,1.49,9.85,6.76,12.94,3.11,1.81,6.77,5.21,1.32,9.06-.34,0-.68-.07-1-.09l-1.28,0c-2.32-.87-3-3.35-4.78-4.8A2.17,2.17,0,0,0,206,391c-.87-3.69-4.65-3.3-7-5,0-5-5.63-7-6.27-11.73a2.06,2.06,0,0,0-2.4-2.41A7.47,7.47,0,0,1,188,367c1.3-.83,1.28-1.64,0-2.45a2.12,2.12,0,0,0-2.3-2.33c.36-3.86-2.21-3.74-4.83-3.55-6.3-8.84-11.4-18.33-14.13-28.83-.88-3.38-3.43-5.21-4.84-8a12,12,0,0,1-1.39-6.31c.09-2.75.46-5.66-3.53-6,.62-8.73-4.32-16.16-5.87-24.45-1.71-9.15-3.38-18.23-3.76-27.54-.7-17.48.8-34.84,2.46-52.2,1.31-.89,3.28-1.58,1.18-3.59Z"/><path class="cls-12" d="M180.81,358.71c2.62-.19,5.19-.31,4.83,3.55C183.45,361.87,181.29,361.43,180.81,358.71Z"/><path class="cls-12" d="M156.92,309.57c4,.37,3.62,3.28,3.53,6C157.79,314.46,158.21,311.52,156.92,309.57Z"/><path class="cls-12" d="M150.93,201.79c2.1,2,.13,2.7-1.18,3.59C149.75,204.06,149.57,202.67,150.93,201.79Z"/><path class="cls-12" d="M190.37,371.88a2.06,2.06,0,0,1,2.4,2.41A2.4,2.4,0,0,1,190.37,371.88Z"/><path class="cls-12" d="M187.94,364.59c1.3.81,1.32,1.62,0,2.45C186.85,366.23,186.84,365.41,187.94,364.59Z"/><path class="cls-14" d="M244.39,406.53c-5.81-3.37-4.73-9.07-4.83-14.37,1.3-6.93,4.82-.58,7.18-1.2.3,2-.78,4.33,1.24,6l-.27,7.19c-.31.79-.63,1.59-1,2.38h-2.37Z"/><path class="cls-10" d="M244.39,406.53h2.37c.54,5-.69,9.82-1.65,14.64-.35,1.73-.37,4.16-3.07,4.5,0-1.19-.07-2.39-.1-3.59C243.27,417,244.88,411.93,244.39,406.53Z"/><path class="cls-10" d="M246.76,406.53c.32-.79.64-1.59,1-2.38A2,2,0,0,1,246.76,406.53Z"/><path class="cls-10" d="M240.84,426.45l1.1-.68Z"/><path class="cls-14" d="M170.09,134.74c3.55-.21,4.21,2,3.35,4.63-1.31,3.92-.88,7.88-.89,11.84,0,1.9-.92,4.26.91,5.63,2.53,1.89,3.21-2.34,5.53-2.14a6.16,6.16,0,0,1,.61,1.59c.55,7.86-.84,15.49,5,23,4.08,5.3,3.66,13.88,6,20.72,2,5.65,2.28,12.09,6.9,16.68.28.27.71.65.68.95-.7,8.18,3.59,14.77,6.47,21.94,4.64,11.54,4.85,24.69,12.51,35.2.12.16.34.36.31.5-1.9,8.86,4.14,15.52,6.73,23,3.92,11.41,4.47,24.07,12.22,34.12,1.18,1.53.73,3.46.72,5.23,0,4.51.12,8.27,4.19,12.11,2.94,2.77,4.15,7.8,7.37,11.35,2,2.22-.67,5.59-2,8.26-4.46-1.77-6.35-.24-6,4.5.19,2.58.22,5.19-1.19,7.57-1,1.68-1.67,4-4.29,3.2-2.33-.7-1.39-2.94-1.68-4.6-2-11.21,2.3-23.51-5.8-33.67-.21-.27-.1-.78-.15-1.17-1-7.48-3.91-14.4-6.1-21.53a2.91,2.91,0,0,0-1.29-1.75c-1.15-.47-1.81.35-2.1,1.42-.37,1.3-.38,3.08-2.47,2.42-1.43-.46-1.28-1.93-1.21-3.07.54-7.79-2-15.4-1.26-23.2.18-2,.47-4.15-.8-5.83-5.82-7.73-6-17.34-8.74-26.08-.43-1.36-.53-2.91-2.27-3s-2.24,1.35-2.49,2.78c-.27,1.59-.46,3.54-2.59,3.28-2.38-.28-2.12-2.48-2.23-4.25-.3-4.68,1.11-9.64-2.42-13.79a10,10,0,0,1-2.36-5.4c-1.17-9-2.42-18-3.63-27.07-.5-3.68-1.7-6.61-6.24-6.39-3.86.2-4.57-2.22-4.55-5.44s.94-7.16-.59-9.38c-5.18-7.54-5.23-16.22-6-24.51-.56-5.79-5-12.25,1-18.13.56-.55,1.65-6.74-2.83-8.4C165.51,142.91,168.47,139,170.09,134.74Z"/><path class="cls-15" d="M166.44,147.88c4.48,1.66,3.39,7.85,2.83,8.4-6.06,5.88-1.6,12.34-1,18.13.81,8.29.86,17,6,24.51,1.53,2.22.62,6.2.59,9.38s.69,5.64,4.55,5.44c4.54-.22,5.74,2.71,6.24,6.39,1.21,9,2.46,18,3.63,27.07a10,10,0,0,0,2.36,5.4c3.53,4.15,2.12,9.11,2.42,13.79.11,1.77-.15,4,2.23,4.25,2.13.26,2.32-1.69,2.59-3.28.25-1.43.69-2.9,2.49-2.78s1.84,1.68,2.27,3c2.77,8.74,2.92,18.35,8.74,26.08,1.27,1.68,1,3.87.8,5.83-.72,7.8,1.8,15.41,1.26,23.2-.07,1.14-.22,2.61,1.21,3.07,2.09.66,2.1-1.12,2.47-2.42.29-1.07.95-1.89,2.1-1.42a2.91,2.91,0,0,1,1.29,1.75c2.19,7.13,5.15,14.05,6.1,21.53,0,.39-.06.9.15,1.17,8.1,10.16,3.8,22.46,5.8,33.67.29,1.66-.65,3.9,1.68,4.6,2.62.79,3.28-1.52,4.29-3.2,1.41-2.38,1.38-5,1.19-7.57-.33-4.74,1.56-6.27,6-4.5q0,5.4,0,10.79c0,3.59,0,7.17,0,10.76-2.36.62-5.88-5.73-7.18,1.2-8-3.07-12.64-7.4-12.38-17.46.27-10.54-2.31-21.81-8.14-30.52-3.61-5.39-6.08-11.34-9.39-16.78-2.29-3.78-4.11-9-3.57-14,.73-6.69-1.2-12.94-2.63-19.29-.62-2.76-2.34-3.91-5.19-3.77-3,.15-4.8-1.78-4.1-4.5,2.22-8.57-4.2-14.85-5.58-22.48-1.53-8.45-4.36-16.65-6.45-25-.4-1.59-.4-3.46-2.17-3.89-5.29-1.28-5.48-5.25-5-9.36.6-5.34-2.42-9.21-4.3-13.76-2.81-6.8-3.24-14.54-5.43-21.65-1.78-5.77-2.92-11.49-2.21-17.42.39-3.32-2.29-3.77-3.8-5.37-1.2-5.51,2.61-10.2,2.53-15.53C164.81,152.24,165,149.23,166.44,147.88Z"/><path class="cls-5" d="M150.9,191c0,1.28.16,2.59-.92,3.59C149.82,193.31,149.64,192,150.9,191Z"/><path class="cls-5" d="M152.1,186.26l-1,2.4A2.22,2.22,0,0,1,152.1,186.26Z"/><path class="cls-12" d="M206,391a2.17,2.17,0,0,1,2.4,2.38Z"/><path class="cls-12" d="M213.18,398.17l1.28,0C214,399,213.59,398.94,213.18,398.17Z"/><path class="cls-3" d="M249.14,182.65a6,6,0,0,1-.44-.88c0-.06.29-.22.44-.34Z"/><path class="cls-3" d="M247.94,186.23l1.2-1.21Z"/></svg>