<svg id="Layer_1" data-name="Layer 1" xmlns="http://www.w3.org/2000/svg" viewBox="0 0 500 500"><defs><style>.cls-1{fill:#de234d;}.cls-2{fill:#d6234b;}</style></defs><path class="cls-1" d="M358.67,443.93c9.15-15.72,17-32,21.52-49.74.92-3.61,2.62-7.14,1.48-13-32.52,51-77.3,81-136.73,87.79,11.42-7.65,23.1-14.89,33.49-23.91s20-18.56,27.44-30.51c-16.42,5-32.42,10.54-49.9,11.86,16.85-13.32,29.92-29.36,38-49.2s9.64-40,5.43-61.1c-12.71,45.76-40.24,76.29-87.41,86.37-25.56,5.46-49.6,0-73.94-13.15l14.5-4.67c-9.82-9-16.36-19.07-19.16-31.28-2.71-11.88-2-23.27,6.63-32.8,6.7-7.37,15.1-10.35,25-8.05,7.63,1.78,9.76,5.77,7.38,13.15-5.5,17.05,4.49,30.92,22.7,31.78,3.76.18,6-1.34,8-4.27A96.71,96.71,0,0,0,212.91,334c2.83,2.91,1.59,6,2.08,8.61.41,2.21-1.36,5.53,1.54,6.39,2.48.74,3.95-2.34,5.58-4a38.19,38.19,0,0,0,8.85-13.5c2.6-7.25,7-7,12.69-4.53,4.43,2,7.94,5.22,11.44,9.16,1.64-4.25.52-7.33-.19-10.42-16.2-70.55-82.4-114.06-153.76-101.47-6.84,1.21-9,6-12.41,10.4-1.88,2.38-3.3,7-6.73,5.84-2.94-1-1-5.31-1.34-8.14a64.78,64.78,0,0,1,0-6.89c-5,.91-5.1,6.77-9.21,7.77-.39-.32-1.13-.67-1.11-1,.64-8.1-2.34-13.84-10.41-16.39a3.06,3.06,0,0,1-1.31-.94C50,204.5,41.82,193.77,33.14,183.43c-8.52-10.15,4.49-32.78,20.1-35.21,24.55-3.82,43.44-15.8,60.22-33.68,22.58-24,52.76-30.46,84.3-32,31-1.52,61,3.06,89.61,15.35a69.35,69.35,0,0,0,6.9,2.38c.4.13,1-.22,1.92-.47a35.32,35.32,0,0,0-.38-3.78c-2.89-14,2.4-24.41,14.18-31.7,8.41-5.21,15.08-11.54,16.25-21.94.57-5,3.36-3.84,6.25-2.51C387,65,393.08,127.5,359,163.61c-11.33,12-25.28,19.25-41.23,22.92-1.83.42-3.66.84-5.49,1.31-.17,0-.27.4-.4.61,17.81,8.61,47.91,1.66,64.67-10.49,19.47-14.12,30.25-33.35,33.34-57.34,66.37,53.65,80.83,197.78,25.68,259.46-.12-16.25.43-31.75-5.28-47-.71,2.95-1.43,5.89-2.14,8.84-9.72,40-30.21,73.24-62.19,99.28-1.87,1.52-4,2.71-6,4.05Z"/><path class="cls-2" d="M289.37,89.57c-4.12-8.14-4.28-14.9-1-21,7.06-13.08,6.28-24.83-4.51-35.41,10.07-7,27.13,4.63,30,13.48,1.51,4.65-1,7.14-4.16,9.52-4.95,3.76-10,7.41-13.91,12.35C292,73.28,290.71,77.53,289.37,89.57Z"/><path class="cls-1" d="M360,445.24c-.48,1.05-1.51,1.58-2.25.84-.92-.92.48-1.46.94-2.15Z"/></svg>