<svg id="Layer_1" data-name="Layer 1" xmlns="http://www.w3.org/2000/svg" viewBox="0 0 500 500"><defs><style>.cls-1{fill:#549d44;}.cls-2{fill:#75a769;}</style></defs><path class="cls-1" d="M193.64,378.65c-4.7,33.28-30.32,45.52-60.65,42.29-11.44-1.22-21.92-5.83-31.87-11.24C85.91,401.43,71,392.6,56.06,383.84c-9.71-5.68-15.89-14-17.71-25.28,3.13-5-.18-10-.12-14.95.32-27.4-.1-54.81.21-82.22.42-37.61-1.42-75.25,1-112.84.15-2.35.76-4.94-1.05-7.07a34.19,34.19,0,0,1,17.07-24.33Q143.22,66.09,231.15,15.39c12.5-7.19,25.8-6.92,38.31.29Q356.82,66.05,444,116.79c9.52,5.53,15.6,13.72,17.64,24.69-2.82,5,0,10,0,15q0,94.92,0,189.84c0,4.09-3,8.19,0,12.27a33.93,33.93,0,0,1-17.19,25q-87.13,50.74-174.54,101c-12.57,7.2-26.25,7-39-.36-19.67-11.34-39.09-23.14-58.6-34.77-1.85-1.11-4.44-2-4.07-4.72.33-2.38,3-2.53,4.76-3.06a92.59,92.59,0,0,0,22.44-10.11c3.27-2.05,5.5-1.46,8.45.34,13.11,8,26.43,15.66,39.49,23.73,4.34,2.68,7.87,2.66,12.3.09q84.85-49.38,169.94-98.38c4.75-2.73,4.59-6.56,4.59-10.8q0-59.62,0-119.23c0-24.56-.14-49.13.12-73.68.06-6-1.61-9.54-7.14-12.7q-83.55-47.64-166.69-96c-5.18-3-9-2.86-14,.07q-82.6,47.9-165.51,95.28c-6.1,3.47-8.12,7.4-8.09,14.23q.34,95.78,0,191.56c0,6.45,2,10,7.68,13.08,13.93,7.45,27.49,15.6,41.14,23.56a45.23,45.23,0,0,0,15.59,5.57c16,2.66,28.26-7.52,28.26-23.77q0-96.78,0-193.58c0-9.4.88-10.44,10.31-10.22,6.42.16,12.9-1,19.25.78a2.5,2.5,0,0,0,2.79,2.66h0c-.06,2.67-.17,5.35-.17,8,0,64.27-.09,128.55.14,192.83C193.84,369.56,191.19,374.1,193.64,378.65Z"/><path class="cls-1" d="M304.3,350.07c-21.75-.47-42.11-2.1-61-11.53-20.73-10.34-30.81-27.5-32.09-50.21-.4-7.15,1.28-8.77,8.31-8.83,6.25-.06,12.5.08,18.75,0,3.82-.07,5.89,1.63,6.3,5.35,2,17.9,12.05,28.32,29.59,31.22,21.72,3.58,43.48,4.48,64.95-1.73,7.8-2.26,13.92-6.78,16.79-14.88,4.26-12,.5-20.58-11.34-25.18-9.4-3.66-19.29-5.32-29.21-6.72-20.05-2.83-40.38-3.69-60-9.42-25.67-7.49-37.73-22.26-37.69-46.68,0-23.1,11.35-40.7,34.36-49,33.28-11.94,67.12-11.58,99.87,2,22,9.14,31.13,28.16,33.14,51,.33,3.85-1.63,6.45-5.88,6.48-7.14,0-14.28,0-21.43,0a5.05,5.05,0,0,1-5.35-4.18C348,193,329.67,187.52,308.55,186.05a124.73,124.73,0,0,0-35.94,2.4c-13.26,2.93-19.91,10.45-20.22,22-.19,7.08,3,11.34,9.26,13.83,12.33,4.93,25.45,6.25,38.42,8.17,17.83,2.63,35.8,4.42,53.21,9.46,19.9,5.77,35.28,15.85,38.53,38.41s-6.46,43.88-25.59,55.54C346.79,347.73,325.14,349.65,304.3,350.07Z"/><path class="cls-2" d="M38.41,141.48c1.81,2.13,1.2,4.72,1.05,7.07-2.44,37.59-.6,75.23-1,112.84-.31,27.41.11,54.82-.21,82.22-.06,5,3.25,10,.12,14.95-1.14-3-1.19-6.09-1.19-9.23q0-98.64,0-197.29C37.17,148.47,37.15,144.9,38.41,141.48Z"/><path class="cls-2" d="M461.65,358.56c-2.94-4.08,0-8.18,0-12.27q-.11-94.92,0-189.84c0-5-2.84-10,0-15a28.83,28.83,0,0,1,1.24,9.9q0,99,0,198C462.84,352.47,462.8,355.58,461.65,358.56Z"/><path class="cls-2" d="M193.64,378.65c-2.45-4.55.2-9.09.18-13.64-.23-64.28-.16-128.56-.14-192.83,0-2.68.11-5.36.17-8,1.9,2.1,1.07,4.68,1.08,7q.06,96.75,0,193.5A64,64,0,0,1,193.64,378.65Z"/><path class="cls-2" d="M193.87,164.16a2.5,2.5,0,0,1-2.79-2.66A2.52,2.52,0,0,1,193.87,164.16Z"/></svg>