<svg id="Layer_1" data-name="Layer 1" xmlns="http://www.w3.org/2000/svg" viewBox="0 0 500 500"><defs><style>.cls-1{fill:#3060a0;}.cls-2{fill:#f1f7f9;}.cls-3{fill:#40649c;}</style></defs><path class="cls-1" d="M.16,250Q.16,128.5,0,7C0,1.17,1.17,0,7,0Q250,.3,493,0c5.82,0,7,1.17,7,7q-.3,243,0,486c0,5.82-1.17,7-7,7q-243-.3-486,0c-5.82,0-7-1.17-7-7Q.36,371.51.16,250Zm440-54.6-14.64,1.43c-5.65.84-3.64,5.41-3.67,8.43-.29,30.2-.38,60.4-.47,90.6,0,8.62,6.91,13.93,14.91,11.26a54.79,54.79,0,0,1,34.36-.23c7.83,2.46,11.76-1.43,15.39-6.6,4-5.71,1.05-10.29-3.15-14.58-4.52-4.61-9.1-4.56-15-2.36-16.22,6.06-22.61,1.53-22.63-15.25,0-20.46,0-40.92,0-61.38C445.17,202.31,446.11,197.26,440.15,195.4ZM322,285.7c-5.75.84-11.47,2-17.25,2.44-10.08.72-19.35-1.47-26.63-9.17-11.54-12.18-13.68-36.29-4.6-52,7.82-13.55,21.73-18.35,40.82-14,3.81.87,7.59,2.89,8.13-3.76.39-4.73,4.74-10-3.89-12.11-11.6-2.78-23.15-3.49-34.51.37-33,11.18-46.18,58.54-24.79,88.22,6.54,9.08,15.18,14.64,26.06,17.44,9.4,2.43,18.71,1,28.07,1,3.69,5.11,7,13.05,12.24.92,1-2.22,4.16-.55,6.33-.47,15.53.07,15.53.07,19.52-14.88.92-3.43,2.12-6.81,2.79-10.3.86-4.49,3-6.16,7.85-6.35,24.27-1,24.26-1.13,31,22.18.27.93.55,1.86.88,2.78,1.48,4.22,11.78,7.33,17.33,4.78,5.22-2.39,1.15-6.28.39-8.94-8.34-29.28-17.62-58.29-25.3-87.73-2.66-10.23-8.59-9.56-16.19-10.1-8.28-.6-10.91,3.06-13,10.4-8.11,28.95-16.93,57.71-25.49,86.54C326.69,293.09,325.55,287.78,322,285.7ZM71,261.3c8,.8,14.38-.61,14.55-10.56,1.31-2.6,2.8-5.11,3.89-7.79,9.5-23.26-4.12-45.68-28.95-47.43-7.08-.49-14.22-.15-21.34-.19-7-1.16-15.54-5.08-15.56,7.74,0,31.43.1,62.86,0,94.29,0,11.19,8.83,9.46,15.05,10.14,6,.65,8.06-4.52,8.27-9.82.26-6.47.21-12.95.16-19.43-.06-8.4,3.93-12.58,12.41-12.62,4.11,0,8.68.76,11-4.15Zm91.17,41.37c9.4,2.68,9-1.94,6.82-9.07-8.87-29.14-18-58.23-25.71-87.67-2.54-9.66-7.71-9.76-15.25-9.83-7.23-.07-11.26,1.08-13.47,9.47-7.58,28.8-16.37,57.28-24.74,85.87-3.55,12.12-3.59,11.8,9,11.74,4.92,0,6.87-1.8,7.84-6.26,1.17-5.38,3.45-10.55,4.2-16,1-6.75,4.55-8,10.64-8,22.2,0,22.46-.23,28.18,20.74C151.59,300.55,153.66,305.4,162.2,302.67Zm41.66,2c19.7,0,33.25-9.14,36.45-24,3.76-17.47-3.41-30.16-21.62-38.6A141.94,141.94,0,0,1,204,234.55c-4.44-2.73-6.8-7.11-5.95-12.4.92-5.69,4.77-9.11,10.24-10.52a26.73,26.73,0,0,1,18.1,1.62c6.19,2.88,7.33.23,9-5.08,2-6.38,1-9.49-5.75-11.26a63.85,63.85,0,0,0-18.31-1.84c-15.65.44-27.19,9.35-30.7,23.54-3.39,13.66,2.69,26,16.85,33.68,6,3.24,12.31,5.83,18.21,9.19s8.19,9,7,15.76c-1.12,6.27-5.48,9-11.31,10.51-8.37,2.12-16-.45-23.65-3.11-2.1-.72-4-3.58-6.26.55-5,9.16-3.1,14.75,6.87,17.22C193.67,303.73,199,305.35,203.86,304.69Z"/><path class="cls-2" d="M162.2,302.67c-8.54,2.73-10.61-2.12-12.47-9-5.72-21-6-20.71-28.18-20.74-6.09,0-9.69,1.24-10.64,8-.75,5.41-3,10.58-4.2,16-1,4.46-2.92,6.24-7.84,6.26-12.61.06-12.57.38-9-11.74,8.37-28.59,17.16-57.07,24.74-85.87,2.21-8.39,6.24-9.54,13.47-9.47,7.54.07,12.71.17,15.25,9.83,7.74,29.44,16.84,58.53,25.71,87.67C171.19,300.73,171.6,305.35,162.2,302.67Zm-21.87-45.51c-3.93-14-7.81-27.89-12.25-43.73-2.43,9.42-4.14,16.65-6.16,23.8C115.41,260.23,115.36,260.22,140.33,257.16Z"/><path class="cls-2" d="M331.85,292.94c8.56-28.83,17.38-57.59,25.49-86.54,2.06-7.34,4.69-11,13-10.4,7.6.54,13.53-.13,16.19,10.1,7.68,29.44,17,58.45,25.3,87.73.76,2.66,4.83,6.55-.39,8.94-5.55,2.55-15.85-.56-17.33-4.78-.33-.92-.61-1.85-.88-2.78-6.76-23.31-6.75-23.15-31-22.18-4.82.19-7,1.86-7.85,6.35-.67,3.49-1.87,6.87-2.79,10.3-4,14.95-4,14.95-19.52,14.88C328.1,300.75,332.69,296.8,331.85,292.94ZM371.26,214c-2.89,10.44-5.13,18.69-7.46,26.91-5.37,18.93-5.31,19,14.22,17a7.71,7.71,0,0,1,1,0c3.84.19,4.26-2,3.41-5C378.92,240.79,375.42,228.59,371.26,214Z"/><path class="cls-2" d="M39.18,195.33c7.12,0,14.26-.3,21.34.19C85.35,197.27,99,219.69,89.47,243c-1.09,2.68-2.58,5.19-3.89,7.79L71,261.3l-.54.19c-6.44.36-12.62,3.06-19.18,2.09-5.06-.74-6.9,1.27-6.69,6.45.35,8.74,0,17.51.13,26.27.21,10.69-7.87,5.6-12.57,6.63-5.81,1.26-5.13-2.5-5.1-6.59.2-28.55.68-57.11-.19-85.63C26.58,200.67,29.11,195.71,39.18,195.33ZM50.9,247.85c9.61,1.21,17.6-1.34,21.65-10.77,3.3-7.68,3-15.64-3.51-21.54-7-6.31-15.37-7-23.91-2.59-.14,9.74-.16,19.48-.47,29.21C44.51,246.8,46.05,249,50.9,247.85Z"/><path class="cls-2" d="M203.86,304.69c-4.82.66-10.19-1-15.5-2.28-10-2.47-11.85-8.06-6.87-17.22,2.24-4.13,4.16-1.27,6.26-.55,7.67,2.66,15.28,5.23,23.65,3.11,5.83-1.47,10.19-4.24,11.31-10.51,1.21-6.77-1-12.35-7-15.76s-12.23-6-18.21-9.19c-14.16-7.68-20.24-20-16.85-33.68,3.51-14.19,15.05-23.1,30.7-23.54a63.85,63.85,0,0,1,18.31,1.84c6.77,1.77,7.76,4.88,5.75,11.26-1.68,5.31-2.82,8-9,5.08a26.73,26.73,0,0,0-18.1-1.62c-5.47,1.41-9.32,4.83-10.24,10.52-.85,5.29,1.51,9.67,5.95,12.4a141.94,141.94,0,0,0,14.66,7.57c18.21,8.44,25.38,21.13,21.62,38.6C237.11,295.55,223.56,304.66,203.86,304.69Z"/><path class="cls-2" d="M313.45,304.11c-9.36,0-18.67,1.45-28.07-1-10.88-2.8-19.52-8.36-26.06-17.44-21.39-29.68-8.19-77,24.79-88.22,11.36-3.86,22.91-3.15,34.51-.37,8.63,2.07,4.28,7.38,3.89,12.11-.54,6.65-4.32,4.63-8.13,3.76-19.09-4.38-33,.42-40.82,14-9.08,15.74-6.94,39.85,4.6,52,7.28,7.7,16.55,9.89,26.63,9.17,5.78-.41,11.5-1.6,17.25-2.45C322.63,293.44,326.11,302.54,313.45,304.11Z"/><path class="cls-2" d="M425.51,196.83l14.64-1.43c3.92,2.77,2.85,6.93,2.86,10.7.05,23.07.44,46.15-.19,69.2-.25,9.08,1.68,13.12,11.57,11.86,7-.89,14.3.22,21.41-.28,6.12-.43,7,2.62,6.8,7.56-.19,4.64.52,8.95-6.76,8.7-13.95-.5-27.95-.5-41.9,0-7,.26-8.75-2.19-8.68-8.85C425.59,261.81,425.47,229.32,425.51,196.83Z"/><path class="cls-3" d="M425.51,196.83c0,32.49.08,65-.25,97.47-.07,6.66,1.7,9.11,8.68,8.85,13.95-.51,27.95-.51,41.9,0,7.28.25,6.57-4.06,6.76-8.7.21-4.94-.68-8-6.8-7.56-7.11.5-14.38-.61-21.41.28-9.89,1.26-11.82-2.78-11.57-11.86.63-23.05.24-46.13.19-69.2,0-3.77,1.06-7.93-2.86-10.7,6,1.86,5,6.91,5,11.32.08,20.46,0,40.92,0,61.38,0,16.78,6.41,21.31,22.63,15.25,5.92-2.2,10.5-2.25,15,2.36,4.2,4.29,7.17,8.87,3.15,14.58-3.63,5.17-7.56,9.06-15.39,6.6a54.79,54.79,0,0,0-34.36.23c-8,2.67-14.93-2.64-14.91-11.26.09-30.2.18-60.4.47-90.6C421.87,202.24,419.86,197.67,425.51,196.83Z"/><path class="cls-3" d="M39.18,195.33c-10.07.38-12.6,5.34-12.29,15.38.87,28.52.39,57.08.19,85.63,0,4.09-.71,7.85,5.1,6.59,4.7-1,12.78,4.06,12.57-6.63-.17-8.76.22-17.53-.13-26.27-.21-5.18,1.63-7.19,6.69-6.45,6.56,1,12.74-1.73,19.18-2.09-2.34,4.9-6.91,4.12-11,4.14-8.48,0-12.47,4.22-12.41,12.62,0,6.48.1,13-.16,19.43-.21,5.3-2.28,10.47-8.27,9.82-6.22-.68-15.1,1.05-15.05-10.14.14-31.43,0-62.86,0-94.29C23.64,190.25,32.13,194.17,39.18,195.33Z"/><path class="cls-3" d="M313.45,304.11c12.66-1.57,9.18-10.67,8.59-18.42,3.51,2.09,4.65,7.4,9.81,7.25.84,3.86-3.75,7.81.17,11.62-2.17-.08-5.37-1.75-6.33.47C320.45,317.16,317.14,309.22,313.45,304.11Z"/><path class="cls-3" d="M71,261.3l14.55-10.56C85.41,260.69,79,262.1,71,261.3Z"/><path class="cls-3" d="M140.33,257.16c-25,3.06-24.92,3.07-18.41-19.93,2-7.15,3.73-14.38,6.16-23.8C132.52,229.27,136.4,243.16,140.33,257.16Z"/><path class="cls-3" d="M371.26,214c4.16,14.55,7.66,26.75,11.13,39,.85,3,.43,5.16-3.41,5a7.71,7.71,0,0,0-1,0c-19.53,2-19.59,1.91-14.22-17C366.13,232.73,368.37,224.48,371.26,214Z"/><path class="cls-1" d="M45.13,213c8.54-4.37,16.89-3.72,23.91,2.59,6.56,5.9,6.81,13.86,3.51,21.54-4,9.43-12,12-21.65,10.77-4.09-3.61-3.66-8.46-3.91-13.26C46.6,227.37,48.62,219.91,45.13,213Z"/><path class="cls-3" d="M45.13,213c3.49,7,1.47,14.42,1.86,21.64.25,4.8-.18,9.65,3.91,13.26-4.85,1.13-6.39-1-6.24-5.69C45,232.43,45,222.69,45.13,213Z"/></svg>