<svg id="Layer_1" data-name="Layer 1" xmlns="http://www.w3.org/2000/svg" viewBox="0 0 500 500"><defs><style>.cls-1{fill:#fdbf09;}.cls-2{fill:#0277bb;}</style></defs><path class="cls-1" d="M311.27,327.92c-22.47,0-44.94.05-67.41-.06-2.56,0-3.35.61-3.22,3.2.22,4.44.21,8.9,0,13.34-.11,2.49.74,3,3.1,3q40.11-.12,80.2,0c4.55,0,3.93-.59,3.94,4.06,0,11.9,0,23.8,0,35.69A69,69,0,0,1,326.6,401c-2.36,11.76-9.72,19.23-20.51,23.76-10.64,4.46-21.93,6.22-33.25,7.82-21.31,3-42.55,2.63-63.45-2.69-19.13-4.87-31.88-16.49-35.82-36.47a51.13,51.13,0,0,1-.71-9.82q0-38.16,0-76.31c0-22.27,11.62-38,33-44.61a55.25,55.25,0,0,1,16.61-2.37c21.89.05,43.79-.45,65.67.13,31.21.84,55.43-25.15,58.7-50.85a66.43,66.43,0,0,0,.38-8.11c0-14.79.09-29.59-.05-44.39,0-2.77.86-3.36,3.44-3.32,10,.14,20,.19,29.93,0,18.14-.3,31,8.05,39.66,23.58,6.11,11,8.6,23.12,11.15,35.25,5.41,25.86,3.28,51.36-3.57,76.62-6.25,23-24.64,37.41-49.1,38.57-1,0-1.94.1-2.91.1H311.27Zm-31.72,53.25a14.51,14.51,0,1,0,14.54-14.5A14.48,14.48,0,0,0,279.55,381.17Z"/><path class="cls-2" d="M191,173.12c21.89,0,43.78-.05,65.67.07,2.74,0,3.42-.8,3.3-3.4-.21-4.34-.2-8.71,0-13,.11-2.36-.71-2.88-2.94-2.88q-40.09.1-80.19,0c-4.74,0-4.1.44-4.11-4.24,0-10.93-.11-21.86,0-32.78a96.72,96.72,0,0,1,1.15-15.57c2-11.5,8.63-19.4,19.1-24.2,11.5-5.27,23.89-7,36.24-8.77a152.55,152.55,0,0,1,26.3-1.65c15.38.45,30.9,1.34,45.16,7.73,17.42,7.81,27.05,21.48,27.17,40.92.16,27.18-.11,54.36.1,81.53.12,15-6.57,26.12-18.4,34.52a52,52,0,0,1-31.08,9.6c-22.66-.06-45.33.18-68-.06-29.95-.32-55.49,27-56.69,54.28-.71,16.33-.18,32.68-.22,49,0,2.6-.59,3.4-3.3,3.35-9.49-.18-19-.29-28.48,0-21.48.61-35.48-10-43.82-29-6.92-15.75-9.69-32.55-11.23-49.52-1.84-20.27,1.12-40.16,7.05-59.49,6.58-21.48,22.1-32.78,44-35.86a75,75,0,0,1,10.7-.62Q159.73,173.15,191,173.12Zm30.29-52.89a14.67,14.67,0,0,0-14.43-14.75,14.5,14.5,0,0,0,.1,29A14.68,14.68,0,0,0,221.26,120.23Z"/></svg>