<svg id="Layer_1" data-name="Layer 1" xmlns="http://www.w3.org/2000/svg" viewBox="0 0 500 500"><defs><style>.cls-1{fill:#00d8ff;}</style></defs><path class="cls-1" d="M394.52,179.81q-7-2.4-14.44-4.55,1.21-5,2.23-9.85c10.93-53,3.78-95.79-20.62-109.86-23.4-13.5-61.67.57-100.31,34.21Q255.8,94.6,250.21,100c-2.48-2.37-5-4.67-7.43-6.86-40.51-36-81.11-51.12-105.49-37-23.37,13.54-30.3,53.72-20.46,104q1.42,7.27,3.32,14.86-8.62,2.44-16.6,5.21c-47.49,16.56-77.82,42.51-77.82,69.42,0,27.8,32.56,55.68,82,72.59q5.86,2,12.13,3.79c-1.36,5.45-2.53,10.8-3.52,16-9.38,49.41-2.06,88.64,21.26,102.09,24.08,13.88,64.49-.39,103.85-34.79q4.67-4.08,9.36-8.63,6.07,5.86,12.12,11.06c38.12,32.81,75.77,46.05,99.06,32.57,24.06-13.93,31.88-56.07,21.73-107.35q-1.17-5.86-2.69-12,4.26-1.25,8.34-2.6c51.42-17,84.88-44.58,84.88-72.75,0-27-31.31-53.13-79.75-69.81ZM383.36,304.18q-3.67,1.21-7.53,2.36a450.55,450.55,0,0,0-22.71-56.82,450.93,450.93,0,0,0,21.83-56q6.89,2,13.33,4.21c41.51,14.29,66.82,35.41,66.82,51.69,0,17.34-27.34,39.85-71.74,54.56Zm-18.42,36.5c4.49,22.68,5.13,43.18,2.16,59.2-2.67,14.4-8,24-14.69,27.85-14.13,8.18-44.36-2.46-77-30.51q-5.61-4.83-11.28-10.28a451.69,451.69,0,0,0,37.6-47.74,447.07,447.07,0,0,0,60.74-9.37q1.38,5.55,2.43,10.85ZM178.65,426.31c-13.81,4.88-24.81,5-31.46,1.19-14.15-8.16-20-39.66-12-81.92q1.38-7.26,3.28-14.89a449.11,449.11,0,0,0,60.44,8.75A467,467,0,0,0,237.4,387q-4.29,4.14-8.54,7.87c-17.4,15.21-34.84,26-50.21,31.43ZM114,304.07C92.08,296.6,74,286.88,61.64,276.28c-11.13-9.52-16.74-19-16.74-26.66,0-16.33,24.34-37.16,65-51.32,4.92-1.72,10.08-3.34,15.44-4.86a457.81,457.81,0,0,0,21.86,56.65A467.37,467.37,0,0,0,125,307.54q-5.73-1.65-11.07-3.47Zm21.69-147.62c-8.43-43.08-2.83-75.58,11.25-83.73,15-8.69,48.19,3.69,83.16,34.75,2.24,2,4.48,4.06,6.73,6.21A458.78,458.78,0,0,0,198.57,161a468.6,468.6,0,0,0-59.85,9.31q-1.75-7.05-3.08-13.82Zm193.47,47.77q-6.66-11.5-13.64-22.43c14.31,1.81,28,4.21,40.9,7.15A408,408,0,0,1,342,227.56q-6.11-11.58-12.91-23.34Zm-78.9-76.85a411.06,411.06,0,0,1,26.4,31.87c-8.77-.42-17.66-.63-26.61-.63s-17.69.21-26.4.62c8.71-11.5,17.64-22.17,26.61-31.86Zm-79.4,77q-6.65,11.53-12.66,23.2c-5.58-13.24-10.36-26.25-14.25-38.81,12.79-2.87,26.44-5.21,40.66-7q-7.06,11-13.75,22.59ZM185,318.86a409.8,409.8,0,0,1-41.34-6.65c4-12.79,8.84-26.08,14.54-39.6q6,11.64,12.72,23.21h0q6.81,11.78,14.08,23Zm65.77,54.36c-9.08-9.8-18.14-20.64-27-32.29q12.88.49,26.24.51,13.71,0,27.08-.61a407.48,407.48,0,0,1-26.34,32.39Zm91.46-101.3a407.83,407.83,0,0,1,15.06,39.46,404.7,404.7,0,0,1-41.84,7.13q7-11.07,13.77-22.82t13-23.77Zm-29.61,14.2c-7,12.15-14.21,23.76-21.52,34.71-13.3.95-27.06,1.44-41.07,1.44s-27.54-.43-40.61-1.28c-7.6-11.1-15-22.74-21.92-34.77h0c-6.95-12-13.34-24.1-19.14-36.14,5.79-12.06,12.17-24.18,19.08-36.16h0c6.93-12,14.22-23.6,21.75-34.63,13.34-1,27-1.53,40.84-1.53h0c13.89,0,27.58.53,40.92,1.55,7.41,10.94,14.66,22.49,21.61,34.5s13.49,24.19,19.33,36c-5.82,12-12.27,24.16-19.27,36.31Zm39.53-214c15,8.66,20.86,43.59,11.42,89.4-.6,2.92-1.28,5.9-2,8.91a460.7,460.7,0,0,0-60-9.47,450.48,450.48,0,0,0-37.92-47.32q5.17-5,10.32-9.46C307.07,75.39,338,64,352.12,72.15ZM250,209.57A40.05,40.05,0,1,1,210,249.62,40,40,0,0,1,250,209.57Z"/></svg>