<svg id="Layer_1" data-name="Layer 1" xmlns="http://www.w3.org/2000/svg" viewBox="0 0 500 500"><defs><style>.cls-1{fill:#04ba97;}.cls-2{fill:#0277bb;}</style></defs><path class="cls-1" d="M323.86,205.59a35,35,0,0,1,.81-6.2c1.33-4.39.12-6.95-4-9.45-9.69-5.9-9.51-6.18-19,.44-5.48,3.8-9.1,3.31-13.38-2-2.7-3.37-5.34-6.8-7.82-10.33-4.32-6.14-3.76-10.34,1.89-15.21a31.66,31.66,0,0,1,5.12-4c3.25-1.8,4.06-4.15,2.58-7.48a8.13,8.13,0,0,1-.88-3.1c0-8.7-5.08-11.11-12.87-11.23-5.61-.08-8.72-3.53-8.12-9.38s.92-11.72,2.55-17.24c.73-2.46,4.18-4.38,6.77-5.89,1.23-.72,3.36,0,5.06.19,9.84,1.15,16.05-2.83,18.79-12.4a5.92,5.92,0,0,0-1-4.08c-1.34-2.2-3.17-4.1-4.62-6.25-3-4.52-3.18-8.93,1.29-12.62,4-3.3,8.07-6.5,12.33-9.42,5.59-3.83,8.91-3.2,13.35,2.17,1.65,2,2.73,4.6,4.68,6.15,1.76,1.39,4.36,1.72,6.61,2.49.16.06.4-.14.61-.16,9.33-.53,15-4.25,14.6-14.8-.19-5.58,4.06-7.75,9.37-7.24,4.94.48,9.9,1,14.78,1.86,7.68,1.36,9.76,4.34,8.82,12.23-.28,2.35-1.24,4.63-1.37,7-.09,1.51.28,3.7,1.29,4.49A62.86,62.86,0,0,0,393,81.1c1.48.73,4.07.28,5.67-.57,2.43-1.29,4.29-3.6,6.63-5.11,4.48-2.9,8.66-2.25,12.07,1.9,2.74,3.34,5.4,6.75,7.92,10.26,5.1,7.13,4.52,11-2.16,16.59-2.61,2.17-7.11,4.25-7.32,6.67-.41,4.72,1,9.93,2.91,14.36.85,1.94,4.94,3.5,7.53,3.47,10.93-.13,13.58,5.81,11.23,16a44,44,0,0,0-.87,5.11c-1.23,11.42-3.15,12.82-14.91,11.63-3.06-.31-7.43-.85-9.08.82-3.52,3.56-5.9,8.37-8.16,13-.46.93,1.51,3.28,2.67,4.74,8,10.11,7.8,12.46-2.21,20.34l-.5.41c-12.95,10.95-15.69,11.64-26-2.54-1.12-1.54-4.24-1.67-6.48-2.3-.51-.14-1.21.58-1.82.57-8.6-.14-12.34,3.74-12.9,12.63-.48,7.68-3.77,9.41-11.37,8.59-4.72-.51-9.41-1.29-14.12-1.9C325.85,215,323.7,211.32,323.86,205.59Zm28.95-38.42c18.83,0,34.5-15.42,34.41-33.86s-15.41-34-33.54-34.1c-19-.12-34.81,15.43-34.72,34.23A34.25,34.25,0,0,0,352.81,167.17Z"/><path class="cls-1" d="M87.7,380.53c-15.38-1.53-27.84-7.31-39.36-15-19-12.62-31.66-30.31-39.4-51.62C1.29,292.84-.2,271.37,6,249.71c6.57-23,19.71-41.51,40-54.58a117.86,117.86,0,0,1,39.13-16.55c4.16-.9,6.22-3.05,7.6-7.45C110.27,115.3,147.59,80.61,204.84,67.9c20-4.43,40.08-5.13,60.25-.43.74,6.88-.62,11.79-7.09,14.67-2.85,1.28-6,3.48-7.38,6.12-3.06,5.84-7.77,5.56-13.11,5.55-29.75-.06-56.61,8.71-79.6,27.76-21.23,17.58-33.75,40.64-39.42,67.39-2.62,12.4-2.14,12.75-14.22,15.11-15,2.93-29.34,7.11-42.16,15.67-18.25,12.18-28.75,29.37-30,51.08-1.73,30.72,9.77,55.65,36.19,72.58,4.84,3.11,10.63,4.72,15.84,7.31,1.44.72,3.33,2.46,3.38,3.79C87.86,362.88,87.7,371.27,87.7,380.53Z"/><path class="cls-2" d="M234.44,451.28c-11.05,0-21.34.24-31.6-.24-1.63-.08-3.84-3.12-4.56-5.22-4.82-14.08-.75-12.38-16.89-12.47-6.48,0-13,.23-19.43-.1-4.56-.23-6.46,1.76-7.7,5.91-3.66,12.25-3.8,12.2-16.93,12.2H116.4c3-8.11,5.54-15.06,8.15-22,10-26.6,20.15-53.15,29.94-79.82,1.9-5.16,4.22-7.65,10.12-7.25,8.17.57,16.42-.18,24.59.35,2.35.15,5.82,2.27,6.61,4.31,12.61,32.76,24.87,65.65,37.18,98.53C233.56,447,233.8,448.67,234.44,451.28Zm-47.15-41.16C183.38,397,179.8,385,176.22,373l-2,.23c-3.51,12-7,24-10.76,36.87Z"/><path class="cls-2" d="M243.85,396.56c0-16,.09-32-.06-48,0-4.18.83-6.31,5.69-6.24,18.8.29,37.61-.06,56.4.37,13.8.31,24.83,8.09,28.32,18.91,5.21,16.13,2.2,33.13-9.08,40.87-6.28,4.31-14.36,6.57-22,8.2-6.21,1.32-12.94.67-19.39.26-5.39-.35-6.73,2-6.62,6.81.22,9.07-.11,18.15.12,27.22.12,4.74-1.57,6.64-6.39,6.45-6.91-.28-13.84-.34-20.74,0-4.83.24-6.44-1.42-6.37-6.27C244,429,243.86,412.77,243.85,396.56Zm42.8-31.8c-9.45,0-9.45,0-9.45,9.59,0,1.95,0,3.89,0,5.83,0,9.19,0,9.19,9.51,8.94,11-.3,17.36-4.81,17.4-12.38S297.85,364.78,286.65,364.76Z"/><path class="cls-1" d="M410.08,378.56c0-11.07-.32-20.29.29-29.46.11-1.71,3.73-3.67,6.09-4.68,15.6-6.65,29.08-15.88,38.82-30.12a72.63,72.63,0,0,0,12-33.87c3-28.71-.26-56.15-19.74-79.39-1.25-1.48-2.67-2.82-3.94-4.28-3.5-4-2.62-7.4,1.67-10.55,5.33-3.9,10.2-8.42,16.14-13.41,3.94,4.35,8.85,8.86,12.66,14.16,20.15,28,26.48,59.64,22.78,93.44-2.09,19.07-7.44,37.19-19.06,53a110.08,110.08,0,0,1-43.36,35C427.05,371.78,419.41,374.68,410.08,378.56Z"/><path class="cls-2" d="M384.42,397.55c0,16-.12,32,.08,47.94.06,4.51-1.47,6.12-6,5.95-7.55-.29-15.12-.17-22.67-.05-3.61.06-5.6-.85-5.58-5q.15-49.56,0-99.11c0-3.75,1.5-4.89,5-4.83,7.77.15,15.55.26,23.31-.05,4.58-.18,6,1.48,5.92,6C384.3,364.73,384.43,381.14,384.42,397.55Z"/><path class="cls-2" d="M169.78,288.11c5.81,9.54,11.39,18.7,17,27.85l-1.13,1.93c-6.51,0-13.08.48-19.51-.28-2-.24-4.05-3.57-5.41-5.88-2.63-4.43-4.57-9.28-7.24-13.68a18,18,0,0,0-5.68-5.84c-3.1-1.91-5.39-1-5.37,3.2,0,5.61-.24,11.24.05,16.83.25,4.61-1.62,6-6,5.91-17.25-.4-14.28,2.12-14.47-14.27-.17-15.11.12-30.22-.11-45.33-.07-4.81,1.59-6.43,6.37-6.3,11.86.33,23.75-.05,35.6.41,10.72.43,15.59,4.53,17.78,13.64,1.86,7.74-1.65,15.36-9.31,20.18C171.07,287.25,169.87,288.05,169.78,288.11Zm-19.1-23.06v.2c-1.5,0-3.29-.51-4.44.12-1.52.85-3.61,2.6-3.59,3.94,0,3.11.77,8.65,2,8.86a29.69,29.69,0,0,0,13.11-1.05c1.69-.5,3.64-4.11,3.4-6.06s-2.77-4.07-4.79-5.32C154.87,264.84,152.6,265.23,150.68,265.05Z"/><path class="cls-2" d="M213,276.82H243.3a24,24,0,0,1,.77,3.6c.41,9.48.39,9.48-9.33,9.48-5,0-10,.38-14.9-.08-6.31-.6-8.83,1.77-7.84,8,.24,1.46.29,2.95.52,5.35,9.37,0,18.61.26,27.82-.09,5.23-.2,7.39,1.27,7.2,6.84-.16,4.91-.36,8.19-6.8,8-14.26-.4-28.53-.24-42.8-.05-4.35.06-6.23-1.22-6.18-5.86q.27-26.91,0-53.82c-.05-4.54,1.56-6,6-5.95,14.26.22,28.53.29,42.79,0,5.54-.11,5.65,2.78,5.69,6.89,0,4.29-.45,7.05-5.84,6.74-6.68-.39-13.4-.09-20.1-.08C211.3,265.79,210.79,266.5,213,276.82Z"/><path class="cls-2" d="M310.24,271c-5.84,0-10.94.25-16-.16-1.53-.12-2.87-2.14-4.38-3.17-2.23-1.52-4.55-4.13-6.8-4.09-2.92,0-7.51,1.53-8.36,3.62-1.68,4.16,2.79,4.78,5.86,5.71,6.6,2,13.3,3.77,19.74,6.21,7.78,3,12.05,8.73,12,17.36,0,8.84-3.71,15.56-11.81,19.12-11.85,5.19-24,4.87-35.89.11-7.85-3.16-10.25-10.39-12-19.2,5.85-.55,11.12-1.34,16.37-1.33,1.27,0,2.89,2.49,3.74,4.15,3,5.94,9.44,8.8,15.09,5.8,2.09-1.11,4.32-3.85,4.51-6,.16-1.79-2.21-4.78-4.15-5.58-4.74-2-9.93-2.81-14.83-4.44-6.81-2.28-13.66-5-16.75-12.12-4.32-10,.94-21.65,11.92-23.75,8.85-1.69,18.36-1.37,27.37-.29C304.48,254,309,260.38,310.24,271Z"/><path class="cls-2" d="M347.83,252.34c8.21,0,16.42.18,24.62-.09,4.1-.13,5.75.95,5.77,5.37,0,10.39.27,10.39-10.55,10.4-10.36,0-10.36,0-10.36,10.06,0,11.24-.17,22.47.07,33.7.1,4.8-1.67,6.47-6.43,6.38-16.7-.33-13.8,1.56-14-13.52-.14-9.93-.31-19.88.06-29.8.22-5.58-2-7.43-7.18-6.85a44.74,44.74,0,0,1-5.18,0c-8.82,0-8.55,0-8.76-9.05-.12-5.08,1.5-6.93,6.67-6.71C331,252.6,339.41,252.34,347.83,252.34Z"/></svg>