<svg id="Layer_1" data-name="Layer 1" xmlns="http://www.w3.org/2000/svg" viewBox="0 0 500 500"><defs><style>.cls-1{fill:#38bcf7;}.cls-2{fill:#fdfefe;}</style></defs><path class="cls-1" d="M276.2,102.69c34,5.25,61.1,22.77,84.46,47.16a317.29,317.29,0,0,0,24.39,23.3C413.43,197,451.92,196.5,479.84,172c6-5.26,11.31-11.31,17.67-17.74-4.42,43-44.07,84.19-88.21,92.43-54.51,10.17-102.43-1.54-141.32-43-7.1-7.57-14.78-14.59-22.27-21.79-31.5-30.26-76-27.54-106.52,4a65.86,65.86,0,0,1-9.53,8.61c2.07-13.52,7.47-25.64,14.17-37.2,16.76-28.89,41.77-46.24,74.44-52.85,3.2-.65,6.92-.22,9.42-3.15H271C272.25,103.57,274.33,102.73,276.2,102.69Z"/><path class="cls-1" d="M2.49,343.75c3.53-3,3.65-7.62,5-11.57,17.45-49.82,52.27-77.61,105-81.59,45.11-3.41,85.2,8.37,117.41,41.9q12.59,13.1,26.08,25.32c32.48,29.51,73,28.76,104.68-1.6,3.93-3.77,8.36-7,13.91-11.63-1.07,0-1.18,1.17-1.36,1.81-13.91,51.67-48.39,85.88-103.33,91.35-25.11,2.5-49.43.28-73.15-8.51-17.66-6.54-32.51-17.32-46.05-30.05-9-8.49-17.57-17.53-26.55-26.09-35-33.35-80.63-31.19-112.79,5.12-2.51,2.83-3.84,7.42-8.89,7.27Z"/><path class="cls-2" d="M276.2,102.69c-1.87,0-3.95.88-5.2-1.39h5.2Z"/></svg>