<svg id="Layer_1" data-name="Layer 1" xmlns="http://www.w3.org/2000/svg" viewBox="0 0 500 500"><defs><style>.cls-1{fill:#39b984;}.cls-2{fill:#34495e;}</style></defs><path class="cls-1" d="M372.21,122.69h82.9L250,476.07,44.89,122.69h83q44,76.47,87.94,152.94c9.64,16.74,19.59,33.3,29.11,50.11,3.8,6.71,6.61,6.87,10.24,0,3.4-6.45,7.28-12.65,10.92-19Q319.15,214.73,372.21,122.69Z"/><path class="cls-2" d="M372.21,122.69q-53.07,92-106.15,184.06c-3.64,6.33-7.52,12.53-10.92,19-3.63,6.88-6.44,6.72-10.24,0-9.52-16.81-19.47-33.37-29.11-50.11q-44-76.44-87.94-152.94c22.83-.2,45.68-.12,68.51-.75,6.79-.19,8.7,4.07,11.3,8.48q19.89,33.72,39.87,67.38c.09,1.69.3,3.56,2.44,3.52s2.53-1.74,2.53-3.53q19.92-33.71,39.84-67.42c2.61-4.44,4.62-8.61,11.37-8.43C326.53,122.56,349.37,122.49,372.21,122.69Z"/></svg>